<svg width="198" height="137" viewBox="0 0 198 137" fill="none" xmlns="http://www.w3.org/2000/svg">
<ellipse cx="98.579" cy="68.6402" rx="89.55" ry="46.8" transform="rotate(-14.66 98.579 68.6402)" fill="#FF6352"/>
<ellipse cx="99.0098" cy="67.5069" rx="80.9394" ry="42.3" transform="rotate(-14.66 99.0098 67.5069)" fill="#FFD13B"/>
<path d="M70.0149 74.7848C70.1184 74.9658 70.1562 75.164 70.1283 75.3793C70.1005 75.5947 70.1419 75.8067 70.2526 76.0155C70.2818 76.1268 70.2846 76.245 70.2612 76.37C70.2757 76.4256 70.2771 76.4847 70.2654 76.5472C70.2464 76.5819 70.2406 76.6131 70.2479 76.6409C70.3906 77.0792 70.4706 77.3852 70.488 77.5589C70.5244 77.698 70.5351 78.0073 70.5202 78.4867C70.5756 78.5911 70.6251 78.7268 70.6688 78.8937C70.7314 79.0259 70.7977 79.172 70.8677 79.3321C70.8923 79.5337 70.8922 79.8012 70.8672 80.1347C70.7738 80.0997 70.6841 80.0786 70.598 80.0714C70.5382 80.0573 70.4784 80.0432 70.4186 80.0291C70.2464 80.0147 70.1858 80.1049 70.2367 80.2996C70.2877 80.4943 70.3613 80.6683 70.4575 80.8214C70.5726 80.9399 70.701 81.055 70.8424 81.1666C70.8481 81.4028 70.8574 81.653 70.8704 81.9171C70.9096 82.1744 70.9393 82.449 70.9596 82.7409C70.8937 83.0256 70.8184 83.3277 70.7336 83.6471C70.6415 83.9387 70.4823 84.1883 70.256 84.3962C70.2661 84.5421 70.2726 84.6742 70.2754 84.7923C70.271 84.8826 70.2607 85.0042 70.2446 85.157C70.0591 85.4136 69.8773 85.6841 69.6991 85.9685C69.5136 86.225 69.3712 86.4852 69.2718 86.749C69.1696 86.8946 69.0623 86.9673 68.95 86.9669C68.8376 86.9666 68.7326 86.9941 68.6348 87.0494C68.4873 87.2366 68.3398 87.4238 68.1923 87.6109C68.0711 87.7913 67.9368 87.975 67.7893 88.1622C67.6345 88.3216 67.4965 88.4914 67.3753 88.6717C67.2541 88.8521 67.1198 89.0358 66.9723 89.223L66.3813 89.3776C66.279 89.5232 66.1863 89.6515 66.1031 89.7625C66.0126 89.8456 65.9126 89.946 65.8031 90.0639C65.7243 90.0845 65.6622 90.1156 65.617 90.1571C65.5907 90.164 65.5477 90.1604 65.4879 90.1463C65.2179 90.1872 65.0377 90.2492 64.9472 90.3323C64.8494 90.3876 64.6611 90.5261 64.3823 90.7476C64.1677 90.8929 63.9531 91.0382 63.7385 91.1835C63.5313 91.3566 63.324 91.5297 63.1167 91.7028C62.7914 91.6393 62.4711 91.6488 62.1559 91.7313C61.867 91.8069 61.5649 91.8859 61.2497 91.9683C61.063 91.8983 60.8799 91.8422 60.7005 91.7999C60.5809 91.7718 60.478 91.7541 60.3919 91.7469C60.3321 91.7328 60.246 91.7256 60.1337 91.7253C60.0812 91.739 60.0024 91.7596 59.8973 91.7871C59.8185 91.8077 59.7338 91.8596 59.6433 91.9427C59.5981 91.9843 59.5433 92.0432 59.4791 92.1194C59.4148 92.1957 59.3673 92.2824 59.3366 92.3796C58.8157 92.4267 58.2817 92.4773 57.7345 92.5312C57.1947 92.613 56.6475 92.667 56.093 92.6932C55.8684 92.6925 55.6437 92.6918 55.419 92.6912C55.2133 92.6558 54.9981 92.6378 54.7734 92.6371C54.6231 92.7062 54.4728 92.7752 54.3224 92.8443C54.1721 92.9133 54.0123 92.9997 53.843 93.1034C53.4373 93.269 53.0843 93.1533 52.784 92.7563C52.7694 92.7007 52.7417 92.6485 52.7009 92.5997C52.6863 92.5441 52.6754 92.5024 52.6681 92.4745C52.6406 92.1548 52.6167 91.849 52.5965 91.557C52.5763 91.2651 52.5465 90.9906 52.5073 90.7333C52.4928 90.6777 52.5235 90.5805 52.5994 90.4417L52.5558 90.2748C52.4289 90.2189 52.302 90.1629 52.1751 90.1069C52.0744 90.0441 51.9738 89.9812 51.8732 89.9184L50.8514 86.1733L50.8404 86.1316L51.1162 86.0594C51.0754 86.0106 51.0251 85.9792 50.9653 85.9652C50.8982 85.9233 50.8348 85.8953 50.7749 85.8812C50.7749 85.8812 50.7816 85.7457 50.7949 85.4747C50.8082 85.2038 50.8134 85.0092 50.8106 84.8911C50.8195 84.7104 50.77 84.5748 50.662 84.4841C50.5804 84.3866 50.5119 84.2856 50.4565 84.1812C50.4799 84.0562 50.507 83.9451 50.5377 83.8479C50.5611 83.7229 50.5714 83.6013 50.5686 83.4832C50.5059 83.3509 50.4338 83.2361 50.3521 83.1385C50.2705 83.041 50.1889 82.9435 50.1072 82.8459C50.0446 82.7137 50.0082 82.5746 49.9981 82.4287C50.0069 82.248 49.9968 82.1021 49.9677 81.9908C49.9838 81.838 49.9606 81.6954 49.8979 81.5632C49.8353 81.431 49.7785 81.2675 49.7276 81.0728C49.5687 80.7874 49.3632 80.4845 49.111 80.1641C49.1461 79.9766 49.1681 79.7925 49.177 79.6119C49.1859 79.4312 49.1947 79.2506 49.2036 79.0699L48.9326 78.5167C48.9269 78.2804 48.9212 78.0441 48.9155 77.8078C48.9288 77.5368 48.9232 77.3005 48.8985 77.0989C48.6843 76.7092 48.5262 76.3195 48.4243 75.9301C48.3414 75.506 48.2454 75.0853 48.1363 74.668C48.078 74.4454 48.0782 74.1779 48.1368 73.8654C48.1747 73.796 48.1865 73.7335 48.1719 73.6778C48.1763 73.5875 48.1881 73.525 48.207 73.4903C48.0029 73.2465 47.8696 73.0585 47.8069 72.9263C47.7632 72.7594 47.7458 72.5856 47.7547 72.4049C47.7563 72.1965 47.6733 72.0399 47.5055 71.9351C47.3467 71.6497 47.2476 71.3784 47.2084 71.1212C47.1619 70.8362 47.1285 70.5477 47.1083 70.2557C47.2033 70.0823 47.2719 69.9157 47.3143 69.756C47.3758 69.5616 47.4372 69.3672 47.4986 69.1728C47.6226 69.1107 47.7467 69.0485 47.8707 68.9863C48.0138 68.8895 48.1415 68.8412 48.2538 68.8415C48.6959 68.815 49.1243 68.6287 49.5388 68.2824C49.6483 68.1646 49.7724 68.1025 49.911 68.0959C50.0759 68.0825 50.2444 68.083 50.4166 68.0974C50.8938 67.8834 51.371 67.6694 51.8483 67.4554C52.3255 67.2414 52.7823 67.003 53.2188 66.7402C53.3355 66.6502 53.4632 66.602 53.6018 66.5954C53.7405 66.5889 53.9017 66.5616 54.0856 66.5135L54.7074 65.9941C54.846 65.9876 54.9883 65.9949 55.1342 66.0162C55.2728 66.0097 55.415 66.0171 55.5609 66.0383C55.7113 65.9693 55.8579 65.8863 56.001 65.7895C56.144 65.6926 56.3039 65.6062 56.4804 65.5303C56.6001 65.5584 56.7233 65.6005 56.8502 65.6565C56.9771 65.7124 57.1004 65.7545 57.22 65.7827C57.5017 65.6793 57.7498 65.5549 57.9643 65.4096C58.2052 65.2574 58.4533 65.1331 58.7087 65.0366C58.8429 65.1203 58.9544 65.2249 59.0433 65.3503C59.125 65.4478 59.2292 65.5245 59.3561 65.5805C59.4976 65.6921 59.6602 65.7239 59.8441 65.6758C60.047 65.593 60.166 65.4578 60.2011 65.2703C60.2173 65.1175 60.2815 65.0412 60.3938 65.0415C60.5325 65.035 60.6965 65.1258 60.8861 65.314C61.0437 65.2728 61.1977 65.2176 61.348 65.1486C61.4983 65.0796 61.6654 65.021 61.8493 64.9729C62.0024 65.022 62.1293 65.078 62.23 65.1408C62.3496 65.1689 62.4765 65.2249 62.6107 65.3087C62.7448 65.3925 62.879 65.4763 63.0132 65.5601C63.1401 65.616 63.2801 65.6686 63.4333 65.7176C63.6127 65.7599 63.7505 65.8576 63.8467 66.0107C63.9954 66.1502 64.1573 66.2861 64.3323 66.4187C64.5263 66.5166 64.7071 66.6179 64.8749 66.7226C65.1505 66.918 65.5166 67.0302 65.9733 67.0594C66.0331 67.0735 66.0929 67.0875 66.1527 67.1016C66.2388 67.1088 66.2986 67.1229 66.3322 67.1438C66.4429 67.3526 66.5537 67.5614 66.6644 67.7702C66.7941 67.9444 66.9013 68.1392 66.9857 68.3549C67.025 68.6122 67.0401 68.8311 67.0313 69.0117C67.1493 69.2484 67.309 69.4295 67.5102 69.5552C67.7042 69.6531 67.8887 69.7683 68.0637 69.9008C68.5915 70.4166 68.961 71.0779 69.172 71.8846C69.2448 72.1628 69.3307 72.4375 69.4297 72.7088C69.5215 72.9523 69.5738 73.2061 69.5868 73.4702C69.6187 73.6996 69.6901 73.9187 69.8008 74.1275C69.9379 74.3295 70.0092 74.5486 70.0149 74.7848ZM63.9763 75.5175C63.8874 75.3921 63.7722 75.2737 63.6307 75.162C63.5082 75.0158 63.3989 74.866 63.3027 74.7129C63.1803 74.5666 63.0709 74.4168 62.9747 74.2637C62.8713 74.0827 62.7678 73.9017 62.6643 73.7207C62.2295 73.775 61.8254 73.7321 61.452 73.5921C61.1048 73.4451 60.7576 73.2981 60.4105 73.1512L59.8195 73.3058C59.4986 73.152 59.1981 73.0225 58.9181 72.9174C58.6307 72.7846 58.3303 72.6551 58.0166 72.5291C57.5556 72.5903 57.109 72.7071 56.677 72.8795C56.2641 73.0173 55.8628 73.0926 55.4732 73.1053C55.2586 73.2506 55.0667 73.3751 54.8974 73.4788C54.7471 73.5479 54.6004 73.6308 54.4573 73.7277C54.3288 73.8802 54.2456 73.9912 54.2076 74.0605C54.238 74.4984 54.3209 74.9226 54.4563 75.333C54.5917 75.7433 54.7271 76.1537 54.8626 76.5641C55.0113 76.7036 55.0681 76.867 55.033 77.0546C55.0168 77.2074 55.0401 77.3499 55.1027 77.4821C55.1508 77.5587 55.1858 77.6387 55.2076 77.7222C55.2557 77.7988 55.3111 77.9032 55.3737 78.0354C55.3649 78.216 55.3728 78.4072 55.3974 78.6088C55.4411 78.7757 55.4789 78.9738 55.5109 79.2032C55.6273 79.6483 55.697 80.0759 55.7201 80.486C55.8353 80.6044 55.9374 80.7264 56.0263 80.8517C56.1079 80.9492 56.1932 81.0607 56.2821 81.186C56.2688 81.457 56.246 81.7453 56.2137 82.051C56.2004 82.3219 56.1966 82.5756 56.2023 82.8119C56.2387 82.951 56.2751 83.09 56.3114 83.2291C56.3741 83.3614 56.4105 83.5004 56.4206 83.6464C56.4817 83.9871 56.4902 84.3415 56.4462 84.7097L56.6802 84.9605C56.9469 85.3366 57.3022 85.4071 57.7459 85.1722C58.0348 85.0966 58.2603 84.993 58.4223 84.8615C58.5916 84.7577 58.7624 84.7131 58.9345 84.7275C59.1257 84.7072 59.3095 84.6591 59.4861 84.5832C59.6817 84.4726 59.8868 84.3446 60.1013 84.1993C60.3349 84.0193 60.5458 83.8601 60.7341 83.7217C60.8582 83.6595 60.9691 83.6008 61.0669 83.5455C61.1647 83.4902 61.2698 83.4627 61.3821 83.463C61.6258 83.429 61.8753 83.3637 62.1307 83.2672C62.3861 83.1707 62.6415 83.0741 62.8969 82.9776C62.9349 82.9082 63.0028 82.8459 63.1005 82.7906C63.1911 82.7075 63.2684 82.6278 63.3327 82.5515C63.6757 82.2537 63.9335 81.8445 64.106 81.3238C64.1864 81.0947 64.2369 80.8586 64.2575 80.6155C64.2971 80.3376 64.3439 80.0876 64.398 79.8654C64.4845 79.3375 64.522 78.8373 64.5106 78.3647C64.492 77.8643 64.3909 77.3706 64.2074 76.8837C64.152 76.7793 64.1098 76.6714 64.0806 76.5602C64.0778 76.442 64.075 76.3239 64.0721 76.2057C64.0693 76.0876 64.0664 75.9694 64.0636 75.8513C64.0608 75.7331 64.0316 75.6219 63.9763 75.5175Z" fill="#57A3FF"/>
<path d="M97.2925 55.9024C97.2938 56.0237 97.3057 56.127 97.328 56.2124C97.3503 56.2977 97.3726 56.3831 97.395 56.4685C97.4173 56.5538 97.4434 56.6534 97.4731 56.7672C97.5239 56.8451 97.5462 56.9305 97.5401 57.0233C97.5563 57.2015 97.5973 57.358 97.6629 57.4928C97.7286 57.6276 97.7516 57.7736 97.7319 57.9308C97.7184 57.9951 97.7048 58.0595 97.6912 58.1238C97.6702 58.1597 97.6671 58.2061 97.682 58.263C97.8729 58.7603 97.9747 59.2657 97.9875 59.7792C98.0002 60.2927 98.0309 60.8167 98.0795 61.3512L98.6127 62.1694C98.6289 62.3476 98.6167 62.5332 98.576 62.7262C98.5637 62.9118 98.5552 63.1117 98.5504 63.3257C98.6235 63.489 98.6861 63.6703 98.7382 63.8694C98.8114 64.0327 98.8882 64.2102 98.9688 64.402C98.9565 64.5876 98.9622 64.7837 98.9859 64.9903C99.0095 65.1969 99.0758 65.3924 99.1849 65.5767C99.3805 65.8599 99.4946 66.1797 99.527 66.536C99.5804 66.8565 99.6623 67.1695 99.7727 67.475C99.7801 67.5035 99.7913 67.5462 99.8062 67.6031C99.821 67.66 99.818 67.7064 99.797 67.7423C99.7637 67.9638 99.7806 68.2026 99.8476 68.4587C99.9071 68.6863 99.9809 68.9102 100.069 69.1304C100.2 69.4001 100.299 69.6629 100.366 69.919C100.462 70.1677 100.614 70.4014 100.823 70.6203C100.911 70.8405 100.989 71.0786 101.056 71.3347C101.123 71.5908 101.2 71.8289 101.288 72.0491C101.261 72.1778 101.224 72.3245 101.176 72.4891C101.12 72.6252 101.079 72.7577 101.051 72.8864C101.083 73.1214 101.128 73.3528 101.187 73.5804C101.24 73.7796 101.352 73.9781 101.526 74.176C101.562 74.197 101.609 74.3213 101.669 74.549C101.749 74.7407 101.834 74.9467 101.922 75.1669C102.002 75.3586 102.046 75.4687 102.054 75.4971C102.356 75.7221 102.434 76.0209 102.288 76.3935C102.275 76.4578 102.247 76.5259 102.205 76.5977C102.191 76.662 102.181 76.7406 102.175 76.8334C102.284 77.0177 102.393 77.202 102.502 77.3863C102.604 77.5421 102.695 77.7159 102.775 77.9076C102.899 78.1488 102.933 78.3375 102.878 78.4737C102.822 78.6098 102.728 78.7714 102.594 78.9583C102.573 78.9942 102.52 79.0233 102.435 79.0456C102.357 79.0964 102.297 79.1577 102.255 79.2295C102.141 79.2593 102.059 79.2958 102.01 79.3392C101.903 79.3974 101.793 79.4414 101.68 79.4712C101.602 79.522 101.495 79.5802 101.36 79.6459L100.813 79.4699C100.692 79.4712 100.528 79.5444 100.323 79.6893C100.154 79.8552 99.9649 79.8893 99.7569 79.7917C99.7062 79.7138 99.5595 79.6762 99.317 79.6788C99.067 79.653 98.9674 79.6791 99.0182 79.757L99.0294 79.7997C99.0294 79.7997 98.9125 79.8758 98.6787 80.0282C98.4524 80.209 98.2793 80.3607 98.1594 80.4833C97.9243 80.5144 97.61 80.475 97.2164 80.3651C96.8513 80.2478 96.5976 80.2078 96.4553 80.245C96.3043 80.1325 96.1997 80.0231 96.1415 79.9167C96.1117 79.8029 96.0782 79.6748 96.041 79.5326C96.0322 79.3829 96.0272 79.2474 96.0258 79.1261C96.0171 78.9764 96.0083 78.8267 95.9995 78.677C96.0674 78.3552 95.9781 78.0138 95.7316 77.6526C95.6226 77.4683 95.5031 77.302 95.373 77.1536C95.264 76.9693 95.1692 76.7813 95.0887 76.5895C95.0379 76.5116 94.9827 76.3588 94.9232 76.1312C94.8636 75.9036 94.7979 75.7687 94.7261 75.7267C94.6456 75.535 94.5792 75.3395 94.5271 75.1404C94.5035 74.9337 94.4087 74.7457 94.2428 74.5763C94.083 74.3141 94.0191 74.0116 94.051 73.6688C94.0781 73.5401 94.0805 73.4331 94.0582 73.3477C94.0569 73.2265 94.063 73.1337 94.0766 73.0693C94.0442 72.713 93.9487 72.4643 93.7902 72.3234C93.3791 71.9141 92.9873 71.6366 92.6148 71.4908C92.4082 71.5145 92.1873 71.5418 91.9522 71.5729C91.7172 71.604 91.4858 71.6494 91.2582 71.7089C91.2297 71.7163 91.1728 71.7312 91.0874 71.7536C90.9946 71.7474 90.8876 71.745 90.7663 71.7464C90.3172 71.7727 89.9046 71.8806 89.5286 72.0702C89.181 72.2523 88.7691 72.4208 88.2928 72.5758C87.9798 72.6577 87.6513 72.6221 87.3072 72.4689C87.2862 72.5048 87.2404 72.5623 87.1699 72.6416C87.092 72.6924 87.032 72.7536 86.99 72.8254C86.6608 72.7292 86.3001 72.6867 85.9079 72.6981C85.7223 72.6859 85.5299 72.7058 85.3307 72.7579C85.1525 72.7741 84.9459 72.7978 84.7108 72.8289C84.4981 72.9453 84.4079 73.1817 84.4403 73.538L84.5408 73.9222C84.6945 74.2772 84.8055 74.6434 84.8738 75.0207C84.9421 75.3981 84.9498 75.7761 84.8968 76.1548C84.9117 76.2117 84.9303 76.2828 84.9527 76.3682C84.975 76.4535 84.9794 76.5284 84.9658 76.5927C85.0809 76.6842 85.1856 76.7937 85.2797 76.921C85.3664 77.02 85.4531 77.1189 85.5397 77.2178C85.5288 77.5247 85.4789 77.857 85.3901 78.2146C85.4706 78.4064 85.537 78.6018 85.5891 78.801C85.6696 78.9927 85.7502 79.1845 85.8308 79.3762C85.8741 79.4257 85.9212 79.4894 85.972 79.5673C86.0153 79.6168 86.0586 79.6662 86.102 79.7157C86.5415 80.1175 86.6179 80.584 86.3312 81.115C86.3102 81.1509 86.3034 81.1831 86.3109 81.2115C86.3183 81.24 86.301 81.2901 86.259 81.3619C86.2888 81.4757 86.3223 81.6037 86.3595 81.746C86.3967 81.8883 86.4234 82.0485 86.4396 82.2267C86.4694 82.3405 86.4639 82.4939 86.4232 82.687C86.4307 82.7154 86.4097 82.7513 86.3602 82.7947C86.3392 82.8306 86.3077 82.8844 86.2657 82.9562C85.9045 83.2027 85.5786 83.4096 85.288 83.5768C84.8476 83.7528 84.4597 83.8391 84.1244 83.8356C83.825 83.8531 83.4253 83.8361 82.9254 83.7844C82.6272 83.9232 82.3112 84.0515 81.9772 84.1693C81.6642 84.2512 81.3078 84.2836 80.9082 84.2665C80.751 84.2468 80.5579 84.2061 80.329 84.1444C80.1285 84.0753 79.9138 84.0098 79.6848 83.9481C79.4633 83.9149 79.2418 83.8816 79.0203 83.8484C78.8272 83.8077 78.6379 83.7812 78.4523 83.7689C78.2999 83.5352 78.2261 83.3113 78.2309 83.0972C78.2432 82.9116 78.2375 82.7155 78.2138 82.5088C78.2186 82.2948 78.2272 82.0949 78.2394 81.9093C78.2849 81.5022 78.263 81.1279 78.1737 80.7865C78.0227 80.674 77.9885 80.4853 78.0712 80.2204C78.1255 79.963 78.0907 79.7137 77.9668 79.4725C77.8713 79.2239 77.808 78.982 77.777 78.7469C77.5589 78.3784 77.4263 77.9874 77.379 77.5742C77.3242 77.1325 77.2769 76.7193 77.2371 76.3345C77.206 76.0994 77.1965 75.889 77.2088 75.7034C77.221 75.5178 77.1764 75.3471 77.0748 75.1912C77.0722 74.9487 77.1271 74.7519 77.2396 74.6009C77.3446 74.4214 77.3748 74.2463 77.3302 74.0756C77.2991 73.8405 77.2222 73.663 77.0997 73.5431C76.9981 73.3872 76.907 73.2134 76.8265 73.0217C76.8041 72.9363 76.7781 72.8367 76.7483 72.7229C76.7395 72.5732 76.7203 72.4415 76.6905 72.3276C76.6533 72.1854 76.6198 72.0573 76.59 71.9435C76.5602 71.8297 76.5484 71.7264 76.5545 71.6336C76.5519 71.391 76.4781 71.1671 76.3332 70.9618C76.2167 70.7491 76.1393 70.5109 76.1007 70.2474C76.0858 70.1905 76.0567 70.1373 76.0134 70.0879C75.97 70.0384 75.923 69.9747 75.8722 69.8968C75.7842 69.6766 75.7209 69.4347 75.6824 69.1712C75.6438 68.9077 75.5948 68.6621 75.5352 68.4344C75.4682 68.1784 75.3907 67.9402 75.3027 67.72C75.2147 67.4998 75.1589 67.2864 75.1353 67.0798C75.1204 67.0229 75.1129 66.9944 75.1129 66.9944C75.1339 66.9585 75.1407 66.9264 75.1333 66.8979C75.1827 66.8546 75.2397 66.8397 75.304 66.8533C75.3968 66.8594 75.4537 66.8445 75.4747 66.8086C75.5351 66.4584 75.4854 66.1522 75.3256 65.89C75.1584 65.5993 75.0233 65.3154 74.9204 65.0383C74.9686 64.8737 74.9666 64.6918 74.9145 64.4926C74.8549 64.265 74.7788 64.1481 74.6859 64.142C74.6338 63.9428 74.5675 63.7474 74.487 63.5556C74.4348 63.3564 74.3685 63.161 74.288 62.9692C74.2 62.7491 74.1014 62.5468 73.9924 62.3625C73.8834 62.1782 73.8134 61.9685 73.7823 61.7335C73.7945 61.5479 73.8068 61.3622 73.819 61.1766C73.8313 60.991 73.872 60.798 73.9411 60.5975C74.0475 60.5392 74.1681 60.4773 74.3029 60.4116C74.4662 60.3385 74.6078 60.2406 74.7278 60.1181C74.8551 60.0239 74.9503 59.923 75.0134 59.8153C75.0764 59.7076 75.1611 59.6247 75.2675 59.5664C75.4877 59.4784 75.6943 59.4548 75.8873 59.4955C76.1089 59.5288 76.3087 59.5373 76.4869 59.5211C76.8927 59.4453 77.1982 59.335 77.4035 59.1901C77.6088 59.0452 77.8487 58.8 78.1232 58.4546C78.2878 58.5027 78.4524 58.5509 78.617 58.599C78.81 58.6397 78.9746 58.6879 79.1108 58.7435C79.2679 58.7631 79.3967 58.7903 79.4969 58.8249C79.6256 58.852 79.7543 58.8791 79.883 58.9063C80.1479 58.989 80.3175 59.1726 80.3919 59.4572C80.4725 59.6489 80.5351 59.8301 80.5798 60.0008C80.6244 60.1716 80.6833 60.3386 80.7564 60.5019C80.816 60.7295 80.8755 60.9571 80.9351 61.1848C81.0231 61.405 81.1395 61.6177 81.2845 61.823C81.3427 61.9294 81.3867 62.0395 81.4165 62.1533C81.4462 62.2671 81.4902 62.3772 81.5485 62.4836C81.6737 62.846 81.8077 63.3582 81.9504 64.0201C82.1142 64.6461 82.1696 65.1484 82.1166 65.5271C82.1105 65.6199 82.1223 65.7232 82.1521 65.837C82.3465 65.999 82.5216 66.0292 82.6774 65.9276C82.8617 65.8186 83.0392 65.7418 83.21 65.6971C83.5602 65.7575 83.843 65.8507 84.0584 65.9768C84.2738 66.1029 84.5603 66.2103 84.9179 66.2992C85.1937 66.075 85.4634 65.9437 85.7269 65.9051C86.0114 65.8307 86.3096 65.6919 86.6212 65.4888L88.6273 64.964C89.3671 64.7704 90.0703 64.4953 90.737 64.1385C90.8644 64.0443 90.985 63.9824 91.0988 63.9526C91.2336 63.8869 91.3542 63.825 91.4606 63.7668C91.5101 63.7234 91.5595 63.6801 91.609 63.6367C91.6585 63.5934 91.6937 63.5538 91.7147 63.5179C91.7195 63.3038 91.6234 62.9945 91.4264 62.59C91.2219 62.1571 91.0974 61.8553 91.0527 61.6846C90.9871 61.5497 90.9034 61.4044 90.8019 61.2486C90.7287 61.0853 90.6736 60.9325 90.6364 60.7902C90.6114 60.4623 90.5332 60.1636 90.4019 59.8939C90.299 59.6168 90.2103 59.336 90.1359 59.0515C90.0987 58.9092 90.0435 58.7564 89.9704 58.5931C89.9257 58.4224 89.8706 58.2696 89.8049 58.1348C89.4779 57.5819 89.2961 56.9454 89.2598 56.2253C89.6108 55.7078 90.1309 55.3134 90.8199 55.0419C91.1106 54.8747 91.4093 54.7965 91.7162 54.8075C92.0441 54.7825 92.3577 54.7612 92.6572 54.7437C92.7846 54.6496 92.9262 54.5517 93.082 54.4502C93.2304 54.3201 93.4035 54.1684 93.6014 53.9951C93.9144 53.9132 94.1278 53.8574 94.2416 53.8276C94.3839 53.7904 94.622 53.7129 94.956 53.5951C95.1837 53.5356 95.3507 53.4767 95.457 53.4184C95.556 53.3318 95.7298 53.2407 95.9784 53.1452C96.0143 53.1663 96.101 53.2652 96.2385 53.442C96.4044 53.6114 96.5022 53.753 96.532 53.8669C96.511 53.9028 96.5662 54.0555 96.6975 54.3252C96.8499 54.559 96.9379 54.7791 96.9615 54.9858C97.0062 55.1565 97.0651 55.3235 97.1382 55.4868C97.2038 55.6216 97.2553 55.7602 97.2925 55.9024Z" fill="#57A3FF"/>
<path d="M122.198 68.9105C122.22 69.1026 122.236 69.3246 122.245 69.5765C122.274 69.795 122.303 70.0135 122.332 70.2321C122.375 70.5035 122.418 70.7749 122.46 71.0464C122.496 71.2914 122.565 71.5559 122.668 71.8399C122.668 71.8399 122.688 71.8629 122.728 71.9089C122.762 71.9284 122.762 71.9848 122.73 72.078C122.745 72.2436 122.724 72.3765 122.665 72.4766C122.633 72.5698 122.604 72.6762 122.579 72.7959C122.586 72.8223 122.6 72.8752 122.62 72.9546C122.641 73.0339 122.645 73.1035 122.633 73.1633C122.555 73.2968 122.447 73.424 122.309 73.5449C122.204 73.6853 122.099 73.8257 121.995 73.9661C121.764 74.0548 121.638 74.1159 121.619 74.1492C121.606 74.2091 121.487 74.2402 121.262 74.2427C121.182 74.2634 121.133 74.2905 121.113 74.3239C121.12 74.3503 121.097 74.3705 121.044 74.3843C120.998 74.4246 120.962 74.4482 120.936 74.4551C120.909 74.462 120.883 74.4689 120.856 74.4759C120.837 74.5092 120.801 74.5328 120.748 74.5467C120.668 74.5674 120.593 74.6014 120.52 74.6486C120.448 74.6959 120.388 74.7396 120.342 74.7799C120.217 74.8409 120.118 74.8951 120.046 74.9423C120 74.9826 119.914 75.0332 119.789 75.0943C119.657 75.1289 119.508 75.1537 119.342 75.1688C119.21 75.2034 119.068 75.2547 118.916 75.3226C118.791 75.3837 118.642 75.4085 118.469 75.3971C118.33 75.4053 118.191 75.4134 118.052 75.4216C117.999 75.4354 117.942 75.436 117.882 75.4234C117.823 75.4108 117.753 75.4149 117.674 75.4357C117.621 75.4495 117.545 75.4835 117.446 75.5376C117.374 75.5848 117.311 75.6153 117.258 75.6292C117.172 75.6235 117.085 75.6178 116.999 75.6121C116.939 75.5995 116.853 75.5938 116.74 75.595C116.681 75.5824 116.607 75.5733 116.521 75.5676C116.442 75.5883 116.346 75.5993 116.233 75.6005C115.903 75.7434 115.599 75.8793 115.322 76.0084C115.079 76.1569 114.818 76.2957 114.541 76.4247C114.263 76.441 114.023 76.3906 113.823 76.2734C113.623 76.1562 113.436 76.0355 113.262 75.9114C113.063 75.907 112.891 75.9519 112.746 76.0464C112.608 76.1672 112.467 76.2749 112.322 76.3693C112.197 76.4304 112.058 76.4949 111.906 76.5628C111.781 76.6239 111.656 76.6849 111.53 76.746C111.372 76.7875 111.213 76.829 111.054 76.8705C110.902 76.9385 110.74 76.9668 110.568 76.9554C110.527 76.9094 110.491 76.8767 110.457 76.8571C110.424 76.8376 110.4 76.8014 110.386 76.7485C110.169 76.2402 109.873 75.8654 109.499 75.6241C109.459 75.5781 109.422 75.5454 109.388 75.5259C109.374 75.4729 109.338 75.4402 109.278 75.4276C109.21 75.2758 109.195 75.1102 109.233 74.9307C109.297 74.7443 109.282 74.5787 109.187 74.4338L108.78 73.5231L108.958 72.586C108.938 72.5067 108.9 72.4176 108.846 72.3187C108.785 72.1933 108.737 72.0645 108.703 71.9323C108.742 71.8655 108.764 71.789 108.77 71.7028C108.775 71.6165 108.785 71.5434 108.797 71.4836C109.088 71.4075 109.316 71.3055 109.48 71.1777C109.606 71.1167 109.718 71.0591 109.817 71.005C109.942 70.9439 110.067 70.8829 110.193 70.8218C110.365 70.8332 110.518 70.8216 110.65 70.787C111.059 70.6234 111.352 70.3914 111.528 70.0911C111.493 69.9588 111.462 69.8398 111.434 69.734C111.4 69.6017 111.378 69.466 111.37 69.3268C111.376 69.2405 111.368 69.1577 111.347 69.0784C111.346 68.9656 111.345 68.8529 111.344 68.7402C111.384 68.1363 111.317 67.5037 111.144 66.8424C111.054 66.4985 111.004 66.1442 110.993 65.7796C111.01 65.5208 110.991 65.2856 110.936 65.074C110.873 64.8359 110.818 64.6243 110.77 64.4391C110.646 64.0757 110.543 63.7353 110.46 63.4179C110.397 63.0671 110.333 62.7163 110.27 62.3655C110.235 62.2332 110.2 62.101 110.166 61.9687C110.158 61.8296 110.153 61.7036 110.152 61.5909C110.17 61.4448 110.149 61.3091 110.088 61.1837C110.027 61.0584 109.975 60.9164 109.934 60.7576C109.966 60.6645 109.998 60.5713 110.03 60.4781C110.062 60.3849 110.078 60.2819 110.077 60.1692C110.063 60.1163 110.029 60.0404 109.975 59.9415C109.947 59.8357 109.919 59.7299 109.892 59.6241C109.903 59.4515 109.914 59.279 109.926 59.1064C109.93 58.9074 109.935 58.7084 109.939 58.5094C109.85 58.2783 109.739 58.1236 109.606 58.0455C109.472 57.9674 109.31 57.9393 109.117 57.9613C108.932 58.0097 108.727 58.0352 108.502 58.0376C108.303 58.0332 108.107 58.0419 107.915 58.0639C107.176 58.3704 106.434 58.7764 105.69 59.2819C105.69 59.2819 105.624 59.2992 105.492 59.3338C105.165 59.1649 104.956 58.9085 104.866 58.5647C104.799 58.4129 104.757 58.2542 104.742 58.0885C104.753 57.916 104.699 57.7607 104.578 57.6228C104.629 57.4962 104.671 57.3863 104.703 57.2931C104.729 57.1735 104.748 57.0838 104.76 57.0239C104.785 56.9043 104.774 56.8082 104.727 56.7358C104.68 56.6634 104.659 56.584 104.665 56.4977C104.651 56.4448 104.65 56.3885 104.663 56.3287C104.702 56.2619 104.725 56.1854 104.73 56.0991C104.69 56.0531 104.633 55.9974 104.559 55.9319C104.505 55.833 104.438 55.7376 104.357 55.6456C104.356 55.5329 104.355 55.4201 104.354 55.3074C104.345 55.1682 104.337 55.0291 104.329 54.8899C104.242 54.7715 104.161 54.6795 104.087 54.614C104.007 54.522 103.926 54.43 103.846 54.3381C103.864 54.192 103.843 54.0563 103.781 53.9309C103.714 53.7791 103.672 53.6204 103.657 53.4548C103.703 53.4145 103.736 53.3777 103.755 53.3443C103.801 53.304 103.847 53.2637 103.893 53.2234C104.281 52.8677 104.692 52.5482 105.126 52.265C105.58 51.9483 106.034 51.6317 106.489 51.3151C106.561 51.2679 106.633 51.2207 106.706 51.1734C106.778 51.1262 106.867 51.0888 106.973 51.0611C107.264 50.985 107.548 50.8824 107.825 50.7534C108.122 50.591 108.406 50.4321 108.676 50.2766C108.946 50.1211 109.24 50.0019 109.557 49.9188C109.742 49.8704 109.914 49.8254 110.073 49.7839C110.251 49.709 110.433 49.6474 110.618 49.5989C110.75 49.5643 110.856 49.5366 110.936 49.5159C111.041 49.4882 111.137 49.4772 111.224 49.4829C111.476 49.4735 111.714 49.4676 111.94 49.4652C112.158 49.4362 112.386 49.3907 112.625 49.3284C112.73 49.3007 112.826 49.2897 112.913 49.2954C113.018 49.2677 113.124 49.24 113.23 49.2124C113.528 49.1627 113.82 49.1429 114.105 49.1531C114.41 49.1299 114.714 49.1067 115.019 49.0835C115.172 49.1282 115.27 49.23 115.311 49.3887C115.498 50.1029 115.698 50.8136 115.911 51.5209C116.118 52.2017 116.235 52.92 116.263 53.6757C116.42 54.0586 116.477 54.4393 116.435 54.8178C116.385 55.1698 116.34 55.535 116.297 55.9135C116.346 56.0987 116.384 56.3005 116.413 56.5191C116.435 56.7111 116.474 56.913 116.529 57.1246C116.651 57.3753 116.724 57.653 116.747 57.9578C116.77 58.2626 116.777 58.5577 116.767 58.8429C116.821 58.9418 116.858 59.031 116.879 59.1103C116.926 59.1827 116.967 59.2851 117.002 59.4173C117.03 59.5232 117.037 59.606 117.025 59.6658C116.941 59.8856 116.903 60.1214 116.913 60.3733C116.949 60.6183 116.984 60.8633 117.02 61.1082C117.015 61.1945 117.026 61.2906 117.053 61.3964C117.101 61.4688 117.118 61.5349 117.105 61.5948C117.094 61.7673 117.135 61.926 117.23 62.0709C117.344 62.1824 117.405 62.3077 117.413 62.4469C117.421 62.5861 117.419 62.7419 117.408 62.9145C117.39 63.0606 117.385 63.2032 117.393 63.3424L117.486 63.6995C117.554 63.8513 117.609 64.0065 117.65 64.1652C117.692 64.324 117.747 64.4792 117.815 64.631C117.863 64.8162 117.908 64.9881 117.95 65.1468C117.991 65.3055 118.023 65.4809 118.045 65.673C118.101 65.9973 118.16 66.2222 118.221 66.3475C118.282 66.4728 118.454 66.6965 118.736 67.0183C118.737 67.1311 118.738 67.2438 118.74 67.3565C118.741 67.4693 118.732 67.5987 118.714 67.7448C118.822 67.9425 118.937 68.1104 119.058 68.2483C119.218 68.3196 119.353 68.2982 119.465 68.1842C119.576 68.0703 119.705 68.0225 119.851 68.0408C120.031 68.0786 120.214 68.1297 120.4 68.1939C120.606 68.2249 120.802 68.2161 120.987 68.1677C121.166 68.2055 121.349 68.2566 121.535 68.3208C121.715 68.3587 121.888 68.4264 122.055 68.5241C122.076 68.6034 122.093 68.6696 122.107 68.7225C122.147 68.7685 122.178 68.8311 122.198 68.9105Z" fill="#57A3FF"/>
<path d="M143.921 50.0395C143.94 50.1478 143.964 50.2683 143.994 50.4009C144.037 50.4983 144.074 50.6134 144.104 50.746C144.123 50.8543 144.135 50.9802 144.141 51.1237C144.16 51.232 144.209 51.3416 144.287 51.4526C144.52 51.845 144.693 52.2645 144.804 52.7111C144.905 53.1334 145.023 53.5625 145.159 53.9983C145.161 54.2014 145.224 54.4071 145.346 54.6155C145.492 54.813 145.548 55.0363 145.513 55.2854C145.643 55.5777 145.725 55.8918 145.758 56.2275C145.804 56.528 145.856 56.8406 145.913 57.1655L145.945 57.2386C145.929 57.3334 145.908 57.416 145.881 57.4864C145.835 57.7112 145.771 57.9292 145.69 58.1404C145.609 58.3517 145.551 58.5819 145.516 58.831C145.495 59.0449 145.485 59.2534 145.488 59.4565C145.491 59.6596 145.475 59.8857 145.44 60.1348C145.243 60.5438 145.056 60.9772 144.881 61.4349C144.719 61.8575 144.562 62.2922 144.411 62.739C144.397 62.7742 144.389 62.8216 144.387 62.8812C144.384 62.9408 144.387 63.0125 144.395 63.0965C144.395 63.0965 144.403 63.1804 144.419 63.3482C144.333 63.416 144.264 63.4905 144.213 63.5718C144.15 63.6287 144.093 63.6978 144.042 63.7791C144.002 63.8847 143.961 63.9903 143.921 64.096C143.869 64.1772 143.841 64.2774 143.836 64.3966C143.627 64.5186 143.442 64.6596 143.279 64.8195C143.131 64.9441 142.97 65.0742 142.797 65.2098C142.588 65.3318 142.403 65.4727 142.24 65.6326C142.113 65.806 141.94 65.9416 141.721 66.0392C141.526 66.126 141.414 66.2344 141.384 66.3644C141.257 66.5378 141.095 66.6977 140.897 66.8441C140.735 67.004 140.567 67.1517 140.394 67.2872C140.286 67.3063 140.19 67.3199 140.106 67.3281C140.022 67.3363 139.919 67.3675 139.797 67.4218C139.553 67.5303 139.304 67.6266 139.05 67.7108C138.806 67.8193 138.564 67.898 138.323 67.947C138.18 67.9525 138.035 67.9878 137.889 68.0529C137.767 68.1072 137.645 68.1615 137.523 68.2157C137.329 68.3025 137.12 68.4245 136.898 68.5818C136.73 68.5982 136.563 68.6146 136.395 68.631C136.251 68.6365 136.108 68.642 135.964 68.6476C135.878 68.7153 135.791 68.7831 135.704 68.8509C135.618 68.9186 135.543 68.981 135.481 69.0379C135.273 69.1599 135.056 69.198 134.831 69.1522C134.642 69.1198 134.44 69.0929 134.226 69.0715C134.045 69.1231 133.839 69.1855 133.609 69.2588C133.403 69.3213 133.198 69.3837 132.992 69.4462C132.924 69.3596 132.886 69.2744 132.878 69.1904C132.894 69.0956 132.909 69.0306 132.923 68.9954C132.917 68.8519 132.868 68.7423 132.776 68.6666C132.741 68.6531 132.664 68.6437 132.544 68.6384L132.435 68.6872L132.167 69.0692C132.132 69.0557 132.09 69.0598 132.041 69.0815C131.993 69.1032 131.951 69.1073 131.915 69.0938C131.753 68.991 131.577 68.9235 131.387 68.8912C131.187 68.8345 130.984 68.8374 130.778 68.8998C130.602 68.8323 130.426 68.7648 130.25 68.6972C130.074 68.6297 129.903 68.5743 129.738 68.5312C129.372 68.4313 129.122 68.1635 128.986 67.7276C128.986 67.7276 128.975 67.7033 128.953 67.6546C128.536 67.3733 128.264 67.1881 128.137 67.0989C128.034 66.9988 127.864 66.7823 127.628 66.4495C127.561 66.3629 127.523 66.2777 127.514 66.1937C127.52 66.0746 127.476 65.9772 127.384 65.9014C127.243 65.8474 127.112 65.8475 126.99 65.9018C126.882 65.9208 126.78 65.9223 126.686 65.9061C126.545 65.8521 126.447 65.7641 126.393 65.6424C126.339 65.5206 126.267 65.392 126.177 65.2567C126.142 65.2432 126.089 65.2229 126.019 65.1959C125.962 65.1337 125.898 65.0891 125.828 65.0621C125.359 64.8621 125 64.482 124.751 63.9218C124.574 63.5916 124.386 63.2668 124.185 62.9475C123.998 62.593 123.78 62.2669 123.531 61.9693C123.522 61.8854 123.52 61.8136 123.522 61.754C123.549 61.6836 123.565 61.5888 123.571 61.4697C123.587 61.3749 123.542 61.3073 123.437 61.2667C123.344 61.191 123.266 61.0801 123.201 60.9339C123.125 60.7634 123.038 60.5685 122.94 60.3493C122.867 60.1192 122.792 59.9189 122.716 59.7484C122.697 59.3775 122.676 59.0364 122.655 58.725C122.622 58.3893 122.594 58.0658 122.572 57.7544C122.599 57.684 122.602 57.6244 122.58 57.5757C122.572 57.4918 122.575 57.4322 122.588 57.397C122.659 57.1614 122.675 56.9353 122.637 56.7187C122.588 56.4778 122.574 56.2503 122.595 56.0364C122.487 55.7928 122.468 55.5532 122.538 55.3176C122.608 55.082 122.612 54.8613 122.549 54.6556C122.579 54.5256 122.607 54.4254 122.634 54.355C122.675 54.2493 122.716 54.1437 122.756 54.0381C122.775 53.8837 122.799 53.7416 122.829 53.6116C122.872 53.4464 122.88 53.2677 122.853 53.0754C122.863 52.8372 122.898 52.588 122.958 52.3281C123.006 52.0437 123.065 51.7837 123.136 51.5481C123.184 51.2638 123.352 50.9847 123.639 50.711C123.69 50.6298 123.747 50.5607 123.809 50.5037C123.896 50.436 123.982 50.3682 124.069 50.3005C124.063 50.157 124.051 50.0311 124.032 49.9228C124.013 49.8145 124.036 49.7021 124.101 49.5856C124.179 49.4339 124.245 49.2877 124.299 49.1468C124.342 48.9816 124.403 48.8232 124.482 48.6715C124.571 48.5441 124.653 48.4344 124.729 48.3423C124.829 48.2393 124.882 48.1283 124.887 48.0091C125.271 47.692 125.626 47.3735 125.95 47.0538C126.299 46.7231 126.597 46.3425 126.843 45.9117C127.049 45.8493 127.254 45.7868 127.46 45.7244C127.69 45.6511 127.92 45.5778 128.15 45.5045C128.25 45.4015 128.368 45.3053 128.503 45.2158C128.628 45.102 128.745 45.0058 128.856 44.9271C128.978 44.8729 129.105 44.8308 129.238 44.8009C129.36 44.7466 129.459 44.6735 129.534 44.5813C129.775 44.2698 130.062 44.1274 130.395 44.1541C130.465 44.1812 130.553 44.2149 130.659 44.2554C130.778 44.2608 130.873 44.2769 130.943 44.3039C131.266 44.3064 131.584 44.2668 131.898 44.1853C132.201 44.0795 132.522 43.9804 132.86 43.888C132.936 43.7959 133.017 43.7159 133.104 43.6482C133.214 43.5696 133.325 43.4909 133.436 43.4123C133.542 43.4528 133.635 43.4988 133.717 43.5502C133.822 43.5907 133.928 43.6312 134.034 43.6717L134.229 43.7162C134.256 43.6458 134.3 43.5821 134.362 43.5252C134.425 43.4683 134.475 43.4168 134.513 43.3708C134.805 43.2406 135.043 43.2512 135.227 43.4026L136.19 43.8932C136.261 43.9202 136.318 43.9825 136.361 44.0799C136.418 44.1421 136.47 44.1922 136.516 44.23C136.705 44.2624 136.895 44.2947 137.084 44.327C137.274 44.3593 137.458 44.3795 137.637 44.3875L138.185 44.1433C138.253 44.2299 138.332 44.311 138.425 44.3868L138.636 44.8618C138.647 44.8861 138.67 44.9051 138.705 44.9186C138.73 44.9077 138.742 44.9023 138.742 44.9023C138.801 44.905 138.86 44.9374 138.917 44.9996C138.963 45.0375 139.003 45.0632 139.038 45.0767C139.301 45.0765 139.549 45.1412 139.782 45.271C140.004 45.3764 140.234 45.4344 140.472 45.445C140.749 45.9349 141.069 46.3908 141.432 46.8129C141.82 47.2241 142.215 47.5879 142.619 47.9044C142.776 48.1262 142.905 48.317 143.005 48.4767C143.13 48.6255 143.236 48.7973 143.323 48.9922C143.409 49.1871 143.491 49.3698 143.567 49.5403C143.667 49.6999 143.785 49.8663 143.921 50.0395ZM138.254 54.2277C138.165 54.0924 138.076 53.9571 137.986 53.8218C137.886 53.6621 137.785 53.5024 137.685 53.3428C137.582 53.2427 137.467 53.148 137.34 53.0588C137.237 52.9587 137.134 52.8586 137.031 52.7585C136.963 52.6719 136.89 52.5732 136.811 52.4622C136.746 52.3161 136.68 52.1997 136.612 52.1131C136.46 52.0347 136.326 51.9631 136.21 51.8982C136.082 51.809 135.952 51.7793 135.82 51.8092C135.676 51.8147 135.539 51.8027 135.409 51.773C135.293 51.7081 135.182 51.6554 135.076 51.6149C134.816 51.5556 134.568 51.4908 134.333 51.4206C134.086 51.326 133.832 51.2789 133.569 51.2791C133.485 51.2873 133.42 51.2725 133.374 51.2346C133.328 51.1967 133.27 51.1643 133.199 51.1373C132.975 51.0914 132.744 51.0334 132.509 50.9632C132.214 51.153 131.9 51.2345 131.567 51.2077C131.505 51.2647 131.442 51.3216 131.38 51.3785C131.342 51.4245 131.298 51.4882 131.246 51.5695C131.187 51.5668 131.108 51.5872 131.011 51.6306C130.927 51.6388 130.843 51.647 130.759 51.6552C130.472 51.9289 130.256 52.2296 130.11 52.5574C129.953 52.8608 129.837 53.1899 129.761 53.5446C129.421 54.2218 129.219 55.0126 129.154 55.917C129.347 56.415 129.484 56.9524 129.566 57.529C129.637 58.0813 129.792 58.6254 130.03 59.1613C130.22 59.4562 130.465 59.7119 130.766 59.9282C131.091 60.1337 131.342 60.4016 131.518 60.7317C131.551 60.8048 131.577 60.8955 131.596 61.0038C131.615 61.1121 131.674 61.246 131.775 61.4057C131.867 61.4814 131.975 61.5937 132.1 61.7425C132.238 61.8561 132.382 61.9819 132.531 62.1199C132.802 62.2036 133.059 62.3225 133.303 62.4766C133.546 62.6307 133.824 62.6968 134.135 62.6749C134.523 62.5608 134.893 62.4102 135.248 62.2231C135.627 62.0251 135.981 61.838 136.311 61.6617C136.593 61.5071 136.846 61.3214 137.07 61.1046C137.308 60.8526 137.483 60.556 137.594 60.2147C137.621 60.1443 137.653 60.0861 137.691 60.04C137.742 59.9587 137.781 59.8829 137.808 59.8125C137.938 59.5795 138.073 59.3587 138.214 59.1501C138.344 58.9171 138.456 58.6774 138.551 58.4309C138.732 58.1167 138.836 57.7931 138.862 57.46C138.889 57.1269 138.921 56.8061 138.959 56.4974L138.633 55.7666C138.65 55.6718 138.654 55.5825 138.645 55.4985C138.662 55.4038 138.666 55.3144 138.657 55.2305C138.625 55.1574 138.586 55.1019 138.539 55.0641C138.483 55.0018 138.432 54.922 138.389 54.8246C138.356 54.7515 138.331 54.6608 138.312 54.5525C138.317 54.4334 138.298 54.3251 138.254 54.2277Z" fill="#57A3FF"/>
</svg>
