<svg width="251" height="166" viewBox="0 0 251 166" fill="none" xmlns="http://www.w3.org/2000/svg">
<path d="M110.954 29.0253L235.976 53.7743L139.089 136.574L14.0674 111.825L110.954 29.0253Z" fill="#FF6352"/>
<path d="M112.087 33.9049L224.607 56.179L137.408 130.699L24.8891 108.425L112.087 33.9049Z" fill="#FFD13B"/>
<path d="M100.015 88.5837C100.118 88.7647 100.156 88.9628 100.128 89.1782C100.1 89.3935 100.142 89.6056 100.253 89.8144C100.282 89.9256 100.285 90.0438 100.261 90.1688C100.276 90.2244 100.277 90.2835 100.265 90.346C100.246 90.3807 100.241 90.412 100.248 90.4398C100.391 90.878 100.471 91.184 100.488 91.3578C100.524 91.4968 100.535 91.8061 100.52 92.2856C100.576 92.39 100.625 92.5256 100.669 92.6925C100.731 92.8247 100.798 92.9709 100.868 93.1309C100.892 93.3325 100.892 93.6 100.867 93.9335C100.774 93.8985 100.684 93.8774 100.598 93.8702C100.538 93.8561 100.478 93.842 100.419 93.828C100.246 93.8135 100.186 93.9037 100.237 94.0984C100.288 94.2932 100.361 94.4671 100.457 94.6203C100.573 94.7387 100.701 94.8538 100.842 94.9654C100.848 95.2017 100.857 95.4519 100.87 95.716C100.91 95.9732 100.939 96.2478 100.96 96.5397C100.894 96.8244 100.818 97.1265 100.734 97.4459C100.641 97.7375 100.482 97.9872 100.256 98.195C100.266 98.3409 100.273 98.473 100.275 98.5911C100.271 98.6815 100.261 98.803 100.245 98.9559C100.059 99.2124 99.8773 99.4829 99.6991 99.7673C99.5136 100.024 99.3712 100.284 99.2718 100.548C99.1696 100.693 99.0623 100.766 98.95 100.766C98.8376 100.765 98.7326 100.793 98.6348 100.848C98.4873 101.035 98.3398 101.223 98.1923 101.41C98.0711 101.59 97.9368 101.774 97.7893 101.961C97.6345 102.12 97.4965 102.29 97.3753 102.471C97.2541 102.651 97.1198 102.835 96.9723 103.022L96.3813 103.176C96.279 103.322 96.1863 103.45 96.1031 103.561C96.0126 103.644 95.9126 103.745 95.8031 103.863C95.7243 103.883 95.6622 103.914 95.617 103.956C95.5907 103.963 95.5477 103.959 95.4879 103.945C95.2179 103.986 95.0377 104.048 94.9472 104.131C94.8494 104.186 94.6611 104.325 94.3823 104.546C94.1677 104.692 93.9531 104.837 93.7385 104.982C93.5313 105.155 93.324 105.329 93.1167 105.502C92.7914 105.438 92.4711 105.448 92.1559 105.53C91.867 105.606 91.5649 105.685 91.2497 105.767C91.063 105.697 90.8799 105.641 90.7005 105.599C90.5809 105.571 90.478 105.553 90.3919 105.546C90.3321 105.532 90.246 105.524 90.1337 105.524C90.0812 105.538 90.0024 105.558 89.8973 105.586C89.8185 105.607 89.7338 105.658 89.6433 105.742C89.5981 105.783 89.5433 105.842 89.4791 105.918C89.4148 105.995 89.3673 106.081 89.3366 106.178C88.8157 106.226 88.2817 106.276 87.7345 106.33C87.1947 106.412 86.6475 106.466 86.093 106.492C85.8684 106.491 85.6437 106.491 85.419 106.49C85.2133 106.455 84.9981 106.437 84.7734 106.436C84.6231 106.505 84.4728 106.574 84.3224 106.643C84.1721 106.712 84.0123 106.799 83.843 106.902C83.4373 107.068 83.0843 106.952 82.784 106.555C82.7694 106.5 82.7417 106.447 82.7009 106.399C82.6863 106.343 82.6754 106.301 82.6681 106.273C82.6406 105.954 82.6167 105.648 82.5965 105.356C82.5763 105.064 82.5465 104.789 82.5073 104.532C82.4928 104.477 82.5235 104.379 82.5994 104.241L82.5558 104.074C82.4289 104.018 82.302 103.962 82.1751 103.906C82.0744 103.843 81.9738 103.78 81.8732 103.717L80.8514 99.9721L80.8404 99.9304L81.1162 99.8582C81.0754 99.8095 81.0251 99.7781 80.9653 99.764C80.8982 99.7221 80.8348 99.6941 80.7749 99.68C80.7749 99.68 80.7816 99.5445 80.7949 99.2736C80.8082 99.0026 80.8134 98.808 80.8106 98.6899C80.8195 98.5092 80.77 98.3736 80.662 98.2829C80.5804 98.1854 80.5119 98.0844 80.4565 97.98C80.4799 97.855 80.507 97.7439 80.5377 97.6467C80.5611 97.5217 80.5714 97.4001 80.5686 97.282C80.5059 97.1498 80.4338 97.0349 80.3521 96.9374C80.2705 96.8398 80.1889 96.7423 80.1072 96.6448C80.0446 96.5126 80.0082 96.3735 79.9981 96.2275C80.0069 96.0469 79.9968 95.9009 79.9677 95.7896C79.9838 95.6368 79.9606 95.4943 79.8979 95.362C79.8353 95.2298 79.7785 95.0664 79.7276 94.8716C79.5687 94.5863 79.3632 94.2834 79.111 93.963C79.1461 93.7754 79.1681 93.5913 79.177 93.4107C79.1859 93.23 79.1947 93.0494 79.2036 92.8687L78.9326 92.3155C78.9269 92.0792 78.9212 91.8429 78.9155 91.6066C78.9288 91.3357 78.9232 91.0994 78.8985 90.8978C78.6843 90.508 78.5262 90.1184 78.4243 89.7289C78.3414 89.3048 78.2454 88.8841 78.1363 88.4668C78.078 88.2443 78.0782 87.9767 78.1368 87.6642C78.1747 87.5948 78.1865 87.5323 78.1719 87.4767C78.1763 87.3863 78.1881 87.3238 78.207 87.2891C78.0029 87.0453 77.8696 86.8573 77.8069 86.7251C77.7632 86.5582 77.7458 86.3844 77.7547 86.2038C77.7563 85.9953 77.6733 85.8387 77.5055 85.734C77.3467 85.4486 77.2476 85.1773 77.2084 84.92C77.1619 84.635 77.1285 84.3465 77.1083 84.0546C77.2033 83.8811 77.2719 83.7146 77.3143 83.5548C77.3758 83.3605 77.4372 83.1661 77.4986 82.9717C77.6226 82.9095 77.7467 82.8473 77.8707 82.7851C78.0138 82.6883 78.1415 82.64 78.2538 82.6403C78.6959 82.6139 79.1243 82.4275 79.5388 82.0813C79.6483 81.9635 79.7724 81.9013 79.911 81.8947C80.0759 81.8813 80.2444 81.8818 80.4166 81.8962C80.8938 81.6822 81.371 81.4682 81.8483 81.2542C82.3255 81.0402 82.7823 80.8018 83.2188 80.539C83.3355 80.449 83.4632 80.4008 83.6018 80.3942C83.7405 80.3877 83.9017 80.3604 84.0856 80.3123L84.7074 79.7929C84.846 79.7864 84.9883 79.7938 85.1342 79.8151C85.2728 79.8085 85.415 79.8159 85.5609 79.8372C85.7113 79.7681 85.8579 79.6852 86.001 79.5883C86.144 79.4914 86.3039 79.405 86.4804 79.3291C86.6001 79.3573 86.7233 79.3993 86.8502 79.4553C86.9771 79.5113 87.1004 79.5533 87.22 79.5815C87.5017 79.4781 87.7498 79.3537 87.9643 79.2084C88.2052 79.0563 88.4533 78.9319 88.7087 78.8354C88.8429 78.9192 88.9544 79.0237 89.0433 79.1491C89.125 79.2466 89.2292 79.3234 89.3561 79.3793C89.4976 79.4909 89.6602 79.5227 89.8441 79.4746C90.047 79.3918 90.166 79.2566 90.2011 79.0691C90.2173 78.9163 90.2815 78.84 90.3938 78.8404C90.5325 78.8338 90.6965 78.9247 90.8861 79.1128C91.0437 79.0716 91.1977 79.0165 91.348 78.9474C91.4983 78.8784 91.6654 78.8198 91.8493 78.7717C92.0024 78.8208 92.1293 78.8768 92.23 78.9396C92.3496 78.9678 92.4765 79.0237 92.6107 79.1075C92.7448 79.1913 92.879 79.2751 93.0132 79.3589C93.1401 79.4148 93.2801 79.4674 93.4333 79.5165C93.6127 79.5587 93.7505 79.6564 93.8467 79.8096C93.9954 79.949 94.1573 80.085 94.3323 80.2175C94.5263 80.3154 94.7071 80.4167 94.8749 80.5214C95.1505 80.7168 95.5166 80.8291 95.9733 80.8582C96.0331 80.8723 96.0929 80.8864 96.1527 80.9004C96.2388 80.9077 96.2986 80.9217 96.3322 80.9427C96.4429 81.1515 96.5537 81.3603 96.6644 81.5691C96.7941 81.7432 96.9013 81.9381 96.9857 82.1537C97.025 82.411 97.0401 82.6299 97.0313 82.8106C97.1493 83.0472 97.309 83.2283 97.5102 83.354C97.7042 83.4519 97.8887 83.5671 98.0637 83.6996C98.5915 84.2154 98.961 84.8767 99.172 85.6834C99.2448 85.9616 99.3307 86.2363 99.4297 86.5076C99.5215 86.7511 99.5738 87.0049 99.5868 87.269C99.6187 87.4984 99.6901 87.7176 99.8008 87.9264C99.9379 88.1283 100.009 88.3474 100.015 88.5837ZM93.9763 89.3163C93.8874 89.191 93.7722 89.0725 93.6307 88.9609C93.5082 88.8146 93.3989 88.6649 93.3027 88.5117C93.1803 88.3654 93.0709 88.2157 92.9747 88.0625C92.8713 87.8815 92.7678 87.7005 92.6643 87.5196C92.2295 87.5739 91.8254 87.531 91.452 87.3909C91.1048 87.2439 90.7576 87.097 90.4105 86.95L89.8195 87.1046C89.4986 86.9508 89.1981 86.8213 88.9181 86.7163C88.6307 86.5834 88.3303 86.4539 88.0166 86.3279C87.5556 86.3891 87.109 86.5059 86.677 86.6784C86.2641 86.8161 85.8628 86.8914 85.4732 86.9041C85.2586 87.0494 85.0667 87.1739 84.8974 87.2777C84.7471 87.3467 84.6004 87.4297 84.4573 87.5265C84.3288 87.679 84.2456 87.79 84.2076 87.8594C84.238 88.2972 84.3209 88.7214 84.4563 89.1318C84.5917 89.5422 84.7271 89.9526 84.8626 90.363C85.0113 90.5024 85.0681 90.6659 85.033 90.8534C85.0168 91.0062 85.0401 91.1487 85.1027 91.281C85.1508 91.3575 85.1858 91.4376 85.2076 91.521C85.2557 91.5976 85.3111 91.702 85.3737 91.8342C85.3649 92.0149 85.3728 92.206 85.3974 92.4076C85.4411 92.5745 85.4789 92.7727 85.5109 93.0021C85.6273 93.4472 85.697 93.8747 85.7201 94.2848C85.8353 94.4033 85.9374 94.5252 86.0263 94.6505C86.1079 94.7481 86.1932 94.8595 86.2821 94.9848C86.2688 95.2558 86.246 95.5441 86.2137 95.8498C86.2004 96.1208 86.1966 96.3744 86.2023 96.6107C86.2387 96.7498 86.2751 96.8889 86.3114 97.028C86.3741 97.1602 86.4105 97.2993 86.4206 97.4452C86.4817 97.7859 86.4902 98.1403 86.4462 98.5085L86.6802 98.7594C86.9469 99.1354 87.3022 99.206 87.7459 98.971C88.0348 98.8954 88.2603 98.7918 88.4223 98.6603C88.5916 98.5566 88.7624 98.5119 88.9345 98.5263C89.1257 98.506 89.3095 98.4579 89.4861 98.382C89.6817 98.2714 89.8868 98.1434 90.1013 97.9982C90.3349 97.8182 90.5458 97.659 90.7341 97.5205C90.8582 97.4584 90.9691 97.3996 91.0669 97.3443C91.1647 97.289 91.2698 97.2615 91.3821 97.2619C91.6258 97.2278 91.8753 97.1626 92.1307 97.066C92.3861 96.9695 92.6415 96.873 92.8969 96.7764C92.9349 96.7071 93.0028 96.6447 93.1005 96.5894C93.1911 96.5063 93.2684 96.4266 93.3327 96.3504C93.6757 96.0526 93.9335 95.6433 94.106 95.1227C94.1864 94.8936 94.2369 94.6575 94.2575 94.4143C94.2971 94.1364 94.3439 93.8864 94.398 93.6642C94.4845 93.1363 94.522 92.6361 94.5106 92.1635C94.492 91.6632 94.3909 91.1695 94.2074 90.6825C94.152 90.5781 94.1098 90.4703 94.0806 90.359C94.0778 90.2408 94.075 90.1227 94.0721 90.0045C94.0693 89.8864 94.0664 89.7683 94.0636 89.6501C94.0608 89.532 94.0316 89.4207 93.9763 89.3163Z" fill="#57A3FF"/>
<path d="M122.893 71.4019C122.894 71.5232 122.906 71.6265 122.928 71.7119C122.95 71.7972 122.973 71.8826 122.995 71.968C123.017 72.0533 123.043 72.1529 123.073 72.2667C123.124 72.3447 123.146 72.43 123.14 72.5228C123.156 72.701 123.197 72.8575 123.263 72.9923C123.329 73.1271 123.352 73.2731 123.332 73.4303C123.318 73.4946 123.305 73.559 123.291 73.6233C123.27 73.6592 123.267 73.7057 123.282 73.7626C123.473 74.2598 123.575 74.7652 123.588 75.2787C123.6 75.7922 123.631 76.3162 123.68 76.8507L124.213 77.6689C124.229 77.8471 124.217 78.0327 124.176 78.2257C124.164 78.4113 124.155 78.6112 124.151 78.8253C124.224 78.9885 124.286 79.1698 124.338 79.3689C124.411 79.5322 124.488 79.7097 124.569 79.9015C124.557 80.0871 124.562 80.2832 124.586 80.4898C124.61 80.6965 124.676 80.8919 124.785 81.0762C124.981 81.3594 125.095 81.6792 125.127 82.0355C125.181 82.356 125.262 82.669 125.373 82.9745C125.38 83.003 125.391 83.0457 125.406 83.1026C125.421 83.1595 125.418 83.2059 125.397 83.2418C125.364 83.4633 125.381 83.7021 125.448 83.9582C125.507 84.1858 125.581 84.4097 125.669 84.6299C125.8 84.8996 125.9 85.1624 125.966 85.4185C126.062 85.6672 126.214 85.9009 126.424 86.1198C126.512 86.34 126.589 86.5781 126.656 86.8342C126.723 87.0903 126.801 87.3285 126.889 87.5486C126.861 87.6773 126.824 87.824 126.776 87.9886C126.72 88.1248 126.679 88.2572 126.652 88.3859C126.683 88.621 126.728 88.8523 126.788 89.0799C126.84 89.2791 126.952 89.4776 127.126 89.6755C127.162 89.6965 127.209 89.8208 127.269 90.0485C127.349 90.2402 127.434 90.4462 127.522 90.6664C127.602 90.8581 127.646 90.9682 127.654 90.9967C127.956 91.2216 128.034 91.5204 127.888 91.893C127.875 91.9573 127.847 92.0254 127.805 92.0972C127.791 92.1615 127.781 92.2401 127.775 92.3329C127.884 92.5172 127.993 92.7015 128.102 92.8858C128.204 93.0416 128.295 93.2154 128.376 93.4072C128.499 93.6484 128.534 93.837 128.478 93.9732C128.422 94.1093 128.328 94.2709 128.194 94.4578C128.173 94.4937 128.12 94.5228 128.035 94.5451C127.957 94.5959 127.897 94.6572 127.855 94.729C127.741 94.7588 127.659 94.7953 127.61 94.8387C127.504 94.8969 127.393 94.9409 127.28 94.9707C127.202 95.0215 127.095 95.0797 126.961 95.1454L126.413 94.9694C126.292 94.9708 126.128 95.0439 125.923 95.1888C125.754 95.3547 125.565 95.3889 125.357 95.2913C125.306 95.2133 125.16 95.1757 124.917 95.1783C124.667 95.1525 124.568 95.1786 124.618 95.2565L124.629 95.2992C124.629 95.2992 124.513 95.3753 124.279 95.5277C124.053 95.7085 123.879 95.8602 123.759 95.9828C123.524 96.0139 123.21 95.9745 122.817 95.8646C122.451 95.7473 122.198 95.7073 122.055 95.7445C121.904 95.632 121.8 95.5226 121.742 95.4162C121.712 95.3024 121.678 95.1744 121.641 95.0321C121.632 94.8824 121.627 94.7469 121.626 94.6256C121.617 94.4759 121.608 94.3262 121.6 94.1765C121.667 93.8547 121.578 93.5133 121.332 93.1521C121.223 92.9678 121.103 92.8015 120.973 92.6531C120.864 92.4688 120.769 92.2808 120.689 92.0891C120.638 92.0111 120.583 91.8584 120.523 91.6307C120.464 91.4031 120.398 91.2683 120.326 91.2262C120.246 91.0345 120.179 90.839 120.127 90.6399C120.104 90.4332 120.009 90.2452 119.843 90.0758C119.683 89.8136 119.619 89.5111 119.651 89.1683C119.678 89.0396 119.681 88.9326 119.658 88.8472C119.657 88.726 119.663 88.6332 119.677 88.5688C119.644 88.2125 119.549 87.9638 119.39 87.8229C118.979 87.4136 118.587 87.1361 118.215 86.9903C118.008 87.014 117.787 87.0414 117.552 87.0724C117.317 87.1035 117.086 87.1489 116.858 87.2084C116.83 87.2159 116.773 87.2307 116.688 87.2531C116.595 87.247 116.488 87.2446 116.366 87.2459C115.917 87.2722 115.505 87.3801 115.129 87.5697C114.781 87.7518 114.369 87.9204 113.893 88.0754C113.58 88.1572 113.251 88.1216 112.907 87.9684C112.886 88.0043 112.841 88.0618 112.77 88.1411C112.692 88.1919 112.632 88.2532 112.59 88.325C112.261 88.2287 111.9 88.1862 111.508 88.1976C111.322 88.1854 111.13 88.2053 110.931 88.2574C110.753 88.2736 110.546 88.2973 110.311 88.3284C110.098 88.4448 110.008 88.6812 110.04 89.0376L110.141 89.4217C110.295 89.7767 110.406 90.1429 110.474 90.5202C110.542 90.8976 110.55 91.2756 110.497 91.6543C110.512 91.7112 110.53 91.7823 110.553 91.8677C110.575 91.953 110.579 92.0279 110.566 92.0923C110.681 92.1837 110.786 92.2932 110.88 92.4206C110.966 92.5195 111.053 92.6184 111.14 92.7173C111.129 93.0242 111.079 93.3565 110.99 93.7141C111.071 93.9059 111.137 94.1013 111.189 94.3005C111.27 94.4923 111.35 94.684 111.431 94.8757C111.474 94.9252 111.521 94.9889 111.572 95.0668C111.615 95.1163 111.659 95.1657 111.702 95.2152C112.142 95.617 112.218 96.0835 111.931 96.6145C111.91 96.6504 111.904 96.6826 111.911 96.711C111.918 96.7395 111.901 96.7896 111.859 96.8614C111.889 96.9752 111.922 97.1033 111.96 97.2455C111.997 97.3878 112.024 97.548 112.04 97.7262C112.07 97.84 112.064 97.9934 112.023 98.1865C112.031 98.215 112.01 98.2509 111.96 98.2942C111.939 98.3301 111.908 98.3839 111.866 98.4557C111.505 98.7022 111.179 98.9091 110.888 99.0763C110.448 99.2523 110.06 99.3386 109.724 99.3351C109.425 99.3526 109.025 99.3356 108.525 99.284C108.227 99.4227 107.911 99.551 107.577 99.6688C107.264 99.7507 106.908 99.7831 106.508 99.766C106.351 99.7464 106.158 99.7057 105.929 99.6439C105.729 99.5748 105.514 99.5094 105.285 99.4476C105.063 99.4144 104.842 99.3811 104.62 99.3479C104.427 99.3072 104.238 99.2807 104.052 99.2685C103.9 99.0347 103.826 98.8108 103.831 98.5967C103.843 98.4111 103.838 98.215 103.814 98.0084C103.819 97.7943 103.827 97.5945 103.84 97.4088C103.885 97.0017 103.863 96.6274 103.774 96.286C103.623 96.1735 103.589 95.9848 103.671 95.72C103.726 95.4625 103.691 95.2132 103.567 94.972C103.471 94.7234 103.408 94.4815 103.377 94.2465C103.159 93.8779 103.026 93.487 102.979 93.0737C102.924 92.632 102.877 92.2188 102.837 91.834C102.806 91.5989 102.797 91.3885 102.809 91.2029C102.821 91.0173 102.776 90.8466 102.675 90.6908C102.672 90.4482 102.727 90.2515 102.84 90.1004C102.945 89.9209 102.975 89.7458 102.93 89.5751C102.899 89.34 102.822 89.1625 102.7 89.0426C102.598 88.8867 102.507 88.7129 102.427 88.5212C102.404 88.4359 102.378 88.3363 102.348 88.2224C102.34 88.0727 102.32 87.941 102.291 87.8271C102.253 87.6849 102.22 87.5568 102.19 87.443C102.16 87.3292 102.149 87.2259 102.155 87.1331C102.152 86.8906 102.078 86.6666 101.933 86.4613C101.817 86.2486 101.739 86.0105 101.701 85.7469C101.686 85.69 101.657 85.6368 101.613 85.5874C101.57 85.5379 101.523 85.4742 101.472 85.3963C101.384 85.1761 101.321 84.9342 101.282 84.6707C101.244 84.4072 101.195 84.1616 101.135 83.934C101.068 83.6779 100.991 83.4397 100.903 83.2195C100.815 82.9993 100.759 82.7859 100.735 82.5793C100.72 82.5224 100.713 82.494 100.713 82.494C100.734 82.4581 100.741 82.4259 100.733 82.3974C100.783 82.3541 100.84 82.3392 100.904 82.3528C100.997 82.3589 101.054 82.344 101.075 82.3081C101.135 81.9579 101.086 81.6517 100.926 81.3895C100.758 81.0988 100.623 80.8149 100.521 80.5378C100.569 80.3732 100.567 80.1913 100.515 79.9921C100.455 79.7645 100.379 79.6476 100.286 79.6415C100.234 79.4423 100.168 79.2469 100.087 79.0551C100.035 78.856 99.9686 78.6605 99.8881 78.4688C99.8001 78.2486 99.7015 78.0463 99.5925 77.862C99.4835 77.6777 99.4135 77.4681 99.3824 77.233C99.3946 77.0474 99.4069 76.8618 99.4191 76.6761C99.4314 76.4905 99.4721 76.2975 99.5412 76.097C99.6476 76.0387 99.7682 75.9768 99.903 75.9111C100.066 75.838 100.208 75.7402 100.328 75.6176C100.455 75.5234 100.55 75.4225 100.613 75.3148C100.677 75.2072 100.761 75.1242 100.868 75.066C101.088 74.978 101.294 74.9543 101.487 74.995C101.709 75.0283 101.909 75.0368 102.087 75.0206C102.493 74.9448 102.798 74.8345 103.004 74.6896C103.209 74.5447 103.449 74.2995 103.723 73.9541C103.888 74.0022 104.052 74.0504 104.217 74.0985C104.41 74.1392 104.575 74.1874 104.711 74.243C104.868 74.2627 104.997 74.2898 105.097 74.3244C105.226 74.3515 105.354 74.3786 105.483 74.4058C105.748 74.4885 105.918 74.6721 105.992 74.9567C106.073 75.1484 106.135 75.3296 106.18 75.5004C106.225 75.6711 106.283 75.8381 106.357 76.0014C106.416 76.229 106.476 76.4566 106.535 76.6843C106.623 76.9045 106.74 77.1172 106.885 77.3225C106.943 77.4289 106.987 77.539 107.017 77.6528C107.046 77.7666 107.09 77.8767 107.149 77.9831C107.274 78.3455 107.408 78.8577 107.551 79.5196C107.714 80.1456 107.77 80.6479 107.717 81.0266C107.711 81.1194 107.722 81.2227 107.752 81.3365C107.947 81.4985 108.122 81.5287 108.278 81.4271C108.462 81.3181 108.639 81.2413 108.81 81.1966C109.16 81.257 109.443 81.3502 109.658 81.4763C109.874 81.6024 110.16 81.7098 110.518 81.7987C110.794 81.5745 111.063 81.4432 111.327 81.4046C111.612 81.3302 111.91 81.1914 112.221 80.9883L114.227 80.4635C114.967 80.27 115.67 79.9948 116.337 79.638C116.464 79.5438 116.585 79.4819 116.699 79.4521C116.834 79.3864 116.954 79.3245 117.061 79.2663C117.11 79.2229 117.16 79.1796 117.209 79.1362C117.259 79.0929 117.294 79.0533 117.315 79.0174C117.32 78.8033 117.224 78.494 117.027 78.0896C116.822 77.6566 116.697 77.3548 116.653 77.1841C116.587 77.0492 116.504 76.9039 116.402 76.7481C116.329 76.5848 116.274 76.432 116.236 76.2897C116.211 75.9618 116.133 75.6631 116.002 75.3934C115.899 75.1163 115.81 74.8355 115.736 74.551C115.699 74.4087 115.644 74.2559 115.57 74.0926C115.526 73.9219 115.471 73.7691 115.405 73.6343C115.078 73.0814 114.896 72.4449 114.86 71.7248C115.211 71.2074 115.731 70.8129 116.42 70.5414C116.711 70.3742 117.009 70.296 117.316 70.307C117.644 70.282 117.958 70.2607 118.257 70.2432C118.385 70.1491 118.526 70.0512 118.682 69.9497C118.831 69.8197 119.004 69.668 119.201 69.4946C119.514 69.4127 119.728 69.3569 119.842 69.3271C119.984 69.2899 120.222 69.2124 120.556 69.0946C120.784 69.0351 120.951 68.9762 121.057 68.918C121.156 68.8313 121.33 68.7402 121.578 68.6448C121.614 68.6658 121.701 68.7647 121.839 68.9415C122.004 69.1109 122.102 69.2526 122.132 69.3664C122.111 69.4023 122.166 69.5551 122.298 69.8247C122.45 70.0585 122.538 70.2787 122.562 70.4853C122.606 70.656 122.665 70.823 122.738 70.9863C122.804 71.1211 122.855 71.2597 122.893 71.4019Z" fill="#57A3FF"/>
<path d="M150.098 82.2098C150.12 82.4019 150.136 82.6239 150.145 82.8758C150.174 83.0943 150.203 83.3128 150.232 83.5314C150.275 83.8028 150.318 84.0743 150.36 84.3457C150.396 84.5907 150.465 84.8552 150.568 85.1392C150.568 85.1392 150.588 85.1622 150.628 85.2082C150.662 85.2277 150.662 85.2841 150.63 85.3773C150.645 85.5429 150.624 85.6758 150.565 85.7759C150.533 85.8691 150.504 85.9755 150.479 86.0952C150.486 86.1216 150.5 86.1745 150.52 86.2539C150.541 86.3332 150.545 86.4028 150.533 86.4627C150.454 86.5961 150.346 86.7233 150.209 86.8442C150.104 86.9846 149.999 87.125 149.895 87.2654C149.664 87.3541 149.538 87.4152 149.519 87.4486C149.506 87.5084 149.387 87.5395 149.162 87.542C149.082 87.5627 149.033 87.5898 149.013 87.6232C149.02 87.6496 148.997 87.6698 148.944 87.6836C148.898 87.7239 148.862 87.7475 148.836 87.7544C148.809 87.7613 148.783 87.7683 148.756 87.7752C148.737 87.8086 148.701 87.8322 148.648 87.846C148.568 87.8668 148.492 87.9007 148.42 87.948C148.348 87.9952 148.288 88.0389 148.242 88.0792C148.117 88.1403 148.018 88.1944 147.946 88.2416C147.9 88.2819 147.814 88.3326 147.689 88.3936C147.556 88.4282 147.408 88.453 147.242 88.4681C147.11 88.5027 146.968 88.554 146.816 88.622C146.69 88.683 146.542 88.7079 146.369 88.6965C146.23 88.7046 146.091 88.7128 145.951 88.7209C145.899 88.7347 145.842 88.7354 145.782 88.7227C145.723 88.7101 145.653 88.7142 145.574 88.735C145.521 88.7488 145.445 88.7828 145.346 88.8369C145.273 88.8841 145.211 88.9147 145.158 88.9285C145.072 88.9228 144.985 88.9171 144.899 88.9114C144.839 88.8988 144.753 88.8931 144.64 88.8943C144.58 88.8817 144.507 88.8726 144.421 88.8669C144.342 88.8876 144.246 88.8986 144.133 88.8999C143.803 89.0427 143.499 89.1787 143.222 89.3077C142.978 89.4562 142.718 89.595 142.441 89.724C142.163 89.7403 141.923 89.6899 141.723 89.5727C141.523 89.4555 141.336 89.3349 141.162 89.2107C140.963 89.2063 140.791 89.2513 140.646 89.3457C140.508 89.4666 140.367 89.5742 140.222 89.6686C140.097 89.7297 139.958 89.7942 139.806 89.8621C139.681 89.9232 139.556 89.9843 139.43 90.0453C139.272 90.0868 139.113 90.1283 138.954 90.1699C138.802 90.2378 138.64 90.2661 138.468 90.2547C138.427 90.2088 138.391 90.176 138.357 90.1565C138.324 90.1369 138.3 90.1007 138.286 90.0478C138.069 89.5395 137.773 89.1647 137.399 88.9234C137.358 88.8775 137.322 88.8447 137.288 88.8252C137.274 88.7723 137.238 88.7395 137.178 88.7269C137.11 88.5751 137.095 88.4095 137.133 88.23C137.197 88.0436 137.182 87.878 137.087 87.7331L136.679 86.8224L136.858 85.8854C136.838 85.806 136.8 85.7169 136.746 85.618C136.685 85.4927 136.637 85.3639 136.602 85.2316C136.642 85.1649 136.664 85.0883 136.67 85.0021C136.675 84.9158 136.684 84.8427 136.697 84.7829C136.988 84.7068 137.216 84.6049 137.38 84.4771C137.505 84.416 137.618 84.3584 137.716 84.3043C137.842 84.2432 137.967 84.1822 138.092 84.1211C138.265 84.1325 138.417 84.1209 138.55 84.0863C138.959 83.9227 139.252 83.6907 139.427 83.3904C139.393 83.2581 139.362 83.1391 139.334 83.0333C139.299 82.901 139.278 82.7653 139.27 82.6261C139.276 82.5398 139.268 82.457 139.247 82.3777C139.246 82.265 139.245 82.1522 139.244 82.0395C139.283 81.4356 139.217 80.803 139.044 80.1417C138.954 79.7978 138.904 79.4436 138.893 79.0789C138.91 78.8201 138.891 78.5849 138.836 78.3733C138.773 78.1352 138.718 77.9236 138.67 77.7384C138.546 77.375 138.443 77.0346 138.36 76.7172C138.297 76.3664 138.233 76.0156 138.17 75.6648C138.135 75.5326 138.1 75.4003 138.066 75.268C138.058 75.1289 138.053 75.0029 138.052 74.8902C138.07 74.7441 138.049 74.6084 137.988 74.483C137.927 74.3577 137.875 74.2157 137.834 74.057C137.866 73.9638 137.898 73.8706 137.93 73.7774C137.962 73.6842 137.978 73.5812 137.977 73.4685C137.963 73.4156 137.929 73.3397 137.875 73.2408C137.847 73.135 137.819 73.0292 137.792 72.9234C137.803 72.7508 137.814 72.5783 137.826 72.4057C137.83 72.2067 137.835 72.0077 137.839 71.8087C137.75 71.5776 137.639 71.423 137.506 71.3448C137.372 71.2667 137.209 71.2386 137.017 71.2606C136.832 71.3091 136.627 71.3345 136.401 71.337C136.202 71.3325 136.007 71.3413 135.815 71.3632C135.075 71.6697 134.334 72.0757 133.59 72.5812C133.59 72.5812 133.524 72.5985 133.392 72.6331C133.065 72.4642 132.856 72.2078 132.766 71.864C132.698 71.7122 132.657 71.5535 132.642 71.3878C132.653 71.2153 132.598 71.06 132.478 70.9221C132.529 70.7955 132.571 70.6856 132.603 70.5924C132.629 70.4728 132.647 70.3831 132.66 70.3232C132.685 70.2036 132.674 70.1076 132.627 70.0351C132.58 69.9627 132.559 69.8833 132.565 69.7971C132.551 69.7442 132.55 69.6878 132.563 69.628C132.602 69.5612 132.624 69.4847 132.63 69.3984C132.59 69.3525 132.533 69.2967 132.459 69.2312C132.405 69.1323 132.338 69.0369 132.257 68.9449C132.256 68.8322 132.255 68.7195 132.253 68.6067C132.245 68.4676 132.237 68.3284 132.229 68.1892C132.142 68.0708 132.061 67.9788 131.987 67.9133C131.907 67.8213 131.826 67.7294 131.746 67.6374C131.764 67.4913 131.742 67.3556 131.681 67.2302C131.613 67.0785 131.572 66.9197 131.557 66.7541C131.603 66.7138 131.636 66.677 131.655 66.6436C131.701 66.6033 131.747 66.563 131.793 66.5227C132.18 66.167 132.591 65.8476 133.026 65.5643C133.48 65.2477 133.934 64.931 134.389 64.6144C134.461 64.5672 134.533 64.52 134.606 64.4728C134.678 64.4255 134.767 64.3881 134.873 64.3604C135.164 64.2843 135.448 64.1817 135.725 64.0527C136.022 63.8903 136.305 63.7314 136.576 63.5759C136.846 63.4204 137.14 63.3012 137.457 63.2182C137.642 63.1697 137.814 63.1247 137.973 63.0832C138.151 63.0083 138.333 62.9467 138.518 62.8982C138.65 62.8636 138.756 62.836 138.835 62.8152C138.941 62.7875 139.037 62.7765 139.124 62.7822C139.375 62.7728 139.614 62.7669 139.84 62.7645C140.058 62.7356 140.286 62.69 140.524 62.6277C140.63 62.6 140.726 62.589 140.813 62.5947C140.918 62.567 141.024 62.5394 141.13 62.5117C141.428 62.462 141.719 62.4423 142.005 62.4524C142.31 62.4292 142.614 62.406 142.919 62.3828C143.072 62.4275 143.169 62.5293 143.211 62.688C143.398 63.4022 143.598 64.1129 143.811 64.8202C144.017 65.501 144.135 66.2193 144.163 66.975C144.32 67.3579 144.377 67.7386 144.334 68.1171C144.285 68.4691 144.239 68.8344 144.197 69.2128C144.246 69.398 144.284 69.5998 144.313 69.8184C144.335 70.0104 144.374 70.2123 144.429 70.4239C144.551 70.6746 144.624 70.9523 144.647 71.2571C144.67 71.5619 144.677 71.857 144.667 72.1423C144.721 72.2411 144.758 72.3303 144.779 72.4096C144.826 72.4821 144.867 72.5844 144.902 72.7167C144.93 72.8225 144.937 72.9053 144.924 72.9651C144.841 73.1849 144.803 73.4207 144.813 73.6726C144.849 73.9176 144.884 74.1626 144.92 74.4076C144.915 74.4938 144.926 74.5899 144.953 74.6957C145 74.7681 145.018 74.8342 145.005 74.8941C144.994 75.0666 145.035 75.2253 145.13 75.3702C145.244 75.4817 145.305 75.607 145.313 75.7462C145.321 75.8854 145.319 76.0413 145.308 76.2138C145.29 76.3599 145.285 76.5025 145.293 76.6417L145.386 76.9988C145.454 77.1506 145.509 77.3059 145.55 77.4646C145.592 77.6233 145.647 77.7785 145.715 77.9303C145.763 78.1155 145.808 78.2874 145.85 78.4461C145.891 78.6048 145.923 78.7802 145.945 78.9723C146.001 79.2966 146.06 79.5215 146.121 79.6468C146.182 79.7722 146.354 79.9958 146.636 80.3177C146.637 80.4304 146.638 80.5431 146.64 80.6558C146.641 80.7686 146.632 80.898 146.614 81.0441C146.722 81.2419 146.837 81.4097 146.958 81.5477C147.118 81.6189 147.253 81.5975 147.365 81.4835C147.476 81.3696 147.605 81.3218 147.751 81.3401C147.931 81.3779 148.114 81.429 148.3 81.4933C148.506 81.5242 148.701 81.5154 148.887 81.467C149.066 81.5048 149.249 81.5559 149.435 81.6202C149.615 81.658 149.788 81.7257 149.955 81.8234C149.976 81.9028 149.993 81.9689 150.007 82.0218C150.047 82.0678 150.078 82.1304 150.098 82.2098Z" fill="#57A3FF"/>
<path d="M167.132 76.4455C167.169 76.6354 167.201 76.8556 167.229 77.1061C167.274 77.3219 167.319 77.5377 167.364 77.7535C167.427 78.021 167.49 78.2885 167.552 78.556C167.606 78.7976 167.695 79.0563 167.818 79.3319C167.818 79.3319 167.84 79.3534 167.884 79.3962C167.918 79.4132 167.923 79.4694 167.898 79.5647C167.925 79.7288 167.914 79.8629 167.863 79.9671C167.837 80.0624 167.817 80.1707 167.8 80.2919C167.809 80.3177 167.827 80.3694 167.854 80.447C167.88 80.5246 167.89 80.5937 167.881 80.6543C167.813 80.7932 167.715 80.9281 167.587 81.0589C167.493 81.2067 167.399 81.3545 167.305 81.5022C167.081 81.6079 166.961 81.6781 166.944 81.7128C166.935 81.7734 166.819 81.8133 166.594 81.8325C166.517 81.8591 166.47 81.8898 166.453 81.9245C166.461 81.9504 166.44 81.9722 166.388 81.9899C166.345 82.0335 166.311 82.0597 166.285 82.0686C166.259 82.0775 166.233 82.0863 166.208 82.0952C166.191 82.1299 166.156 82.1562 166.104 82.1739C166.027 82.2005 165.954 82.24 165.885 82.2925C165.816 82.3449 165.76 82.393 165.718 82.4366C165.597 82.5068 165.503 82.5681 165.434 82.6206C165.391 82.6641 165.309 82.721 165.189 82.7912C165.059 82.8356 164.913 82.8714 164.749 82.8987C164.619 82.9431 164.482 83.0047 164.335 83.0838C164.215 83.154 164.068 83.1898 163.895 83.1913C163.757 83.2098 163.619 83.2282 163.481 83.2467C163.429 83.2644 163.373 83.2692 163.312 83.2611C163.252 83.253 163.182 83.2622 163.105 83.2888C163.053 83.3065 162.98 83.3461 162.885 83.4074C162.817 83.4598 162.756 83.4949 162.705 83.5127C162.618 83.5134 162.532 83.5141 162.445 83.5149C162.385 83.5067 162.298 83.5075 162.186 83.5171C162.125 83.5089 162.052 83.5052 161.965 83.506C161.888 83.5326 161.793 83.5507 161.681 83.5603C161.362 83.7273 161.069 83.8854 160.803 84.0346C160.571 84.2009 160.321 84.3586 160.054 84.5079C159.778 84.5448 159.536 84.5123 159.327 84.4103C159.119 84.3083 158.923 84.2019 158.741 84.091C158.542 84.1014 158.374 84.159 158.237 84.2639C158.108 84.3947 157.975 84.5126 157.837 84.6175C157.717 84.6877 157.584 84.7623 157.437 84.8414C157.317 84.9116 157.196 84.9817 157.076 85.0519C156.921 85.1051 156.766 85.1583 156.61 85.2115C156.464 85.2906 156.304 85.3309 156.131 85.3323C156.088 85.2895 156.049 85.2595 156.014 85.2425C155.979 85.2255 155.953 85.1912 155.935 85.1394C155.68 84.6487 155.358 84.297 154.967 84.0841C154.923 84.0413 154.884 84.0113 154.849 83.9943C154.831 83.9426 154.792 83.9127 154.732 83.9045C154.653 83.7582 154.625 83.5942 154.65 83.4124C154.7 83.2217 154.673 83.0577 154.568 82.9202L154.093 82.0423L154.202 81.0946C154.175 81.017 154.131 80.9309 154.07 80.8363C154 80.7159 153.943 80.591 153.898 80.4616C153.932 80.3922 153.949 80.3142 153.948 80.2278C153.947 80.1413 153.951 80.0678 153.959 80.0072C154.244 79.9097 154.463 79.7911 154.618 79.6514C154.738 79.5812 154.846 79.5155 154.94 79.4541C155.061 79.3839 155.181 79.3137 155.302 79.2435C155.475 79.2421 155.626 79.2192 155.755 79.1749C156.151 78.9813 156.426 78.7282 156.579 78.4156C156.534 78.2863 156.494 78.1699 156.459 78.0665C156.415 77.9371 156.383 77.8034 156.365 77.6652C156.364 77.5787 156.35 77.4967 156.324 77.4191C156.314 77.3068 156.305 77.1945 156.295 77.0821C156.29 76.4769 156.176 75.851 155.955 75.2044C155.84 74.8682 155.763 74.5186 155.725 74.1558C155.723 73.8964 155.687 73.6633 155.616 73.4564C155.536 73.2236 155.465 73.0167 155.403 72.8356C155.253 72.4824 155.125 72.1506 155.018 71.8402C154.929 71.4951 154.84 71.15 154.75 70.8049C154.706 70.6756 154.662 70.5462 154.617 70.4169C154.599 70.2787 154.585 70.1535 154.575 70.0412C154.583 69.8941 154.551 69.7603 154.481 69.6399C154.411 69.5194 154.349 69.3816 154.296 69.2264C154.321 69.1311 154.346 69.0358 154.371 68.9404C154.396 68.8451 154.404 68.7413 154.395 68.629C154.377 68.5772 154.337 68.5041 154.276 68.4095C154.24 68.306 154.205 68.2026 154.17 68.0991C154.168 67.9262 154.167 67.7533 154.165 67.5804C154.155 67.3816 154.144 67.1828 154.134 66.984C154.028 66.7601 153.906 66.6141 153.767 66.5462C153.628 66.4782 153.464 66.4623 153.274 66.4985C153.093 66.5605 152.89 66.6011 152.665 66.6203C152.467 66.6307 152.272 66.6539 152.082 66.6901C151.368 67.0507 150.658 67.5107 149.954 68.07C149.954 68.07 149.889 68.0922 149.76 68.1365C149.422 67.9924 149.195 67.7522 149.08 67.416C149.001 67.2697 148.947 67.1145 148.92 66.9504C148.919 66.7775 148.852 66.6268 148.722 66.4982C148.764 66.3681 148.797 66.2554 148.823 66.1601C148.839 66.0389 148.851 65.948 148.859 65.8874C148.875 65.7662 148.857 65.6713 148.805 65.6025C148.752 65.5338 148.726 65.4562 148.725 65.3698C148.707 65.318 148.703 65.2619 148.711 65.2013C148.745 65.1318 148.761 65.0539 148.761 64.9674C148.717 64.9245 148.656 64.8732 148.578 64.8133C148.516 64.7187 148.442 64.6286 148.355 64.5428C148.345 64.4305 148.336 64.3182 148.326 64.2059C148.308 64.0677 148.289 63.9295 148.271 63.7913C148.175 63.6797 148.087 63.594 148.009 63.5341C147.922 63.4484 147.835 63.3627 147.748 63.2769C147.755 63.1299 147.724 62.9961 147.653 62.8757C147.574 62.7294 147.521 62.5742 147.494 62.4101C147.537 62.3665 147.567 62.3274 147.584 62.2926C147.626 62.249 147.669 62.2054 147.712 62.1618C148.072 61.7783 148.458 61.4292 148.871 61.1144C149.3 60.7649 149.729 60.4154 150.159 60.0659C150.227 60.0135 150.296 59.961 150.365 59.9085C150.434 59.8561 150.52 59.8121 150.623 59.7766C150.908 59.6791 151.183 59.5557 151.45 59.4065C151.734 59.2225 152.005 59.0429 152.263 58.8678C152.52 58.6927 152.805 58.5519 153.115 58.4456C153.296 58.3835 153.464 58.3259 153.619 58.2727C153.791 58.1847 153.968 58.1098 154.149 58.0477C154.278 58.0034 154.382 57.9679 154.46 57.9413C154.563 57.9058 154.658 57.8877 154.744 57.887C154.995 57.8589 155.232 57.8353 155.457 57.8161C155.673 57.771 155.897 57.7086 156.13 57.6288C156.233 57.5934 156.328 57.5753 156.415 57.5745C156.518 57.5391 156.622 57.5036 156.725 57.4681C157.019 57.3965 157.308 57.3551 157.593 57.3441C157.895 57.2983 158.198 57.2525 158.5 57.2067C158.656 57.2399 158.76 57.3341 158.814 57.4893C159.053 58.1877 159.305 58.8816 159.57 59.5711C159.827 60.2347 159.997 60.9422 160.081 61.6938C160.266 62.064 160.351 62.4394 160.337 62.82C160.314 63.1747 160.296 63.5423 160.282 63.9229C160.344 64.1039 160.397 64.3023 160.443 64.5181C160.479 64.708 160.532 64.9065 160.603 65.1134C160.744 65.3543 160.837 65.6259 160.882 65.9281C160.928 66.2303 160.957 66.5241 160.968 66.8093C161.029 66.9039 161.073 66.99 161.1 67.0676C161.152 67.1363 161.201 67.2354 161.245 67.3647C161.28 67.4681 161.294 67.5502 161.286 67.6108C161.219 67.8361 161.199 68.0741 161.227 68.3246C161.281 68.5662 161.335 68.8079 161.389 69.0495C161.39 69.136 161.408 69.2309 161.443 69.3344C161.496 69.4031 161.518 69.4678 161.51 69.5284C161.511 69.7013 161.564 69.8565 161.669 69.9939C161.791 70.0967 161.861 70.2171 161.88 70.3553C161.898 70.4935 161.908 70.6491 161.91 70.822C161.902 70.969 161.908 71.1116 161.926 71.2498L162.046 71.599C162.125 71.7453 162.191 71.8961 162.244 72.0513C162.298 72.2065 162.364 72.3572 162.443 72.5035C162.505 72.6846 162.562 72.8527 162.616 73.0079C162.669 73.1631 162.714 73.3356 162.75 73.5255C162.83 73.8448 162.906 74.0646 162.976 74.1851C163.046 74.3055 163.234 74.5158 163.539 74.8158C163.548 74.9282 163.558 75.0405 163.568 75.1528C163.577 75.2651 163.578 75.3948 163.571 75.5419C163.694 75.731 163.82 75.8899 163.951 76.0185C164.116 76.0777 164.25 76.0463 164.352 75.9243C164.455 75.8024 164.58 75.7451 164.727 75.7525C164.909 75.7769 165.095 75.8143 165.286 75.8645C165.493 75.8801 165.688 75.8568 165.869 75.7947C166.051 75.8191 166.237 75.8565 166.427 75.9067C166.609 75.9311 166.787 75.9858 166.961 76.0708C166.987 76.1484 167.009 76.2131 167.027 76.2648C167.071 76.3077 167.106 76.3679 167.132 76.4455Z" fill="#57A3FF"/>
</svg>
