<svg width="341" height="341" viewBox="0 0 341 341" fill="none" xmlns="http://www.w3.org/2000/svg">
<path d="M134.787 35.3133L189.449 120.52L287.378 94.8638L223.232 173.181L277.895 258.388L183.588 221.584L119.443 299.902L125.304 198.838L30.9977 162.034L128.926 136.377L134.787 35.3133Z" fill="#FF6352"/>
<path d="M139.141 51.962L186.427 125.672L271.142 103.477L215.652 171.227L262.939 244.937L181.357 213.099L125.868 280.849L130.937 193.422L49.3562 161.584L134.071 139.389L139.141 51.962Z" fill="#FFD13B"/>
<path d="M156.015 172.64C156.118 172.821 156.156 173.019 156.128 173.235C156.1 173.45 156.142 173.662 156.253 173.871C156.282 173.982 156.285 174.1 156.261 174.225C156.276 174.281 156.277 174.34 156.265 174.403C156.246 174.437 156.241 174.469 156.248 174.496C156.391 174.935 156.471 175.241 156.488 175.414C156.524 175.553 156.535 175.863 156.52 176.342C156.576 176.447 156.625 176.582 156.669 176.749C156.731 176.881 156.798 177.028 156.868 177.188C156.892 177.389 156.892 177.657 156.867 177.99C156.774 177.955 156.684 177.934 156.598 177.927C156.538 177.913 156.478 177.899 156.419 177.885C156.246 177.87 156.186 177.96 156.237 178.155C156.288 178.35 156.361 178.524 156.457 178.677C156.573 178.795 156.701 178.91 156.842 179.022C156.848 179.258 156.857 179.509 156.87 179.773C156.91 180.03 156.939 180.304 156.96 180.596C156.894 180.881 156.818 181.183 156.734 181.503C156.641 181.794 156.482 182.044 156.256 182.252C156.266 182.398 156.273 182.53 156.275 182.648C156.271 182.738 156.261 182.86 156.245 183.013C156.059 183.269 155.877 183.54 155.699 183.824C155.514 184.081 155.371 184.341 155.272 184.604C155.17 184.75 155.062 184.823 154.95 184.822C154.838 184.822 154.733 184.85 154.635 184.905C154.487 185.092 154.34 185.279 154.192 185.466C154.071 185.647 153.937 185.83 153.789 186.018C153.635 186.177 153.497 186.347 153.375 186.527C153.254 186.708 153.12 186.891 152.972 187.078L152.381 187.233C152.279 187.379 152.186 187.507 152.103 187.618C152.013 187.701 151.913 187.802 151.803 187.919C151.724 187.94 151.662 187.971 151.617 188.013C151.591 188.019 151.548 188.016 151.488 188.002C151.218 188.043 151.038 188.105 150.947 188.188C150.849 188.243 150.661 188.382 150.382 188.603C150.168 188.748 149.953 188.894 149.739 189.039C149.531 189.212 149.324 189.385 149.117 189.558C148.791 189.495 148.471 189.504 148.156 189.587C147.867 189.662 147.565 189.741 147.25 189.824C147.063 189.754 146.88 189.698 146.7 189.655C146.581 189.627 146.478 189.61 146.392 189.602C146.332 189.588 146.246 189.581 146.134 189.581C146.081 189.594 146.002 189.615 145.897 189.643C145.818 189.663 145.734 189.715 145.643 189.798C145.598 189.84 145.543 189.899 145.479 189.975C145.415 190.051 145.367 190.138 145.337 190.235C144.816 190.282 144.282 190.333 143.735 190.387C143.195 190.468 142.647 190.522 142.093 190.549C141.868 190.548 141.644 190.547 141.419 190.547C141.213 190.511 140.998 190.493 140.773 190.493C140.623 190.562 140.473 190.631 140.322 190.7C140.172 190.769 140.012 190.855 139.843 190.959C139.437 191.124 139.084 191.009 138.784 190.612C138.769 190.556 138.742 190.504 138.701 190.455C138.686 190.4 138.675 190.358 138.668 190.33C138.641 190.01 138.617 189.704 138.597 189.413C138.576 189.121 138.547 188.846 138.507 188.589C138.493 188.533 138.523 188.436 138.599 188.297L138.556 188.13C138.429 188.074 138.302 188.018 138.175 187.962C138.074 187.9 137.974 187.837 137.873 187.774L136.851 184.029L136.84 183.987L137.116 183.915C137.075 183.866 137.025 183.835 136.965 183.821C136.898 183.779 136.835 183.751 136.775 183.737C136.775 183.737 136.782 183.601 136.795 183.33C136.808 183.059 136.813 182.865 136.811 182.747C136.819 182.566 136.77 182.43 136.662 182.34C136.58 182.242 136.512 182.141 136.457 182.037C136.48 181.912 136.507 181.801 136.538 181.703C136.561 181.578 136.571 181.457 136.569 181.339C136.506 181.206 136.434 181.092 136.352 180.994C136.27 180.896 136.189 180.799 136.107 180.701C136.045 180.569 136.008 180.43 135.998 180.284C136.007 180.103 135.997 179.958 135.968 179.846C135.984 179.693 135.961 179.551 135.898 179.419C135.835 179.286 135.778 179.123 135.728 178.928C135.569 178.643 135.363 178.34 135.111 178.02C135.146 177.832 135.168 177.648 135.177 177.467C135.186 177.287 135.195 177.106 135.204 176.925L134.933 176.372C134.927 176.136 134.921 175.9 134.916 175.663C134.929 175.392 134.923 175.156 134.898 174.954C134.684 174.565 134.526 174.175 134.424 173.786C134.341 173.361 134.245 172.941 134.136 172.523C134.078 172.301 134.078 172.033 134.137 171.721C134.175 171.651 134.186 171.589 134.172 171.533C134.176 171.443 134.188 171.38 134.207 171.346C134.003 171.102 133.87 170.914 133.807 170.782C133.763 170.615 133.746 170.441 133.755 170.26C133.756 170.052 133.673 169.895 133.506 169.791C133.347 169.505 133.248 169.234 133.208 168.977C133.162 168.692 133.129 168.403 133.108 168.111C133.203 167.938 133.272 167.771 133.314 167.611C133.376 167.417 133.437 167.223 133.499 167.028C133.623 166.966 133.747 166.904 133.871 166.842C134.014 166.745 134.141 166.697 134.254 166.697C134.696 166.67 135.124 166.484 135.539 166.138C135.648 166.02 135.772 165.958 135.911 165.951C136.076 165.938 136.244 165.938 136.417 165.953C136.894 165.739 137.371 165.525 137.848 165.311C138.326 165.097 138.782 164.858 139.219 164.596C139.336 164.506 139.463 164.457 139.602 164.451C139.74 164.444 139.902 164.417 140.086 164.369L140.707 163.85C140.846 163.843 140.988 163.85 141.134 163.872C141.273 163.865 141.415 163.873 141.561 163.894C141.711 163.825 141.858 163.742 142.001 163.645C142.144 163.548 142.304 163.462 142.48 163.386C142.6 163.414 142.723 163.456 142.85 163.512C142.977 163.568 143.1 163.61 143.22 163.638C143.502 163.535 143.75 163.41 143.964 163.265C144.205 163.113 144.453 162.989 144.709 162.892C144.843 162.976 144.954 163.08 145.043 163.206C145.125 163.303 145.229 163.38 145.356 163.436C145.498 163.548 145.66 163.579 145.844 163.531C146.047 163.448 146.166 163.313 146.201 163.126C146.217 162.973 146.282 162.897 146.394 162.897C146.532 162.89 146.697 162.981 146.886 163.169C147.044 163.128 147.198 163.073 147.348 163.004C147.498 162.935 147.665 162.876 147.849 162.828C148.002 162.877 148.129 162.933 148.23 162.996C148.35 163.024 148.476 163.08 148.611 163.164C148.745 163.248 148.879 163.332 149.013 163.416C149.14 163.471 149.28 163.524 149.433 163.573C149.613 163.615 149.751 163.713 149.847 163.866C149.995 164.006 150.157 164.142 150.332 164.274C150.526 164.372 150.707 164.473 150.875 164.578C151.15 164.773 151.517 164.886 151.973 164.915C152.033 164.929 152.093 164.943 152.153 164.957C152.239 164.964 152.299 164.978 152.332 164.999C152.443 165.208 152.554 165.417 152.664 165.626C152.794 165.8 152.901 165.995 152.986 166.21C153.025 166.468 153.04 166.687 153.031 166.867C153.149 167.104 153.309 167.285 153.51 167.411C153.704 167.509 153.889 167.624 154.064 167.756C154.592 168.272 154.961 168.933 155.172 169.74C155.245 170.018 155.331 170.293 155.43 170.564C155.521 170.808 155.574 171.062 155.587 171.326C155.619 171.555 155.69 171.774 155.801 171.983C155.938 172.185 156.009 172.404 156.015 172.64ZM149.976 173.373C149.887 173.248 149.772 173.129 149.631 173.018C149.508 172.871 149.399 172.721 149.303 172.568C149.18 172.422 149.071 172.272 148.975 172.119C148.871 171.938 148.768 171.757 148.664 171.576C148.229 171.631 147.825 171.588 147.452 171.448C147.105 171.301 146.758 171.154 146.41 171.007L145.819 171.161C145.499 171.007 145.198 170.878 144.918 170.773C144.631 170.64 144.33 170.511 144.017 170.385C143.556 170.446 143.109 170.563 142.677 170.735C142.264 170.873 141.863 170.948 141.473 170.961C141.259 171.106 141.067 171.231 140.897 171.334C140.747 171.403 140.6 171.486 140.457 171.583C140.329 171.736 140.246 171.847 140.208 171.916C140.238 172.354 140.321 172.778 140.456 173.188C140.592 173.599 140.727 174.009 140.863 174.42C141.011 174.559 141.068 174.723 141.033 174.91C141.017 175.063 141.04 175.205 141.103 175.338C141.151 175.414 141.186 175.494 141.208 175.578C141.256 175.654 141.311 175.759 141.374 175.891C141.365 176.072 141.373 176.263 141.397 176.464C141.441 176.631 141.479 176.829 141.511 177.059C141.627 177.504 141.697 177.931 141.72 178.341C141.835 178.46 141.937 178.582 142.026 178.707C142.108 178.805 142.193 178.916 142.282 179.041C142.269 179.312 142.246 179.601 142.214 179.906C142.2 180.177 142.197 180.431 142.202 180.667C142.239 180.806 142.275 180.946 142.311 181.085C142.374 181.217 142.41 181.356 142.421 181.502C142.482 181.843 142.49 182.197 142.446 182.565L142.68 182.816C142.947 183.192 143.302 183.263 143.746 183.028C144.035 182.952 144.26 182.848 144.422 182.717C144.592 182.613 144.762 182.569 144.935 182.583C145.126 182.563 145.31 182.515 145.486 182.439C145.682 182.328 145.887 182.2 146.101 182.055C146.335 181.875 146.546 181.716 146.734 181.577C146.858 181.515 146.969 181.456 147.067 181.401C147.165 181.346 147.27 181.318 147.382 181.319C147.626 181.284 147.875 181.219 148.131 181.123C148.386 181.026 148.641 180.93 148.897 180.833C148.935 180.764 149.003 180.701 149.101 180.646C149.191 180.563 149.268 180.483 149.333 180.407C149.676 180.109 149.934 179.7 150.106 179.179C150.186 178.95 150.237 178.714 150.257 178.471C150.297 178.193 150.344 177.943 150.398 177.721C150.484 177.193 150.522 176.693 150.511 176.22C150.492 175.72 150.391 175.226 150.207 174.739C150.152 174.635 150.11 174.527 150.081 174.416C150.078 174.297 150.075 174.179 150.072 174.061C150.069 173.943 150.066 173.825 150.064 173.707C150.061 173.589 150.032 173.477 149.976 173.373Z" fill="#57A3FF"/>
<path d="M178.893 155.459C178.894 155.58 178.906 155.683 178.928 155.769C178.95 155.854 178.973 155.939 178.995 156.025C179.017 156.11 179.043 156.21 179.073 156.323C179.124 156.401 179.146 156.487 179.14 156.579C179.156 156.758 179.197 156.914 179.263 157.049C179.329 157.184 179.352 157.33 179.332 157.487C179.318 157.551 179.305 157.616 179.291 157.68C179.27 157.716 179.267 157.762 179.282 157.819C179.473 158.316 179.575 158.822 179.588 159.335C179.6 159.849 179.631 160.373 179.68 160.907L180.213 161.726C180.229 161.904 180.217 162.089 180.176 162.282C180.164 162.468 180.155 162.668 180.151 162.882C180.224 163.045 180.286 163.226 180.338 163.426C180.411 163.589 180.488 163.766 180.569 163.958C180.557 164.144 180.562 164.34 180.586 164.546C180.61 164.753 180.676 164.949 180.785 165.133C180.981 165.416 181.095 165.736 181.127 166.092C181.181 166.413 181.262 166.726 181.373 167.031C181.38 167.06 181.391 167.102 181.406 167.159C181.421 167.216 181.418 167.263 181.397 167.298C181.364 167.52 181.381 167.759 181.448 168.015C181.507 168.242 181.581 168.466 181.669 168.687C181.8 168.956 181.9 169.219 181.966 169.475C182.062 169.724 182.214 169.958 182.424 170.176C182.512 170.397 182.589 170.635 182.656 170.891C182.723 171.147 182.801 171.385 182.889 171.605C182.861 171.734 182.824 171.881 182.776 172.045C182.72 172.181 182.679 172.314 182.652 172.443C182.683 172.678 182.728 172.909 182.788 173.137C182.84 173.336 182.952 173.534 183.126 173.732C183.162 173.753 183.209 173.877 183.269 174.105C183.349 174.297 183.434 174.503 183.522 174.723C183.602 174.915 183.646 175.025 183.654 175.053C183.956 175.278 184.034 175.577 183.888 175.95C183.875 176.014 183.847 176.082 183.805 176.154C183.791 176.218 183.781 176.297 183.775 176.39C183.884 176.574 183.993 176.758 184.102 176.942C184.204 177.098 184.295 177.272 184.376 177.464C184.499 177.705 184.534 177.894 184.478 178.03C184.422 178.166 184.328 178.328 184.194 178.514C184.173 178.55 184.12 178.579 184.035 178.602C183.957 178.653 183.897 178.714 183.855 178.786C183.741 178.815 183.659 178.852 183.61 178.895C183.504 178.954 183.393 178.998 183.28 179.027C183.202 179.078 183.095 179.136 182.961 179.202L182.413 179.026C182.292 179.027 182.128 179.101 181.923 179.245C181.754 179.411 181.565 179.446 181.357 179.348C181.306 179.27 181.16 179.232 180.917 179.235C180.667 179.209 180.568 179.235 180.618 179.313L180.629 179.356C180.629 179.356 180.513 179.432 180.279 179.584C180.053 179.765 179.879 179.917 179.759 180.039C179.524 180.071 179.21 180.031 178.817 179.921C178.451 179.804 178.198 179.764 178.055 179.801C177.904 179.689 177.8 179.579 177.742 179.473C177.712 179.359 177.678 179.231 177.641 179.089C177.632 178.939 177.627 178.804 177.626 178.682C177.617 178.533 177.608 178.383 177.6 178.233C177.667 177.911 177.578 177.57 177.332 177.209C177.223 177.024 177.103 176.858 176.973 176.71C176.864 176.525 176.769 176.337 176.689 176.146C176.638 176.068 176.583 175.915 176.523 175.687C176.464 175.46 176.398 175.325 176.326 175.283C176.246 175.091 176.179 174.896 176.127 174.697C176.104 174.49 176.009 174.302 175.843 174.132C175.683 173.87 175.619 173.568 175.651 173.225C175.678 173.096 175.681 172.989 175.658 172.904C175.657 172.783 175.663 172.69 175.677 172.625C175.644 172.269 175.549 172.02 175.39 171.88C174.979 171.47 174.587 171.193 174.215 171.047C174.008 171.071 173.787 171.098 173.552 171.129C173.317 171.16 173.086 171.206 172.858 171.265C172.83 171.272 172.773 171.287 172.688 171.31C172.595 171.304 172.488 171.301 172.366 171.303C171.917 171.329 171.505 171.437 171.129 171.626C170.781 171.808 170.369 171.977 169.893 172.132C169.58 172.214 169.251 172.178 168.907 172.025C168.886 172.061 168.841 172.118 168.77 172.198C168.692 172.249 168.632 172.31 168.59 172.382C168.261 172.285 167.9 172.243 167.508 172.254C167.322 172.242 167.13 172.262 166.931 172.314C166.753 172.33 166.546 172.354 166.311 172.385C166.098 172.501 166.008 172.738 166.04 173.094L166.141 173.478C166.295 173.833 166.406 174.2 166.474 174.577C166.542 174.954 166.55 175.332 166.497 175.711C166.512 175.768 166.53 175.839 166.553 175.924C166.575 176.01 166.579 176.085 166.566 176.149C166.681 176.24 166.786 176.35 166.88 176.477C166.966 176.576 167.053 176.675 167.14 176.774C167.129 177.081 167.079 177.413 166.99 177.771C167.071 177.963 167.137 178.158 167.189 178.357C167.27 178.549 167.35 178.741 167.431 178.932C167.474 178.982 167.521 179.046 167.572 179.123C167.615 179.173 167.659 179.222 167.702 179.272C168.142 179.674 168.218 180.14 167.931 180.671C167.91 180.707 167.904 180.739 167.911 180.768C167.918 180.796 167.901 180.846 167.859 180.918C167.889 181.032 167.922 181.16 167.96 181.302C167.997 181.444 168.024 181.605 168.04 181.783C168.07 181.897 168.064 182.05 168.023 182.243C168.031 182.272 168.01 182.307 167.96 182.351C167.939 182.387 167.908 182.441 167.866 182.512C167.505 182.759 167.179 182.966 166.888 183.133C166.448 183.309 166.06 183.395 165.724 183.392C165.425 183.409 165.025 183.392 164.525 183.341C164.227 183.479 163.911 183.608 163.577 183.725C163.264 183.807 162.908 183.84 162.508 183.823C162.351 183.803 162.158 183.762 161.929 183.701C161.729 183.631 161.514 183.566 161.285 183.504C161.063 183.471 160.842 183.438 160.62 183.405C160.427 183.364 160.238 183.337 160.052 183.325C159.9 183.091 159.826 182.867 159.831 182.653C159.843 182.468 159.838 182.272 159.814 182.065C159.819 181.851 159.827 181.651 159.84 181.465C159.885 181.058 159.863 180.684 159.774 180.343C159.623 180.23 159.589 180.041 159.671 179.777C159.726 179.519 159.691 179.27 159.567 179.029C159.471 178.78 159.408 178.538 159.377 178.303C159.159 177.935 159.026 177.544 158.979 177.13C158.924 176.689 158.877 176.275 158.837 175.891C158.806 175.656 158.797 175.445 158.809 175.26C158.821 175.074 158.776 174.903 158.675 174.747C158.672 174.505 158.727 174.308 158.84 174.157C158.945 173.978 158.975 173.802 158.93 173.632C158.899 173.397 158.822 173.219 158.7 173.099C158.598 172.943 158.507 172.77 158.427 172.578C158.404 172.492 158.378 172.393 158.348 172.279C158.34 172.129 158.32 171.998 158.291 171.884C158.253 171.742 158.22 171.613 158.19 171.5C158.16 171.386 158.149 171.283 158.155 171.19C158.152 170.947 158.078 170.723 157.933 170.518C157.817 170.305 157.739 170.067 157.701 169.804C157.686 169.747 157.657 169.693 157.613 169.644C157.57 169.595 157.523 169.531 157.472 169.453C157.384 169.233 157.321 168.991 157.282 168.727C157.244 168.464 157.195 168.218 157.135 167.991C157.068 167.735 156.991 167.496 156.903 167.276C156.815 167.056 156.759 166.843 156.735 166.636C156.72 166.579 156.713 166.551 156.713 166.551C156.734 166.515 156.741 166.483 156.733 166.454C156.783 166.411 156.84 166.396 156.904 166.409C156.997 166.416 157.054 166.401 157.075 166.365C157.135 166.015 157.086 165.708 156.926 165.446C156.758 165.155 156.623 164.872 156.521 164.594C156.569 164.43 156.567 164.248 156.515 164.049C156.455 163.821 156.379 163.704 156.286 163.698C156.234 163.499 156.168 163.304 156.087 163.112C156.035 162.913 155.969 162.717 155.888 162.525C155.8 162.305 155.702 162.103 155.593 161.919C155.484 161.734 155.413 161.525 155.382 161.29C155.395 161.104 155.407 160.918 155.419 160.733C155.431 160.547 155.472 160.354 155.541 160.154C155.648 160.095 155.768 160.033 155.903 159.968C156.066 159.895 156.208 159.797 156.328 159.674C156.455 159.58 156.55 159.479 156.613 159.371C156.677 159.264 156.761 159.181 156.868 159.123C157.088 159.035 157.294 159.011 157.487 159.052C157.709 159.085 157.909 159.093 158.087 159.077C158.493 159.001 158.798 158.891 159.004 158.746C159.209 158.601 159.449 158.356 159.723 158.011C159.888 158.059 160.052 158.107 160.217 158.155C160.41 158.196 160.575 158.244 160.711 158.3C160.868 158.319 160.997 158.346 161.097 158.381C161.226 158.408 161.354 158.435 161.483 158.462C161.748 158.545 161.918 158.729 161.992 159.013C162.073 159.205 162.135 159.386 162.18 159.557C162.225 159.728 162.283 159.895 162.357 160.058C162.416 160.286 162.476 160.513 162.535 160.741C162.623 160.961 162.74 161.174 162.885 161.379C162.943 161.486 162.987 161.596 163.017 161.709C163.046 161.823 163.09 161.933 163.149 162.04C163.274 162.402 163.408 162.914 163.551 163.576C163.714 164.202 163.77 164.705 163.717 165.083C163.711 165.176 163.722 165.279 163.752 165.393C163.947 165.555 164.122 165.585 164.278 165.484C164.462 165.375 164.639 165.298 164.81 165.253C165.16 165.314 165.443 165.407 165.658 165.533C165.874 165.659 166.16 165.766 166.518 165.855C166.794 165.631 167.063 165.5 167.327 165.461C167.612 165.387 167.91 165.248 168.221 165.045L170.227 164.52C170.967 164.327 171.67 164.051 172.337 163.695C172.464 163.6 172.585 163.539 172.699 163.509C172.834 163.443 172.954 163.381 173.061 163.323C173.11 163.28 173.16 163.236 173.209 163.193C173.259 163.15 173.294 163.11 173.315 163.074C173.32 162.86 173.224 162.551 173.027 162.146C172.822 161.713 172.697 161.411 172.653 161.241C172.587 161.106 172.504 160.961 172.402 160.805C172.329 160.641 172.274 160.489 172.236 160.346C172.211 160.018 172.133 159.72 172.002 159.45C171.899 159.173 171.81 158.892 171.736 158.608C171.699 158.465 171.644 158.313 171.57 158.149C171.526 157.979 171.471 157.826 171.405 157.691C171.078 157.138 170.896 156.502 170.86 155.781C171.211 155.264 171.731 154.87 172.42 154.598C172.711 154.431 173.009 154.353 173.316 154.364C173.644 154.339 173.958 154.317 174.257 154.3C174.385 154.206 174.526 154.108 174.682 154.006C174.831 153.876 175.004 153.725 175.201 153.551C175.514 153.469 175.728 153.414 175.842 153.384C175.984 153.347 176.222 153.269 176.556 153.151C176.784 153.092 176.951 153.033 177.057 152.975C177.156 152.888 177.33 152.797 177.578 152.701C177.614 152.722 177.701 152.821 177.839 152.998C178.004 153.168 178.102 153.309 178.132 153.423C178.111 153.459 178.166 153.612 178.298 153.881C178.45 154.115 178.538 154.335 178.562 154.542C178.606 154.713 178.665 154.88 178.738 155.043C178.804 155.178 178.855 155.316 178.893 155.459Z" fill="#57A3FF"/>
<path d="M204.347 155.696C204.353 155.724 204.364 155.782 204.381 155.868C204.397 155.955 204.397 156.03 204.379 156.093C204.324 156.432 204.316 156.777 204.353 157.128C204.419 157.474 204.474 157.837 204.517 158.217C204.571 158.654 204.596 159.098 204.592 159.546C204.589 159.995 204.539 160.438 204.443 160.874C204.442 161.024 204.429 161.19 204.405 161.374C204.404 161.524 204.388 161.676 204.358 161.831C204.406 162.24 204.322 162.659 204.106 163.089C204.071 163.215 204.012 163.301 203.931 163.346C203.762 163.708 203.636 163.986 203.554 164.18C203.5 164.37 203.478 164.568 203.488 164.775C203.493 164.954 203.487 165.238 203.473 165.63C203.326 165.956 203.171 166.315 203.007 166.704C202.842 167.094 202.678 167.484 202.514 167.874C202.507 167.995 202.503 168.13 202.502 168.28C202.501 168.429 202.499 168.579 202.498 168.728C202.503 168.907 202.478 169.09 202.425 169.28C202.395 169.435 202.367 169.604 202.343 169.788C202.342 169.938 202.3 170.11 202.218 170.305C202.159 170.466 202.115 170.624 202.085 170.779C201.938 171.105 201.82 171.501 201.73 171.967C201.653 172.19 201.565 172.431 201.465 172.689C201.388 172.913 201.257 173.162 201.071 173.437C201.047 173.471 201.024 173.506 201.001 173.54C201.006 173.569 200.997 173.6 200.974 173.635C200.852 173.777 200.764 173.943 200.711 174.133C200.663 174.351 200.567 174.549 200.422 174.726C200.3 174.869 200.18 175.026 200.064 175.198C199.953 175.398 199.839 175.584 199.723 175.756C199.602 175.749 199.467 175.745 199.317 175.744C199.197 175.737 199.061 175.733 198.912 175.732C198.802 175.783 198.664 175.839 198.496 175.901C198.358 175.958 198.208 176.031 198.046 176.122C197.862 176.097 197.678 176.073 197.494 176.048C197.31 176.024 197.112 176.002 196.899 175.983C196.733 175.895 196.567 175.808 196.401 175.72C196.235 175.633 196.074 175.574 195.919 175.544C195.782 175.45 195.635 175.389 195.48 175.359C195.354 175.323 195.211 175.276 195.05 175.217C194.889 175.158 194.717 175.117 194.533 175.092C194.349 175.068 194.183 174.98 194.035 174.829C194.129 174.542 194.224 174.256 194.318 173.969C194.441 173.676 194.562 173.369 194.679 173.048C194.738 172.888 194.754 172.735 194.726 172.591L194.788 172.445L194.78 172.402L194.814 172.35C194.96 172.173 195.062 172.004 195.121 171.844C195.174 171.654 195.239 171.448 195.316 171.224C195.399 170.88 195.482 170.535 195.566 170.191C195.678 169.841 195.715 169.49 195.678 169.139C195.632 169.058 195.599 168.96 195.577 168.844C195.554 168.729 195.518 168.617 195.467 168.507C195.428 168.305 195.453 168.121 195.541 167.955C195.652 167.755 195.719 167.563 195.744 167.379C195.565 167.383 195.39 167.402 195.217 167.435C195.067 167.434 194.918 167.432 194.768 167.431C194.55 167.383 194.335 167.35 194.122 167.331C193.904 167.283 193.683 167.221 193.459 167.144C193.035 166.957 192.59 166.818 192.125 166.728C191.683 166.604 191.22 166.528 190.737 166.501C190.737 166.501 190.686 166.466 190.583 166.396C190.348 166.262 190.113 166.128 189.878 165.994C189.638 165.83 189.424 165.648 189.236 165.445C189.185 165.335 189.108 165.245 189.005 165.175C188.902 165.105 188.813 165.033 188.739 164.957C188.184 164.556 187.705 164.08 187.301 163.53C187.261 163.478 187.21 163.443 187.147 163.426C187.107 163.373 187.067 163.321 187.027 163.269C186.752 163.083 186.501 162.862 186.273 162.607C186.068 162.318 185.866 162.043 185.667 161.783C185.578 161.471 185.485 161.145 185.39 160.805C185.324 160.46 185.261 160.128 185.2 159.811C185.073 159.149 184.98 158.509 184.922 157.893C184.864 157.277 184.832 156.641 184.825 155.985C184.855 155.83 184.871 155.678 184.872 155.528C184.868 155.35 184.866 155.186 184.868 155.037C185.009 154.681 185.095 154.351 185.126 154.046C185.181 153.707 185.269 153.392 185.393 153.099C185.498 152.87 185.557 152.635 185.571 152.393C185.579 152.123 185.607 151.878 185.655 151.66C185.701 151.592 185.736 151.54 185.759 151.506C185.806 151.437 185.87 151.38 185.951 151.335C186.164 151.204 186.361 151.062 186.541 150.908C186.72 150.754 186.9 150.6 187.08 150.446C187.363 150.213 187.633 149.982 187.888 149.754C188.166 149.492 188.481 149.267 188.834 149.08C188.88 149.011 188.936 148.911 189 148.779C189.093 148.642 189.187 148.505 189.28 148.367C189.309 148.362 189.337 148.356 189.366 148.351C189.418 148.311 189.485 148.268 189.566 148.223C189.884 148.013 190.21 147.846 190.545 147.722C190.874 147.569 191.226 147.457 191.6 147.385C191.849 147.278 192.083 147.173 192.302 147.072C192.521 146.97 192.758 146.88 193.012 146.801C193.231 146.7 193.444 146.719 193.65 146.858C193.85 146.969 194.023 147.011 194.167 146.983C194.345 146.979 194.486 146.937 194.591 146.857C194.695 146.778 194.77 146.703 194.817 146.635C194.909 146.647 194.989 146.676 195.058 146.723C195.15 146.735 195.23 146.765 195.299 146.811C195.547 146.704 195.755 146.619 195.922 146.558C196.364 146.682 196.731 146.806 197.023 146.929C197.218 147.011 197.402 147.11 197.573 147.227C197.745 147.343 197.917 147.46 198.088 147.576C198.409 147.694 198.731 147.812 199.052 147.929C199.396 148.013 199.732 148.127 200.059 148.274C200.225 148.362 200.396 148.478 200.574 148.623C200.745 148.74 200.92 148.871 201.097 149.016C201.285 149.219 201.479 149.45 201.678 149.711C201.877 149.971 202.022 150.257 202.111 150.569C202.22 150.667 202.328 150.766 202.437 150.865C202.545 150.964 202.671 151.074 202.814 151.196C202.836 151.311 202.858 151.426 202.88 151.542C202.925 151.622 202.962 151.735 202.989 151.879C203.069 151.983 203.169 152.113 203.288 152.27C203.402 152.397 203.502 152.527 203.587 152.66C203.632 152.741 203.666 152.839 203.688 152.955C203.863 153.399 203.994 153.852 204.083 154.313C204.165 154.745 204.254 155.206 204.347 155.696ZM198.258 156.414C198.156 156.195 198.06 156.004 197.969 155.842C197.907 155.675 197.831 155.51 197.74 155.348C197.548 154.967 197.289 154.554 196.965 154.108C196.84 153.923 196.668 153.807 196.45 153.759C196.353 153.718 196.261 153.705 196.174 153.722C196.082 153.71 195.99 153.697 195.898 153.685C195.726 153.718 195.553 153.751 195.38 153.785C195.207 153.818 195.04 153.88 194.878 153.97C194.682 154.038 194.474 154.048 194.256 154C194.038 153.952 193.816 153.965 193.591 154.037C193.406 154.163 193.207 154.29 192.993 154.421C192.773 154.523 192.583 154.619 192.421 154.71C191.945 155.189 191.588 155.661 191.348 156.125C191.137 156.583 191.058 157.106 191.111 157.693C191.258 157.994 191.408 158.309 191.561 158.638C191.737 158.933 191.982 159.199 192.296 159.438C192.399 159.507 192.465 159.614 192.492 159.758C192.599 160.007 192.751 160.172 192.945 160.254C193.14 160.336 193.361 160.398 193.608 160.441C193.884 160.477 194.163 160.529 194.444 160.594C194.749 160.625 195.051 160.642 195.35 160.645C195.58 160.601 195.811 160.556 196.041 160.512C196.295 160.434 196.52 160.361 196.716 160.293C196.833 160.122 196.957 159.993 197.09 159.908C197.247 159.789 197.386 159.657 197.508 159.515C197.664 159.395 197.772 159.255 197.83 159.094C197.913 158.899 197.995 158.704 198.077 158.51L198.258 156.414Z" fill="#57A3FF"/>
</svg>
