<svg width="405" height="1277" viewBox="0 0 405 1277" fill="none" xmlns="http://www.w3.org/2000/svg">
<g filter="url(#filter0_d_1101_428)">
<path d="M276.672 32.327C280.469 33.0122 282.896 36.8964 282.017 40.8819L278.845 55.2702C277.48 61.4637 269.758 63.062 266.488 57.8281L255.951 40.966C252.681 35.732 257.062 28.7883 262.963 29.8532L276.672 32.327Z" fill="#68A7FF"/>
<path d="M277.175 73.3212C277.175 129.722 277.175 129.722 208.666 129.722C140.156 129.722 140.156 129.722 140.156 73.3212C140.156 42.1716 170.829 16.9199 208.666 16.9199C246.503 16.9199 277.175 42.1716 277.175 73.3212Z" fill="#FFDC67"/>
<path d="M253.048 106.965C253.048 133.43 253.048 133.43 208.841 133.43C164.634 133.43 164.633 133.43 164.633 106.965C164.633 92.3489 184.426 80.5 208.841 80.5C233.256 80.5 253.048 92.3489 253.048 106.965Z" fill="#FFFEE2"/>
<ellipse cx="182.049" cy="52.0623" rx="4.39758" ry="6.94169" fill="#313131"/>
<ellipse cx="236.208" cy="52.0623" rx="4.39758" ry="6.94169" fill="#313131"/>
<path d="M196.789 62.2664L199.205 64.0686C201.771 65.9836 204.915 67.0512 208.149 67.106C209.054 67.1213 209.957 67.0571 210.846 66.9142L211.065 66.879C214.26 66.3655 217.219 64.9933 219.594 62.9233L220.227 62.3717" stroke="#313131" stroke-width="2.8" stroke-linecap="round"/>
<circle cx="174.083" cy="73.1497" r="9.45" fill="#FF5F4E"/>
<circle cx="243.383" cy="73.1497" r="9.45" fill="#FF5F4E"/>
<g filter="url(#filter1_d_1101_428)">
<path d="M176.417 116.28C176.417 135.1 176.417 135.1 154.208 135.1C132 135.1 132 135.1 132 116.28C132 105.886 141.943 97.46 154.208 97.46C166.474 97.46 176.417 105.886 176.417 116.28Z" fill="#FFDC67"/>
</g>
<g filter="url(#filter2_d_1101_428)">
<path d="M286.433 115.608C286.433 133.755 286.433 133.755 264.567 133.755C242.7 133.755 242.7 133.755 242.7 115.608C242.7 105.585 252.49 97.46 264.567 97.46C276.643 97.46 286.433 105.585 286.433 115.608Z" fill="#FFDC67"/>
</g>
<path d="M204.038 4.07884C206.683 1.74767 210.649 1.74766 213.294 4.07883L225.779 15.0813C230.618 19.3467 227.602 27.3329 221.15 27.3329H196.181C189.73 27.3329 186.713 19.3467 191.553 15.0813L204.038 4.07884Z" fill="#68A7FF"/>
</g>
<g filter="url(#filter3_d_1101_428)">
<path d="M394.34 121.535C394.34 120.789 393.735 120.184 392.989 120.184H19.8402C19.0938 120.184 18.4888 120.789 18.4888 121.535V209.04H394.34V121.535Z" fill="url(#paint0_linear_1101_428)"/>
<path d="M394.34 121.535C394.34 120.789 393.735 120.184 392.989 120.184H19.8402C19.0938 120.184 18.4888 120.789 18.4888 121.535V209.04H394.34V121.535Z" fill="url(#paint1_linear_1101_428)" fill-opacity="0.2"/>
<path d="M394.34 121.535C394.34 120.789 393.735 120.184 392.989 120.184H19.8402C19.0938 120.184 18.4888 120.789 18.4888 121.535V209.04H394.34V121.535Z" fill="url(#paint2_linear_1101_428)" fill-opacity="0.2"/>
<path d="M18.4888 1135.17L18.4887 1170.56L18.4888 1210.15H394.34V1135.17H18.4888Z" fill="url(#paint3_linear_1101_428)"/>
<path d="M18.4888 1135.17L18.4887 1170.56L18.4888 1210.15H394.34V1135.17H18.4888Z" fill="url(#paint4_linear_1101_428)" fill-opacity="0.2"/>
<path d="M18.4888 1135.17L18.4887 1170.56L18.4888 1210.15H394.34V1135.17H18.4888Z" fill="url(#paint5_linear_1101_428)" fill-opacity="0.2"/>
<path d="M18.4888 209.04V121.535C18.4888 120.789 19.0938 120.184 19.8402 120.184H392.989C393.735 120.184 394.34 120.789 394.34 121.535V209.04M18.4888 209.04H394.34M18.4888 209.04L18.4888 1135.17M394.34 209.04V1135.17M18.4888 1135.17L18.4887 1170.56L18.4888 1210.15M18.4888 1135.17C23.2033 1135.17 271.021 1135.17 394.34 1135.17M18.4888 1135.17H394.34M394.34 1135.17V1210.15M18.4888 1210.15L18.4888 1232.09C18.4888 1232.83 19.0938 1233.44 19.8402 1233.44H392.989C393.735 1233.44 394.34 1232.83 394.34 1232.09V1210.15M18.4888 1210.15H394.34" stroke="url(#paint6_linear_1101_428)" stroke-width="8.72284"/>
<rect x="20.9873" y="1169.86" width="366.571" height="26.8424" fill="url(#paint7_linear_1101_428)" fill-opacity="0.9"/>
<path d="M17.061 486.16C17.061 486.16 63.3041 486.16 92.9346 486.16C97.4254 486.16 104.434 486.16 104.434 486.16H188.72M393.121 486.048H317.247H305.748H187.128" stroke="url(#paint8_linear_1101_428)" stroke-width="3.07142"/>
<path d="M104.715 487.59V713.169L91.6182 486.733L90.7763 470.632C89.9266 462.691 82.1645 457.901 75.0486 459.843L40.9429 469.148L18.1837 474.971" stroke="url(#paint9_linear_1101_428)" stroke-width="3.07142"/>
<path d="M306.589 487.393V712.972L319.686 486.535L320.528 470.435C321.378 462.494 329.14 457.704 336.256 459.645L370.361 468.95L393.121 474.774" stroke="url(#paint10_linear_1101_428)" stroke-width="3.07142"/>
<path d="M17.061 720.477C17.061 720.477 63.3041 720.477 92.9346 720.477C97.4254 720.477 104.434 720.477 104.434 720.477H188.72M393.121 720.365H317.247H305.748H187.128" stroke="url(#paint11_linear_1101_428)" stroke-width="3.07142"/>
<path d="M104.715 721.906V947.485L91.6182 721.049L90.7763 704.948C89.9266 697.007 82.1645 692.217 75.0486 694.158L40.9429 703.464L18.1837 709.287" stroke="url(#paint12_linear_1101_428)" stroke-width="3.07142"/>
<path d="M306.589 721.708V947.288L319.686 720.851L320.528 704.75C321.378 696.809 329.14 692.019 336.256 693.961L370.361 703.266L393.121 709.089" stroke="url(#paint13_linear_1101_428)" stroke-width="3.07142"/>
<path d="M17.061 956.846C17.061 956.846 63.3041 956.846 92.9346 956.846C97.4254 956.846 104.434 956.846 104.434 956.846H188.72M393.121 956.733H317.247H305.748H187.128" stroke="url(#paint14_linear_1101_428)" stroke-width="3.07142"/>
<path d="M104.715 958.278V1183.86L91.6182 957.421L90.7763 941.32C89.9266 933.379 82.1645 928.589 75.0486 930.531L40.9429 939.836L18.1837 945.659" stroke="url(#paint15_linear_1101_428)" stroke-width="3.07142"/>
<path d="M306.589 958.079V1183.66L319.686 957.222L320.528 941.121C321.378 933.18 329.14 928.39 336.256 930.332L370.361 939.637L393.121 945.46" stroke="url(#paint16_linear_1101_428)" stroke-width="3.07142"/>
<path d="M15.9879 937.464L35.2056 921.735C38.1035 919.363 39.6797 915.936 39.5013 912.396L16.6489 458.892M395.012 937.464L375.794 921.735C372.896 919.363 371.32 915.936 371.499 912.396L394.351 458.892" stroke="#BABABA" stroke-width="4.54571"/>
<g filter="url(#filter4_d_1101_428)">
<rect x="23.7275" y="1126.31" width="366.705" height="88.9857" fill="url(#paint17_linear_1101_428)"/>
</g>
<g filter="url(#filter5_d_1101_428)">
<rect x="21.0957" y="112.161" width="366.705" height="103.874" fill="#D9D9D9"/>
</g>
<g filter="url(#filter6_d_1101_428)">
<path d="M15 115.054C15 112.815 16.8152 111 19.0543 111H24.019C24.494 111 24.879 111.385 24.879 111.86V1261.42C24.879 1261.96 24.439 1262.4 23.8961 1262.4H17.58C16.1551 1262.4 15 1261.24 15 1259.82V115.054Z" fill="url(#paint18_linear_1101_428)"/>
</g>
<g filter="url(#filter7_d_1101_428)">
<path d="M396 116.82C396 114.581 394.185 112.766 391.946 112.766H386.981C386.506 112.766 386.121 113.151 386.121 113.626V1261.42C386.121 1261.96 386.561 1262.4 387.104 1262.4H393.42C394.845 1262.4 396 1261.24 396 1259.82V116.82Z" fill="url(#paint19_linear_1101_428)"/>
</g>
<path d="M32.1236 142.936C32.1236 138.953 37.3167 135.723 43.7227 135.723H366.289C372.695 135.723 377.889 138.953 377.889 142.936V186.787C377.889 190.77 372.695 194 366.289 194H43.7227C37.3167 194 32.1236 190.77 32.1236 186.787V142.936Z" fill="#697ABE"/>
<g filter="url(#filter8_d_1101_428)">
<path d="M231.812 163.692C231.792 163.793 231.782 163.905 231.782 164.026C231.782 164.148 231.772 164.259 231.751 164.361C231.711 164.604 231.66 164.847 231.599 165.09C231.539 165.313 231.437 165.536 231.295 165.759C231.093 166.043 230.91 166.347 230.748 166.671C230.606 166.975 230.454 167.299 230.292 167.644C230.15 167.766 230.008 167.887 229.867 168.009C229.745 168.11 229.623 168.222 229.502 168.343C229.299 168.546 229.238 168.789 229.319 169.073C229.34 169.093 229.36 169.134 229.38 169.194C229.421 169.255 229.451 169.306 229.471 169.346C229.573 169.508 229.674 169.66 229.775 169.802C229.877 169.964 229.968 170.127 230.049 170.289C230.15 170.451 230.221 170.613 230.262 170.775C230.282 170.816 230.302 170.856 230.323 170.897C230.343 170.937 230.363 170.978 230.383 171.018C230.505 171.403 230.596 171.657 230.657 171.778C230.718 171.9 230.88 172.103 231.143 172.386C231.022 172.548 230.91 172.721 230.809 172.903C230.708 173.086 230.606 173.268 230.505 173.45C230.343 173.775 230.14 174.079 229.897 174.362C229.654 174.646 229.39 174.91 229.107 175.153C228.985 175.214 228.863 175.214 228.742 175.153C228.64 175.112 228.529 175.092 228.407 175.092C228.326 175.092 228.235 175.092 228.134 175.092C228.053 175.112 227.962 175.112 227.86 175.092C227.779 175.072 227.708 175.041 227.647 175.001C227.587 174.96 227.536 174.93 227.495 174.91C227.374 174.747 227.242 174.595 227.1 174.454C226.958 174.312 226.837 174.139 226.735 173.937C226.675 173.754 226.543 173.602 226.34 173.481C226.219 173.379 226.117 173.268 226.036 173.146C225.975 173.025 225.894 172.913 225.793 172.812C225.671 172.751 225.499 172.741 225.276 172.782C225.074 172.984 224.83 173.167 224.547 173.329C224.283 173.471 224.06 173.653 223.878 173.876C223.675 173.815 223.493 173.764 223.331 173.724C223.168 173.683 222.996 173.653 222.814 173.633C222.753 173.653 222.682 173.683 222.601 173.724C222.52 173.744 222.429 173.775 222.327 173.815C222.246 173.775 222.165 173.744 222.084 173.724C222.023 173.683 221.952 173.653 221.871 173.633C221.75 173.653 221.628 173.673 221.507 173.694C221.385 173.714 221.253 173.734 221.111 173.754C221.01 173.775 220.899 173.785 220.777 173.785C220.655 173.785 220.524 173.785 220.382 173.785C220.301 173.744 220.21 173.704 220.108 173.663C220.027 173.623 219.946 173.572 219.865 173.511C219.784 173.471 219.683 173.43 219.561 173.39C219.46 173.349 219.348 173.319 219.227 173.298C219.146 173.238 219.044 173.156 218.923 173.055C218.821 172.954 218.72 172.852 218.619 172.751C218.396 172.528 218.152 172.386 217.889 172.326C217.869 172.326 217.798 172.305 217.676 172.265C217.575 172.163 217.474 172.062 217.372 171.961C217.291 171.839 217.17 171.758 217.007 171.718C216.967 171.718 216.926 171.707 216.886 171.687C216.845 171.647 216.805 171.616 216.764 171.596C216.724 171.555 216.673 171.515 216.612 171.474C216.572 171.414 216.531 171.373 216.491 171.353C216.43 171.049 216.369 170.816 216.308 170.654C216.247 170.512 216.166 170.431 216.065 170.41C215.964 170.37 215.862 170.309 215.761 170.228C215.68 170.127 215.589 170.015 215.487 169.894C215.386 169.752 215.264 169.64 215.123 169.559C215.001 169.498 214.91 169.407 214.849 169.286C214.808 169.164 214.768 169.042 214.727 168.921C214.667 168.738 214.596 168.546 214.515 168.343C214.454 168.14 214.403 167.938 214.363 167.735C214.079 167.492 213.927 167.188 213.907 166.823C213.907 166.762 213.896 166.712 213.876 166.671C213.815 166.327 213.765 166.073 213.724 165.911C213.704 165.749 213.694 165.597 213.694 165.455C213.714 165.313 213.734 165.111 213.755 164.847L213.572 164.33C213.592 164.229 213.633 164.148 213.694 164.087C213.755 164.026 213.815 163.976 213.876 163.935C213.876 163.895 213.876 163.864 213.876 163.844C213.896 163.803 213.896 163.773 213.876 163.753C213.795 163.631 213.734 163.499 213.694 163.358C213.653 163.195 213.613 163.033 213.572 162.871C213.613 162.81 213.643 162.729 213.663 162.628C213.684 162.527 213.704 162.435 213.724 162.354C213.724 162.253 213.714 162.162 213.694 162.081C213.694 161.898 213.775 161.767 213.937 161.686C213.978 161.686 214.008 161.686 214.028 161.686C214.069 161.665 214.099 161.655 214.119 161.655C214.16 161.554 214.13 161.483 214.028 161.442C213.947 161.382 213.907 161.29 213.907 161.169C213.947 161.128 213.988 161.067 214.028 160.986C214.089 160.885 214.13 160.794 214.15 160.713V160.196C214.211 160.155 214.261 160.095 214.302 160.014C214.363 159.932 214.434 159.851 214.515 159.77C214.697 159.628 214.819 159.446 214.879 159.223C215.001 159 215.163 158.798 215.366 158.615C215.447 158.554 215.508 158.483 215.548 158.402C215.609 158.301 215.66 158.21 215.7 158.129C215.741 158.027 215.781 157.936 215.822 157.855C215.862 157.774 215.913 157.693 215.974 157.612C216.035 157.551 216.106 157.5 216.187 157.46C216.288 157.419 216.379 157.379 216.46 157.338C216.562 157.217 216.643 157.095 216.703 156.974C216.764 156.852 216.866 156.751 217.007 156.67C217.088 156.629 217.139 156.578 217.159 156.518C217.2 156.436 217.251 156.355 217.311 156.274C217.474 156.214 217.605 156.102 217.707 155.94C217.808 155.778 217.919 155.636 218.041 155.514C218.082 155.454 218.122 155.403 218.163 155.362C218.203 155.322 218.234 155.291 218.254 155.271C218.416 155.19 218.568 155.139 218.71 155.119C218.872 155.099 219.034 155.089 219.196 155.089C219.257 155.048 219.328 155.008 219.409 154.967C219.51 154.906 219.602 154.856 219.683 154.815C219.906 154.714 220.068 154.653 220.169 154.633C220.27 154.612 220.493 154.623 220.838 154.663C220.878 154.643 220.929 154.623 220.99 154.602C221.051 154.582 221.111 154.562 221.172 154.542C221.233 154.501 221.284 154.481 221.324 154.481C221.365 154.46 221.426 154.44 221.507 154.42H222.236C222.297 154.42 222.358 154.43 222.419 154.45C222.479 154.45 222.54 154.45 222.601 154.45C222.702 154.491 222.804 154.521 222.905 154.542C223.006 154.562 223.098 154.582 223.179 154.602C223.28 154.623 223.371 154.643 223.452 154.663C223.554 154.663 223.655 154.673 223.756 154.694C223.817 154.694 223.858 154.683 223.878 154.663C223.898 154.663 223.939 154.633 223.999 154.572C224.04 154.572 224.06 154.572 224.06 154.572C224.08 154.552 224.101 154.542 224.121 154.542C224.243 154.562 224.364 154.552 224.486 154.511C224.607 154.471 224.729 154.45 224.851 154.45C224.932 154.511 224.992 154.562 225.033 154.602C225.094 154.643 225.134 154.694 225.155 154.754C225.398 154.998 225.682 155.16 226.006 155.241C226.107 155.261 226.188 155.312 226.249 155.393C226.31 155.474 226.391 155.535 226.492 155.575C226.634 155.636 226.776 155.697 226.918 155.758C227.08 155.798 227.232 155.839 227.374 155.879C227.394 155.92 227.404 155.95 227.404 155.97C227.424 155.991 227.445 156.021 227.465 156.062C227.506 156.102 227.546 156.163 227.587 156.244C227.668 156.284 227.759 156.335 227.86 156.396C227.982 156.436 228.083 156.487 228.164 156.548C228.266 156.629 228.367 156.69 228.468 156.73C228.57 156.771 228.671 156.822 228.772 156.882C228.894 157.004 229.015 157.126 229.137 157.247C229.279 157.369 229.421 157.48 229.563 157.582C229.583 157.602 229.603 157.622 229.623 157.642C229.664 157.642 229.694 157.663 229.715 157.703C229.816 157.825 229.927 157.946 230.049 158.068C230.171 158.169 230.292 158.271 230.414 158.372C230.535 158.494 230.627 158.646 230.687 158.828C230.768 158.99 230.789 159.183 230.748 159.406C230.829 159.446 230.89 159.497 230.931 159.558C230.991 159.598 231.042 159.639 231.083 159.679C231.245 159.902 231.336 160.145 231.356 160.409C231.397 160.652 231.427 160.915 231.447 161.199C231.508 161.28 231.559 161.371 231.599 161.473C231.66 161.574 231.731 161.675 231.812 161.777V161.99C231.792 162.071 231.772 162.162 231.751 162.263C231.731 162.344 231.731 162.435 231.751 162.537C231.792 162.638 231.792 162.729 231.751 162.81C231.67 162.972 231.65 163.124 231.691 163.266C231.751 163.408 231.792 163.55 231.812 163.692ZM227.556 163.631C227.435 163.206 227.343 162.76 227.283 162.294C227.242 161.868 227.141 161.463 226.979 161.078C226.837 160.692 226.604 160.338 226.279 160.014C226.239 159.973 226.198 159.922 226.158 159.862C226.117 159.801 226.077 159.76 226.036 159.74C225.894 159.699 225.742 159.659 225.58 159.618C225.418 159.578 225.266 159.517 225.124 159.436C225.084 159.395 225.023 159.385 224.942 159.406C224.861 159.406 224.8 159.406 224.759 159.406C224.536 159.223 224.384 159.122 224.303 159.102C224.222 159.061 224.05 159.041 223.787 159.041C223.746 159.041 223.695 159.041 223.635 159.041C223.594 159.02 223.543 159.02 223.483 159.041C223.3 159.041 223.098 159.041 222.875 159.041C222.672 159.02 222.459 159.041 222.236 159.102C221.952 159.243 221.75 159.355 221.628 159.436C221.527 159.497 221.415 159.537 221.294 159.558C221.192 159.578 221 159.608 220.716 159.649C220.696 159.669 220.666 159.679 220.625 159.679C220.605 159.679 220.584 159.699 220.564 159.74C220.382 159.943 220.199 160.135 220.017 160.318C219.855 160.5 219.662 160.672 219.439 160.834C219.277 160.936 219.125 161.098 218.983 161.321C218.963 161.523 218.943 161.736 218.923 161.959C218.902 162.182 218.842 162.385 218.74 162.567C218.72 162.587 218.71 162.648 218.71 162.75C218.69 162.912 218.669 163.094 218.649 163.297C218.629 163.479 218.608 163.662 218.588 163.844C218.669 164.006 218.679 164.178 218.619 164.361C218.558 164.543 218.517 164.715 218.497 164.878C218.497 164.959 218.497 165.06 218.497 165.182C218.497 165.283 218.507 165.384 218.527 165.486C218.527 165.567 218.527 165.658 218.527 165.759C218.527 165.84 218.538 165.931 218.558 166.033C218.578 166.154 218.598 166.276 218.619 166.398C218.659 166.499 218.69 166.6 218.71 166.702C218.73 166.803 218.74 166.904 218.74 167.006C218.74 167.087 218.75 167.178 218.771 167.279C218.831 167.32 218.892 167.35 218.953 167.37C219.014 167.391 219.085 167.421 219.166 167.462C219.206 167.563 219.257 167.674 219.318 167.796C219.399 167.897 219.45 168.019 219.47 168.161C219.45 168.242 219.439 168.323 219.439 168.404C219.439 168.465 219.439 168.536 219.439 168.617C219.48 168.698 219.531 168.769 219.591 168.83C219.652 168.89 219.703 168.941 219.743 168.982C219.885 169.042 219.987 169.123 220.047 169.225C220.128 169.265 220.199 169.316 220.26 169.377C220.321 169.438 220.372 169.488 220.412 169.529C220.554 169.488 220.686 169.488 220.807 169.529C220.929 169.549 221.061 169.549 221.203 169.529C221.365 169.508 221.486 169.458 221.567 169.377C221.648 169.275 221.75 169.194 221.871 169.134C221.973 169.174 222.054 169.204 222.115 169.225C222.196 169.245 222.267 169.265 222.327 169.286C222.449 169.265 222.56 169.245 222.662 169.225C222.783 169.184 222.875 169.103 222.935 168.982C222.915 168.9 222.864 168.819 222.783 168.738C222.601 168.475 222.368 168.171 222.084 167.826C221.821 167.178 221.628 166.732 221.507 166.489C221.385 166.225 221.223 165.931 221.02 165.607C221.04 165.567 221.061 165.526 221.081 165.486C221.101 165.425 221.122 165.384 221.142 165.364C221.324 165.161 221.507 164.979 221.689 164.817C221.871 164.634 222.054 164.442 222.236 164.239C222.338 164.138 222.439 164.047 222.54 163.966C222.662 163.864 222.783 163.773 222.905 163.692C223.087 163.55 223.27 163.428 223.452 163.327C223.655 163.206 223.858 163.084 224.06 162.962C224.08 162.942 224.111 162.932 224.151 162.932C224.314 162.952 224.445 163.033 224.547 163.175C224.648 163.297 224.759 163.408 224.881 163.51C224.982 163.712 225.063 163.915 225.124 164.118C225.205 164.32 225.296 164.503 225.398 164.665C225.6 164.969 225.732 165.263 225.793 165.546C225.813 165.567 225.834 165.597 225.854 165.638C225.894 165.658 225.925 165.688 225.945 165.729C226.046 165.749 226.148 165.769 226.249 165.79C226.35 165.79 226.462 165.749 226.583 165.668C226.644 165.607 226.695 165.536 226.735 165.455C226.796 165.374 226.847 165.313 226.887 165.273C226.989 165.192 227.07 165.182 227.131 165.242C227.212 165.303 227.293 165.303 227.374 165.242C227.354 165.161 227.333 165.09 227.313 165.03C227.293 164.969 227.272 164.918 227.252 164.878C227.313 164.655 227.364 164.442 227.404 164.239C227.445 164.036 227.495 163.834 227.556 163.631Z" fill="white"/>
</g>
<g filter="url(#filter9_d_1101_428)">
<path d="M211.921 172.417C211.961 172.518 211.931 172.66 211.83 172.842C211.668 172.862 211.495 172.862 211.313 172.842C211.151 172.802 210.989 172.761 210.826 172.721C210.563 172.822 210.381 172.893 210.279 172.933C210.198 172.974 210.117 172.994 210.036 172.994C209.955 172.974 209.793 172.964 209.55 172.964C209.489 172.984 209.428 173.014 209.367 173.055C209.327 173.096 209.266 173.136 209.185 173.177C209.185 173.177 209.175 173.187 209.154 173.207C209.154 173.207 209.144 173.207 209.124 173.207C208.921 173.207 208.719 173.217 208.516 173.237C208.313 173.237 208.121 173.237 207.938 173.237C207.817 173.116 207.736 173.025 207.695 172.964C207.675 172.903 207.634 172.761 207.574 172.538C207.533 172.417 207.442 172.275 207.3 172.113C207.097 171.89 206.885 171.586 206.662 171.201C206.459 170.816 206.297 170.491 206.175 170.228L206.023 170.076C205.942 170.076 205.881 170.096 205.841 170.137C205.517 170.339 205.213 170.37 204.929 170.228C204.746 170.187 204.564 170.167 204.382 170.167C204.22 170.167 204.047 170.167 203.865 170.167C203.723 170.147 203.581 170.147 203.439 170.167C203.297 170.187 203.145 170.197 202.983 170.197C202.862 170.197 202.73 170.197 202.588 170.197C202.466 170.177 202.345 170.167 202.223 170.167C202.061 170.187 201.889 170.218 201.706 170.258C201.544 170.299 201.382 170.36 201.22 170.441C201.078 170.522 200.926 170.572 200.764 170.593C200.622 170.613 200.47 170.633 200.308 170.653C200.085 170.653 199.862 170.684 199.639 170.745C199.437 170.785 199.224 170.836 199.001 170.897C198.94 170.917 198.869 170.947 198.788 170.988C198.727 171.008 198.677 171.059 198.636 171.14C198.636 171.241 198.626 171.353 198.606 171.474C198.606 171.576 198.606 171.687 198.606 171.809C198.545 171.991 198.504 172.184 198.484 172.386C198.403 172.67 198.271 172.913 198.089 173.116C197.927 173.319 197.754 173.521 197.572 173.724C197.491 173.724 197.41 173.724 197.329 173.724C197.268 173.704 197.197 173.693 197.116 173.693C197.055 173.693 196.984 173.704 196.903 173.724C196.842 173.724 196.772 173.734 196.69 173.754C196.468 173.774 196.234 173.744 195.991 173.663C195.971 173.643 195.951 173.643 195.93 173.663C195.93 173.663 195.91 173.663 195.87 173.663H195.718L195.657 173.633C195.637 173.592 195.606 173.582 195.566 173.602C195.545 173.602 195.485 173.592 195.383 173.572C195.262 173.531 195.15 173.511 195.049 173.511C194.968 173.511 194.897 173.511 194.836 173.511C194.775 173.511 194.694 173.501 194.593 173.481C194.552 173.46 194.492 173.45 194.41 173.45C194.329 173.43 194.238 173.4 194.137 173.359C194.076 173.339 194.025 173.339 193.985 173.359C193.965 173.359 193.924 173.349 193.863 173.329L193.772 173.298H193.711L193.65 173.268C193.691 172.984 193.732 172.71 193.772 172.447C193.833 172.163 193.934 171.89 194.076 171.626C194.117 171.545 194.147 171.474 194.167 171.413C194.188 171.353 194.198 171.282 194.198 171.201L194.289 170.684C194.35 170.582 194.41 170.471 194.471 170.349C194.532 170.228 194.593 170.126 194.654 170.045C194.694 169.924 194.694 169.802 194.654 169.681C194.633 169.559 194.664 169.448 194.745 169.346C194.806 169.245 194.836 169.144 194.836 169.042C194.856 168.941 194.907 168.86 194.988 168.799C195.069 168.637 195.14 168.485 195.201 168.343C195.282 168.181 195.343 168.019 195.383 167.857C195.404 167.836 195.414 167.796 195.414 167.735C195.474 167.309 195.647 166.945 195.93 166.641C195.91 166.56 195.9 166.489 195.9 166.428C195.9 166.347 195.9 166.286 195.9 166.245C195.941 166.124 196.012 166.012 196.113 165.911C196.214 165.81 196.305 165.718 196.386 165.637C196.488 165.516 196.579 165.394 196.66 165.273C196.741 165.151 196.792 165.019 196.812 164.877C196.893 164.573 197.005 164.29 197.146 164.026C197.288 163.763 197.461 163.509 197.663 163.266C197.785 163.104 197.886 162.932 197.967 162.749C198.069 162.547 198.17 162.344 198.271 162.141C198.352 161.979 198.423 161.807 198.484 161.625C198.565 161.442 198.616 161.26 198.636 161.077C198.798 160.875 198.91 160.723 198.97 160.621C199.031 160.5 199.082 160.368 199.122 160.226C199.183 160.064 199.254 159.821 199.335 159.497C199.376 159.456 199.426 159.426 199.487 159.405C199.568 159.365 199.619 159.304 199.639 159.223C199.639 159.142 199.69 159.081 199.791 159.041C199.953 158.939 200.065 158.797 200.126 158.615C200.186 158.453 200.268 158.311 200.369 158.189C200.49 158.048 200.602 157.916 200.703 157.794C200.805 157.693 200.865 157.592 200.886 157.49C200.987 157.206 201.119 156.953 201.281 156.73C201.463 156.487 201.615 156.244 201.737 156.001C201.838 155.92 201.929 155.879 202.01 155.879C202.092 155.859 202.173 155.849 202.254 155.849H202.345C202.548 155.93 202.76 155.99 202.983 156.031C203.125 156.051 203.257 156.061 203.378 156.061C203.5 156.061 203.601 156.061 203.682 156.061C203.743 156.061 203.804 156.061 203.865 156.061C203.926 156.061 203.986 156.072 204.047 156.092C204.311 156.173 204.584 156.213 204.868 156.213C205.152 156.213 205.425 156.224 205.689 156.244C206.033 156.487 206.327 156.72 206.57 156.943C206.814 157.166 207.006 157.551 207.148 158.098C207.168 158.118 207.199 158.139 207.239 158.159C207.28 158.179 207.31 158.21 207.33 158.25C207.371 158.27 207.412 158.291 207.452 158.311C207.493 158.331 207.533 158.362 207.574 158.402C207.614 158.483 207.645 158.574 207.665 158.676C207.705 158.757 207.746 158.848 207.786 158.949C207.827 159.03 207.878 159.122 207.938 159.223C207.999 159.304 208.07 159.395 208.151 159.497C208.192 159.699 208.253 159.902 208.334 160.105C208.435 160.307 208.476 160.54 208.455 160.804L208.668 161.108C208.668 161.209 208.668 161.321 208.668 161.442C208.688 161.544 208.698 161.655 208.698 161.777C208.8 161.837 208.85 161.918 208.85 162.02C208.871 162.121 208.891 162.233 208.911 162.354C208.972 162.435 209.033 162.526 209.094 162.628C209.154 162.709 209.215 162.79 209.276 162.871C209.317 163.013 209.357 163.155 209.398 163.297C209.438 163.418 209.469 163.54 209.489 163.661C209.469 163.742 209.448 163.824 209.428 163.905C209.428 163.986 209.418 164.067 209.398 164.148C209.438 164.35 209.509 164.533 209.61 164.695C209.732 164.837 209.844 164.989 209.945 165.151C210.046 165.536 210.137 165.931 210.218 166.337C210.32 166.722 210.391 167.117 210.431 167.522C210.654 167.806 210.786 168.11 210.826 168.434C210.887 168.758 210.958 169.093 211.039 169.437C211.08 169.579 211.1 169.721 211.1 169.863C211.1 169.985 211.11 170.116 211.13 170.258C211.171 170.38 211.262 170.542 211.404 170.745C211.546 170.927 211.657 171.069 211.738 171.17C211.738 171.373 211.749 171.586 211.769 171.809C211.789 172.011 211.84 172.214 211.921 172.417ZM204.594 166.002C204.574 165.86 204.524 165.739 204.442 165.637C204.361 165.516 204.341 165.384 204.382 165.242C204.301 165.1 204.26 164.928 204.26 164.725C204.26 164.523 204.28 164.411 204.321 164.391C204.301 164.35 204.29 164.29 204.29 164.209C204.209 164.107 204.128 164.016 204.047 163.935C203.986 163.854 203.926 163.763 203.865 163.661C203.865 163.682 203.824 163.651 203.743 163.57C203.642 163.55 203.561 163.489 203.5 163.388C203.48 163.327 203.449 163.266 203.409 163.205C203.389 163.145 203.348 163.104 203.287 163.084C203.206 163.084 203.145 163.114 203.105 163.175C203.064 163.216 203.004 163.256 202.922 163.297C202.841 163.317 202.76 163.337 202.679 163.357C202.618 163.378 202.548 163.398 202.466 163.418C202.325 163.54 202.233 163.702 202.193 163.905V164.269C202.112 164.411 202.021 164.533 201.919 164.634C201.838 164.736 201.777 164.847 201.737 164.969C201.676 165.252 201.585 165.506 201.463 165.729C201.463 165.87 201.433 166.002 201.372 166.124C201.311 166.225 201.261 166.337 201.22 166.458C201.2 166.478 201.19 166.539 201.19 166.641C201.19 166.762 201.261 166.823 201.402 166.823C201.484 166.823 201.565 166.823 201.646 166.823C201.727 166.803 201.808 166.793 201.889 166.793C201.929 166.813 201.98 166.843 202.041 166.884C202.102 166.904 202.152 166.924 202.193 166.945C202.497 166.904 202.781 166.843 203.044 166.762C203.328 166.681 203.601 166.59 203.865 166.489C203.986 166.387 204.118 166.316 204.26 166.276C204.402 166.235 204.513 166.144 204.594 166.002Z" fill="white"/>
</g>
<g filter="url(#filter10_d_1101_428)">
<path d="M194.23 158.767C194.23 158.929 194.159 159.03 194.018 159.071C193.774 159.091 193.541 159.172 193.318 159.314C193.116 159.436 192.903 159.527 192.68 159.588C192.417 159.567 192.163 159.578 191.92 159.618C191.677 159.659 191.413 159.649 191.13 159.588C191.089 159.628 191.038 159.669 190.978 159.709C190.917 159.75 190.856 159.79 190.795 159.831C190.714 159.831 190.623 159.841 190.522 159.861C190.42 159.882 190.319 159.892 190.218 159.892H189.458C189.295 159.892 189.133 159.902 188.971 159.922C188.809 159.922 188.647 159.912 188.485 159.892C188.302 159.892 188.14 159.932 187.998 160.013C187.857 160.074 187.705 160.105 187.542 160.105C187.461 160.105 187.39 160.115 187.33 160.135C187.269 160.135 187.208 160.145 187.147 160.165C187.005 160.125 186.863 160.094 186.722 160.074C186.6 160.034 186.468 160.084 186.326 160.226C186.225 160.571 186.134 160.925 186.053 161.29C185.992 161.655 185.941 162.01 185.901 162.354C185.84 162.719 185.84 163.063 185.901 163.388C185.921 163.428 185.931 163.469 185.931 163.509C185.951 163.55 185.972 163.59 185.992 163.631H186.904C187.046 163.692 187.188 163.763 187.33 163.844C187.492 163.925 187.654 164.016 187.816 164.117C187.857 164.138 187.907 164.158 187.968 164.178C188.049 164.178 188.13 164.188 188.211 164.209C188.272 164.229 188.343 164.249 188.424 164.269C188.505 164.29 188.586 164.32 188.667 164.361C188.809 164.361 188.941 164.32 189.062 164.239C189.184 164.158 189.316 164.107 189.458 164.087H189.61C189.711 164.087 189.802 164.097 189.883 164.117C189.985 164.138 190.076 164.138 190.157 164.117C190.42 164.057 190.684 164.057 190.947 164.117C191.211 164.158 191.464 164.178 191.707 164.178C191.869 164.178 192.021 164.209 192.163 164.269C192.325 164.33 192.477 164.401 192.619 164.482C192.7 165.171 192.731 165.87 192.71 166.58C192.71 167.269 192.7 167.958 192.68 168.647C192.68 168.728 192.65 168.779 192.589 168.799C192.528 168.819 192.467 168.819 192.406 168.799C192.366 168.779 192.315 168.758 192.254 168.738C192.214 168.718 192.153 168.698 192.072 168.677H190.309C190.126 168.657 189.954 168.657 189.792 168.677C189.65 168.698 189.498 168.698 189.336 168.677C189.174 168.657 189.012 168.647 188.85 168.647C188.687 168.627 188.515 168.606 188.333 168.586C188.191 168.566 188.039 168.556 187.877 168.556C187.715 168.556 187.542 168.546 187.36 168.525C187.259 168.525 187.147 168.505 187.026 168.465C186.924 168.424 186.823 168.394 186.722 168.373C186.58 168.394 186.468 168.444 186.387 168.525C186.326 168.606 186.245 168.687 186.144 168.769C186.124 168.809 186.093 168.87 186.053 168.951C186.033 169.012 186.002 169.073 185.962 169.133C185.982 169.194 185.992 169.265 185.992 169.346C186.093 169.468 186.154 169.61 186.174 169.772C186.215 169.914 186.235 170.066 186.235 170.228C186.235 170.471 186.245 170.714 186.266 170.957C186.306 171.201 186.306 171.444 186.266 171.687C186.266 171.89 186.266 172.092 186.266 172.295C186.286 172.498 186.337 172.69 186.418 172.873C186.438 172.913 186.448 172.984 186.448 173.085C186.326 173.369 186.164 173.643 185.962 173.906C185.759 174.048 185.556 174.139 185.354 174.18C185.171 174.241 184.969 174.322 184.746 174.423C184.665 174.403 184.573 174.393 184.472 174.393C184.391 174.393 184.3 174.393 184.198 174.393C184.117 174.413 183.986 174.484 183.803 174.605H182.77C182.607 174.605 182.435 174.605 182.253 174.605C182.091 174.626 181.908 174.636 181.706 174.636C181.503 174.636 181.361 174.545 181.28 174.362C181.26 174.281 181.25 174.19 181.25 174.089C181.25 173.987 181.239 173.876 181.219 173.754C181.158 173.653 181.108 173.562 181.067 173.481C181.027 173.379 180.986 173.288 180.946 173.207C180.925 173.085 180.905 172.964 180.885 172.842C180.885 172.721 180.875 172.609 180.854 172.508C180.915 172.325 180.966 172.153 181.006 171.991C181.067 171.829 181.128 171.657 181.189 171.474C181.108 171.008 181.057 170.532 181.037 170.045C181.017 169.539 181.047 169.032 181.128 168.525C181.128 168.424 181.108 168.313 181.067 168.191C181.047 168.069 181.067 167.938 181.128 167.796C181.25 167.573 181.25 167.36 181.128 167.157C181.108 167.015 181.087 166.874 181.067 166.732C181.067 166.59 181.087 166.448 181.128 166.306C181.169 166.245 181.189 166.174 181.189 166.093C181.189 166.012 181.189 165.931 181.189 165.85C181.209 165.749 181.199 165.637 181.158 165.516C181.118 165.394 181.108 165.273 181.128 165.151C181.169 165.05 181.189 164.948 181.189 164.847C181.209 164.725 181.219 164.604 181.219 164.482C181.219 164.34 181.229 164.198 181.25 164.057C181.27 163.915 181.3 163.783 181.341 163.661C181.321 163.519 181.3 163.398 181.28 163.297C181.28 163.175 181.27 163.053 181.25 162.932C181.351 162.709 181.402 162.486 181.402 162.263C181.422 162.02 181.432 161.777 181.432 161.533C181.432 161.371 181.432 161.209 181.432 161.047C181.432 160.885 181.442 160.733 181.462 160.591C181.483 160.429 181.493 160.277 181.493 160.135C181.513 159.973 181.523 159.821 181.523 159.679C181.523 159.638 181.513 159.598 181.493 159.557C181.493 159.497 181.503 159.446 181.523 159.405C181.604 159.243 181.635 159.091 181.614 158.949C181.614 158.787 181.625 158.635 181.645 158.493C181.645 158.372 181.645 158.25 181.645 158.129C181.665 157.987 181.685 157.855 181.706 157.733C181.685 157.632 181.655 157.521 181.614 157.399C181.574 157.277 181.543 157.176 181.523 157.095C181.543 156.994 181.564 156.892 181.584 156.791C181.625 156.69 181.645 156.588 181.645 156.487C181.665 156.244 181.827 156.082 182.131 156.001C182.496 155.879 182.881 155.788 183.286 155.727C183.428 155.727 183.54 155.686 183.621 155.605C183.702 155.565 183.793 155.545 183.894 155.545C184.016 155.565 184.138 155.565 184.259 155.545C184.401 155.524 184.543 155.504 184.685 155.484C184.847 155.382 185.029 155.332 185.232 155.332C185.617 155.311 186.002 155.261 186.387 155.18C186.772 155.099 187.157 155.048 187.542 155.028C187.745 155.007 187.938 154.997 188.12 154.997C188.302 154.977 188.495 154.997 188.698 155.058C188.86 155.078 189.022 155.099 189.184 155.119C189.346 155.119 189.508 155.119 189.67 155.119C189.751 155.119 189.833 155.119 189.914 155.119C189.995 155.099 190.076 155.089 190.157 155.089C190.441 155.068 190.653 155.068 190.795 155.089C190.937 155.089 191.079 155.099 191.221 155.119C191.363 155.139 191.575 155.18 191.859 155.241C192.001 155.261 192.133 155.281 192.254 155.301C192.396 155.301 192.528 155.322 192.65 155.362C192.873 155.463 193.116 155.534 193.379 155.575C193.481 155.595 193.562 155.636 193.622 155.697C193.683 155.737 193.734 155.778 193.774 155.818C193.855 156.142 193.855 156.457 193.774 156.761C193.835 156.943 193.896 157.156 193.957 157.399C193.957 157.419 193.947 157.47 193.926 157.551C193.926 157.612 193.926 157.662 193.926 157.703C193.926 157.804 193.937 157.865 193.957 157.885C193.997 157.966 194.038 158.058 194.078 158.159C194.119 158.24 194.149 158.321 194.17 158.402C194.21 158.463 194.23 158.524 194.23 158.585C194.23 158.645 194.23 158.706 194.23 158.767Z" fill="white"/>
</g>
</g>
<defs>
<filter id="filter0_d_1101_428" x="129.2" y="2.33057" width="160.033" height="138.369" filterUnits="userSpaceOnUse" color-interpolation-filters="sRGB">
<feFlood flood-opacity="0" result="BackgroundImageFix"/>
<feColorMatrix in="SourceAlpha" type="matrix" values="0 0 0 0 0 0 0 0 0 0 0 0 0 0 0 0 0 0 127 0" result="hardAlpha"/>
<feOffset dy="2.8"/>
<feGaussianBlur stdDeviation="1.4"/>
<feComposite in2="hardAlpha" operator="out"/>
<feColorMatrix type="matrix" values="0 0 0 0 0 0 0 0 0 0 0 0 0 0 0 0 0 0 0.25 0"/>
<feBlend mode="normal" in2="BackgroundImageFix" result="effect1_dropShadow_1101_428"/>
<feBlend mode="normal" in="SourceGraphic" in2="effect1_dropShadow_1101_428" result="shape"/>
</filter>
<filter id="filter1_d_1101_428" x="129.2" y="97.46" width="52.8166" height="46.0396" filterUnits="userSpaceOnUse" color-interpolation-filters="sRGB">
<feFlood flood-opacity="0" result="BackgroundImageFix"/>
<feColorMatrix in="SourceAlpha" type="matrix" values="0 0 0 0 0 0 0 0 0 0 0 0 0 0 0 0 0 0 127 0" result="hardAlpha"/>
<feOffset dx="1.4" dy="4.2"/>
<feGaussianBlur stdDeviation="2.1"/>
<feComposite in2="hardAlpha" operator="out"/>
<feColorMatrix type="matrix" values="0 0 0 0 0 0 0 0 0 0 0 0 0 0 0 0 0 0 0.25 0"/>
<feBlend mode="normal" in2="BackgroundImageFix" result="effect1_dropShadow_1101_428"/>
<feBlend mode="normal" in="SourceGraphic" in2="effect1_dropShadow_1101_428" result="shape"/>
</filter>
<filter id="filter2_d_1101_428" x="237.1" y="97.46" width="52.1333" height="44.6954" filterUnits="userSpaceOnUse" color-interpolation-filters="sRGB">
<feFlood flood-opacity="0" result="BackgroundImageFix"/>
<feColorMatrix in="SourceAlpha" type="matrix" values="0 0 0 0 0 0 0 0 0 0 0 0 0 0 0 0 0 0 127 0" result="hardAlpha"/>
<feOffset dx="-1.4" dy="4.2"/>
<feGaussianBlur stdDeviation="2.1"/>
<feComposite in2="hardAlpha" operator="out"/>
<feColorMatrix type="matrix" values="0 0 0 0 0 0 0 0 0 0 0 0 0 0 0 0 0 0 0.25 0"/>
<feBlend mode="normal" in2="BackgroundImageFix" result="effect1_dropShadow_1101_428"/>
<feBlend mode="normal" in="SourceGraphic" in2="effect1_dropShadow_1101_428" result="shape"/>
</filter>
<filter id="filter3_d_1101_428" x="0.127319" y="105" width="404.574" height="1171.4" filterUnits="userSpaceOnUse" color-interpolation-filters="sRGB">
<feFlood flood-opacity="0" result="BackgroundImageFix"/>
<feColorMatrix in="SourceAlpha" type="matrix" values="0 0 0 0 0 0 0 0 0 0 0 0 0 0 0 0 0 0 127 0" result="hardAlpha"/>
<feOffset dx="-4" dy="4"/>
<feGaussianBlur stdDeviation="5"/>
<feComposite in2="hardAlpha" operator="out"/>
<feColorMatrix type="matrix" values="0 0 0 0 0 0 0 0 0 0 0 0 0 0 0 0 0 0 0.3 0"/>
<feBlend mode="normal" in2="BackgroundImageFix" result="effect1_dropShadow_1101_428"/>
<feBlend mode="normal" in="SourceGraphic" in2="effect1_dropShadow_1101_428" result="shape"/>
</filter>
<filter id="filter4_d_1101_428" x="21.5387" y="1126.31" width="371.082" height="93.3634" filterUnits="userSpaceOnUse" color-interpolation-filters="sRGB">
<feFlood flood-opacity="0" result="BackgroundImageFix"/>
<feColorMatrix in="SourceAlpha" type="matrix" values="0 0 0 0 0 0 0 0 0 0 0 0 0 0 0 0 0 0 127 0" result="hardAlpha"/>
<feOffset dy="2.1888"/>
<feGaussianBlur stdDeviation="1.0944"/>
<feComposite in2="hardAlpha" operator="out"/>
<feColorMatrix type="matrix" values="0 0 0 0 0 0 0 0 0 0 0 0 0 0 0 0 0 0 0.25 0"/>
<feBlend mode="normal" in2="BackgroundImageFix" result="effect1_dropShadow_1101_428"/>
<feBlend mode="normal" in="SourceGraphic" in2="effect1_dropShadow_1101_428" result="shape"/>
</filter>
<filter id="filter5_d_1101_428" x="15.0765" y="108.33" width="378.743" height="115.912" filterUnits="userSpaceOnUse" color-interpolation-filters="sRGB">
<feFlood flood-opacity="0" result="BackgroundImageFix"/>
<feColorMatrix in="SourceAlpha" type="matrix" values="0 0 0 0 0 0 0 0 0 0 0 0 0 0 0 0 0 0 127 0" result="hardAlpha"/>
<feOffset dy="2.1888"/>
<feGaussianBlur stdDeviation="3.0096"/>
<feComposite in2="hardAlpha" operator="out"/>
<feColorMatrix type="matrix" values="0 0 0 0 0 0 0 0 0 0 0 0 0 0 0 0 0 0 0.25 0"/>
<feBlend mode="normal" in2="BackgroundImageFix" result="effect1_dropShadow_1101_428"/>
<feBlend mode="normal" in="SourceGraphic" in2="effect1_dropShadow_1101_428" result="shape"/>
</filter>
<filter id="filter6_d_1101_428" x="12.8112" y="111" width="14.2566" height="1155.78" filterUnits="userSpaceOnUse" color-interpolation-filters="sRGB">
<feFlood flood-opacity="0" result="BackgroundImageFix"/>
<feColorMatrix in="SourceAlpha" type="matrix" values="0 0 0 0 0 0 0 0 0 0 0 0 0 0 0 0 0 0 127 0" result="hardAlpha"/>
<feOffset dy="2.1888"/>
<feGaussianBlur stdDeviation="1.0944"/>
<feComposite in2="hardAlpha" operator="out"/>
<feColorMatrix type="matrix" values="0 0 0 0 0 0 0 0 0 0 0 0 0 0 0 0 0 0 0.25 0"/>
<feBlend mode="normal" in2="BackgroundImageFix" result="effect1_dropShadow_1101_428"/>
<feBlend mode="normal" in="SourceGraphic" in2="effect1_dropShadow_1101_428" result="shape"/>
</filter>
<filter id="filter7_d_1101_428" x="383.932" y="112.766" width="14.2566" height="1154.01" filterUnits="userSpaceOnUse" color-interpolation-filters="sRGB">
<feFlood flood-opacity="0" result="BackgroundImageFix"/>
<feColorMatrix in="SourceAlpha" type="matrix" values="0 0 0 0 0 0 0 0 0 0 0 0 0 0 0 0 0 0 127 0" result="hardAlpha"/>
<feOffset dy="2.1888"/>
<feGaussianBlur stdDeviation="1.0944"/>
<feComposite in2="hardAlpha" operator="out"/>
<feColorMatrix type="matrix" values="0 0 0 0 0 0 0 0 0 0 0 0 0 0 0 0 0 0 0.25 0"/>
<feBlend mode="normal" in2="BackgroundImageFix" result="effect1_dropShadow_1101_428"/>
<feBlend mode="normal" in="SourceGraphic" in2="effect1_dropShadow_1101_428" result="shape"/>
</filter>
<filter id="filter8_d_1101_428" x="210.532" y="154.42" width="24.32" height="26.8583" filterUnits="userSpaceOnUse" color-interpolation-filters="sRGB">
<feFlood flood-opacity="0" result="BackgroundImageFix"/>
<feColorMatrix in="SourceAlpha" type="matrix" values="0 0 0 0 0 0 0 0 0 0 0 0 0 0 0 0 0 0 127 0" result="hardAlpha"/>
<feOffset dy="3.04"/>
<feGaussianBlur stdDeviation="1.52"/>
<feComposite in2="hardAlpha" operator="out"/>
<feColorMatrix type="matrix" values="0 0 0 0 0 0 0 0 0 0 0 0 0 0 0 0 0 0 0.14 0"/>
<feBlend mode="normal" in2="BackgroundImageFix" result="effect1_dropShadow_1101_428"/>
<feBlend mode="normal" in="SourceGraphic" in2="effect1_dropShadow_1101_428" result="shape"/>
</filter>
<filter id="filter9_d_1101_428" x="190.61" y="155.849" width="24.3678" height="23.9916" filterUnits="userSpaceOnUse" color-interpolation-filters="sRGB">
<feFlood flood-opacity="0" result="BackgroundImageFix"/>
<feColorMatrix in="SourceAlpha" type="matrix" values="0 0 0 0 0 0 0 0 0 0 0 0 0 0 0 0 0 0 127 0" result="hardAlpha"/>
<feOffset dy="3.04"/>
<feGaussianBlur stdDeviation="1.52"/>
<feComposite in2="hardAlpha" operator="out"/>
<feColorMatrix type="matrix" values="0 0 0 0 0 0 0 0 0 0 0 0 0 0 0 0 0 0 0.14 0"/>
<feBlend mode="normal" in2="BackgroundImageFix" result="effect1_dropShadow_1101_428"/>
<feBlend mode="normal" in="SourceGraphic" in2="effect1_dropShadow_1101_428" result="shape"/>
</filter>
<filter id="filter10_d_1101_428" x="177.814" y="154.99" width="19.456" height="25.726" filterUnits="userSpaceOnUse" color-interpolation-filters="sRGB">
<feFlood flood-opacity="0" result="BackgroundImageFix"/>
<feColorMatrix in="SourceAlpha" type="matrix" values="0 0 0 0 0 0 0 0 0 0 0 0 0 0 0 0 0 0 127 0" result="hardAlpha"/>
<feOffset dy="3.04"/>
<feGaussianBlur stdDeviation="1.52"/>
<feComposite in2="hardAlpha" operator="out"/>
<feColorMatrix type="matrix" values="0 0 0 0 0 0 0 0 0 0 0 0 0 0 0 0 0 0 0.14 0"/>
<feBlend mode="normal" in2="BackgroundImageFix" result="effect1_dropShadow_1101_428"/>
<feBlend mode="normal" in="SourceGraphic" in2="effect1_dropShadow_1101_428" result="shape"/>
</filter>
<linearGradient id="paint0_linear_1101_428" x1="18.4889" y1="676.811" x2="394.34" y2="676.811" gradientUnits="userSpaceOnUse">
<stop stop-color="#736D6D"/>
<stop offset="0.0336889" stop-color="#B7ADAD"/>
<stop offset="0.961559" stop-color="#B7ADAD"/>
<stop offset="1" stop-color="#736D6D"/>
</linearGradient>
<linearGradient id="paint1_linear_1101_428" x1="206.414" y1="1233.44" x2="206.414" y2="120.184" gradientUnits="userSpaceOnUse">
<stop offset="0.039776" stop-color="#F7F7F7"/>
<stop offset="0.0810584" stop-color="#242424"/>
</linearGradient>
<linearGradient id="paint2_linear_1101_428" x1="206.414" y1="120.184" x2="206.414" y2="1233.44" gradientUnits="userSpaceOnUse">
<stop offset="0.00690427" stop-color="#535353"/>
<stop offset="0.0266238" stop-color="#F2F2F2"/>
<stop offset="0.663464" stop-color="#FEFEFE"/>
<stop offset="0.783658" stop-color="#333131"/>
</linearGradient>
<linearGradient id="paint3_linear_1101_428" x1="18.4889" y1="676.811" x2="394.34" y2="676.811" gradientUnits="userSpaceOnUse">
<stop stop-color="#736D6D"/>
<stop offset="0.0336889" stop-color="#B7ADAD"/>
<stop offset="0.961559" stop-color="#B7ADAD"/>
<stop offset="1" stop-color="#736D6D"/>
</linearGradient>
<linearGradient id="paint4_linear_1101_428" x1="206.414" y1="1233.44" x2="206.414" y2="120.184" gradientUnits="userSpaceOnUse">
<stop offset="0.039776" stop-color="#F7F7F7"/>
<stop offset="0.0810584" stop-color="#242424"/>
</linearGradient>
<linearGradient id="paint5_linear_1101_428" x1="206.414" y1="120.184" x2="206.414" y2="1233.44" gradientUnits="userSpaceOnUse">
<stop offset="0.00690427" stop-color="#535353"/>
<stop offset="0.0266238" stop-color="#F2F2F2"/>
<stop offset="0.663464" stop-color="#FEFEFE"/>
<stop offset="0.783658" stop-color="#333131"/>
</linearGradient>
<linearGradient id="paint6_linear_1101_428" x1="206.414" y1="120.184" x2="206.414" y2="1233.44" gradientUnits="userSpaceOnUse">
<stop offset="0.283651" stop-color="#C8C4C4"/>
<stop offset="0.490385" stop-color="#BCB5B5"/>
<stop offset="0.77885" stop-color="#A39E9E"/>
</linearGradient>
<linearGradient id="paint7_linear_1101_428" x1="204.273" y1="1169.86" x2="204.273" y2="1196.71" gradientUnits="userSpaceOnUse">
<stop offset="0.0961898" stop-color="#605656"/>
<stop offset="1" stop-color="#3D3B3B"/>
</linearGradient>
<linearGradient id="paint8_linear_1101_428" x1="205.091" y1="458.373" x2="205.091" y2="707.945" gradientUnits="userSpaceOnUse">
<stop stop-color="#BABABA"/>
<stop offset="1" stop-color="#757171"/>
</linearGradient>
<linearGradient id="paint9_linear_1101_428" x1="217.473" y1="459.327" x2="217.473" y2="713.169" gradientUnits="userSpaceOnUse">
<stop stop-color="#BABABA"/>
<stop offset="1" stop-color="#757171"/>
</linearGradient>
<linearGradient id="paint10_linear_1101_428" x1="193.831" y1="459.13" x2="193.831" y2="712.972" gradientUnits="userSpaceOnUse">
<stop stop-color="#BABABA"/>
<stop offset="1" stop-color="#757171"/>
</linearGradient>
<linearGradient id="paint11_linear_1101_428" x1="205.091" y1="692.69" x2="205.091" y2="942.261" gradientUnits="userSpaceOnUse">
<stop stop-color="#BABABA"/>
<stop offset="1" stop-color="#757171"/>
</linearGradient>
<linearGradient id="paint12_linear_1101_428" x1="217.473" y1="693.643" x2="217.473" y2="947.485" gradientUnits="userSpaceOnUse">
<stop stop-color="#BABABA"/>
<stop offset="1" stop-color="#757171"/>
</linearGradient>
<linearGradient id="paint13_linear_1101_428" x1="193.831" y1="693.445" x2="193.831" y2="947.288" gradientUnits="userSpaceOnUse">
<stop stop-color="#BABABA"/>
<stop offset="1" stop-color="#757171"/>
</linearGradient>
<linearGradient id="paint14_linear_1101_428" x1="205.091" y1="929.058" x2="205.091" y2="1178.63" gradientUnits="userSpaceOnUse">
<stop stop-color="#BABABA"/>
<stop offset="1" stop-color="#757171"/>
</linearGradient>
<linearGradient id="paint15_linear_1101_428" x1="217.473" y1="930.015" x2="217.473" y2="1183.86" gradientUnits="userSpaceOnUse">
<stop stop-color="#BABABA"/>
<stop offset="1" stop-color="#757171"/>
</linearGradient>
<linearGradient id="paint16_linear_1101_428" x1="193.831" y1="929.817" x2="193.831" y2="1183.66" gradientUnits="userSpaceOnUse">
<stop stop-color="#BABABA"/>
<stop offset="1" stop-color="#757171"/>
</linearGradient>
<linearGradient id="paint17_linear_1101_428" x1="207.08" y1="1126.31" x2="207.08" y2="1215.29" gradientUnits="userSpaceOnUse">
<stop offset="0.130571" stop-color="#ACACAC"/>
<stop offset="0.86539" stop-color="#8A8A8A"/>
<stop offset="1" stop-color="#7E7171"/>
</linearGradient>
<linearGradient id="paint18_linear_1101_428" x1="19.9395" y1="1262.4" x2="19.9395" y2="111" gradientUnits="userSpaceOnUse">
<stop offset="0.0432634" stop-color="#737373"/>
<stop offset="0.774043" stop-color="#D9D9D9"/>
</linearGradient>
<linearGradient id="paint19_linear_1101_428" x1="391.06" y1="1262.4" x2="391.06" y2="112.766" gradientUnits="userSpaceOnUse">
<stop offset="0.0432634" stop-color="#737373"/>
<stop offset="0.774043" stop-color="#D9D9D9"/>
</linearGradient>
</defs>
</svg>
