<svg width="1120" height="871" viewBox="0 0 1120 871" fill="none" xmlns="http://www.w3.org/2000/svg">
<g filter="url(#filter0_d_1101_64)">
<path d="M1009.75 33.2269C1013.54 33.9121 1015.97 37.7963 1015.09 41.7818L1011.92 56.1701C1010.55 62.3636 1002.83 63.9619 999.563 58.728L989.026 41.8659C985.756 36.6319 990.137 29.6882 996.038 30.7531L1009.75 33.2269Z" fill="#FFDC67"/>
<path d="M1010.25 74.2211C1010.25 130.622 1010.25 130.622 941.741 130.622C873.231 130.622 873.231 130.622 873.231 74.2211C873.231 43.0715 903.904 17.8198 941.741 17.8198C979.577 17.8198 1010.25 43.0715 1010.25 74.2211Z" fill="#FF5F4E"/>
<path d="M986.123 107.865C986.123 134.33 986.123 134.33 941.916 134.33C897.709 134.33 897.708 134.33 897.708 107.865C897.708 93.2488 917.501 81.3999 941.916 81.3999C966.331 81.3999 986.123 93.2488 986.123 107.865Z" fill="#FFFEE2"/>
<ellipse cx="915.124" cy="52.9622" rx="4.39758" ry="6.94169" fill="#313131"/>
<ellipse cx="969.283" cy="52.9622" rx="4.39758" ry="6.94169" fill="#313131"/>
<path d="M929.864 63.1663L932.28 64.9685C934.846 66.8835 937.99 67.9511 941.224 68.0059C942.129 68.0213 943.032 67.957 943.921 67.8141L944.14 67.7789C947.335 67.2654 950.294 65.8932 952.669 63.8232L953.302 63.2716" stroke="#313131" stroke-width="2.8" stroke-linecap="round"/>
<circle cx="907.159" cy="74.0496" r="9.45" fill="#FFDC67"/>
<circle cx="976.458" cy="74.0496" r="9.45" fill="#FFDC67"/>
<g filter="url(#filter1_d_1101_64)">
<path d="M909.492 117.18C909.492 136 909.492 136 887.283 136C865.075 136 865.075 136 865.075 117.18C865.075 106.786 875.018 98.3599 887.283 98.3599C899.549 98.3599 909.492 106.786 909.492 117.18Z" fill="#FF5F4E"/>
</g>
<g filter="url(#filter2_d_1101_64)">
<path d="M1019.51 116.508C1019.51 134.655 1019.51 134.655 997.642 134.655C975.775 134.655 975.775 134.655 975.775 116.508C975.775 106.485 985.565 98.3599 997.642 98.3599C1009.72 98.3599 1019.51 106.485 1019.51 116.508Z" fill="#FF5F4E"/>
</g>
<path d="M937.113 4.97874C939.758 2.64757 943.724 2.64756 946.369 4.97873L958.853 15.9812C963.693 20.2466 960.677 28.2328 954.225 28.2328H929.256C922.805 28.2328 919.788 20.2466 924.628 15.9812L937.113 4.97874Z" fill="#FFDC67"/>
</g>
<g filter="url(#filter3_d_1101_64)">
<path d="M107.534 76.0371C105.737 72.623 107.303 68.3191 110.985 66.5578L120.913 61.808C126.634 59.0708 132.647 64.1714 130.536 69.9709L125.456 83.9277C123.346 89.7272 115.177 90.5498 112.383 85.2441L107.534 76.0371Z" fill="#FF5F4E"/>
<path d="M118.079 40.1602C117.006 36.4537 119.408 32.5541 123.369 31.5713L137.67 28.0233C143.825 26.496 148.686 32.7044 145.45 37.9591L135.021 54.8884C131.784 60.1431 123.617 59.3015 121.95 53.5414L118.079 40.1602Z" fill="#FF5F4E"/>
<path d="M256.814 77.2211C256.814 133.622 256.814 133.622 188.304 133.622C119.794 133.622 119.794 133.622 119.794 77.2211C119.794 46.0715 150.467 20.8198 188.304 20.8198C226.141 20.8198 256.814 46.0715 256.814 77.2211Z" fill="#68A7FF"/>
<path d="M232.686 109.465C232.686 135.93 232.686 135.93 188.479 135.93C144.272 135.93 144.272 135.93 144.272 109.465C144.272 94.8484 164.064 82.9995 188.479 82.9995C212.894 82.9995 232.686 94.8484 232.686 109.465Z" fill="#FFFEE2"/>
<ellipse cx="161.687" cy="55.9622" rx="4.39758" ry="6.94169" fill="#313131"/>
<ellipse cx="215.847" cy="55.9622" rx="4.39758" ry="6.94169" fill="#313131"/>
<path d="M176.428 66.1663L178.843 67.9685C181.409 69.8835 184.553 70.9511 187.787 71.0059C188.692 71.0213 189.595 70.957 190.485 70.8141L190.703 70.7789C193.899 70.2654 196.857 68.8932 199.232 66.8232L199.865 66.2716" stroke="#313131" stroke-width="2.8" stroke-linecap="round"/>
<circle cx="153.722" cy="77.0496" r="9.45" fill="#FF5F4E"/>
<circle cx="223.022" cy="77.0496" r="9.45" fill="#FF5F4E"/>
<g filter="url(#filter4_d_1101_64)">
<path d="M156.055 120.18C156.055 139 156.055 139 133.847 139C111.638 139 111.638 139 111.638 120.18C111.638 109.786 121.581 101.36 133.847 101.36C146.112 101.36 156.055 109.786 156.055 120.18Z" fill="#68A7FF"/>
</g>
<g filter="url(#filter5_d_1101_64)">
<path d="M266.072 119.508C266.072 137.655 266.072 137.655 244.205 137.655C222.338 137.655 222.338 137.655 222.338 119.508C222.338 109.485 232.128 101.36 244.205 101.36C256.282 101.36 266.072 109.485 266.072 119.508Z" fill="#68A7FF"/>
</g>
<path d="M183.676 7.97874C186.321 5.64757 190.287 5.64756 192.933 7.97873L205.417 18.9812C210.257 23.2466 207.24 31.2328 200.789 31.2328H175.82C169.369 31.2328 166.352 23.2466 171.192 18.9812L183.676 7.97874Z" fill="#FF5F4E"/>
</g>
<g filter="url(#filter6_d_1101_64)">
<path d="M1108.36 145.085C1108.36 144.339 1107.76 143.734 1107.01 143.734H25.4159C24.6695 143.734 24.0645 144.339 24.0645 145.085V199.213H1108.36V145.085Z" fill="url(#paint0_linear_1101_64)"/>
<path d="M1108.36 145.085C1108.36 144.339 1107.76 143.734 1107.01 143.734H25.4159C24.6695 143.734 24.0645 144.339 24.0645 145.085V199.213H1108.36V145.085Z" fill="url(#paint1_linear_1101_64)" fill-opacity="0.2"/>
<path d="M1108.36 145.085C1108.36 144.339 1107.76 143.734 1107.01 143.734H25.4159C24.6695 143.734 24.0645 144.339 24.0645 145.085V199.213H1108.36V145.085Z" fill="url(#paint2_linear_1101_64)" fill-opacity="0.2"/>
<path d="M24.0645 777.459L24.0645 799.557L24.0645 824.275H1108.36V777.459H24.0645Z" fill="url(#paint3_linear_1101_64)"/>
<path d="M24.0645 777.459L24.0645 799.557L24.0645 824.275H1108.36V777.459H24.0645Z" fill="url(#paint4_linear_1101_64)" fill-opacity="0.2"/>
<path d="M24.0645 777.459L24.0645 799.557L24.0645 824.275H1108.36V777.459H24.0645Z" fill="url(#paint5_linear_1101_64)" fill-opacity="0.2"/>
<path d="M24.0645 199.213V145.085C24.0645 144.339 24.6695 143.734 25.4159 143.734H1107.01C1107.76 143.734 1108.36 144.339 1108.36 145.085V199.213M24.0645 199.213H1108.36M24.0645 199.213L24.0645 777.459M1108.36 199.213V777.459M24.0645 777.459L24.0645 799.557L24.0645 824.275M24.0645 777.459C37.6654 777.459 752.596 777.459 1108.36 777.459M24.0645 777.459H1108.36M1108.36 777.459V824.275M24.0645 824.275L24.0645 837.466C24.0645 838.213 24.6696 838.818 25.416 838.818H1107.01C1107.76 838.818 1108.36 838.213 1108.36 837.466V824.275M24.0645 824.275H1108.36" stroke="url(#paint6_linear_1101_64)" stroke-width="8.72284"/>
<rect x="31.2727" y="799.124" width="1057.52" height="16.7596" fill="url(#paint7_linear_1101_64)" fill-opacity="0.9"/>
<path d="M19.9453 372.239C19.9453 372.239 153.352 372.239 238.834 372.239C251.789 372.239 272.009 372.239 272.009 372.239H515.166M1104.84 372.169H885.955H852.78H510.572" stroke="url(#paint8_linear_1101_64)" stroke-width="3.07142"/>
<path d="M272.819 373.132C272.819 394.765 242.041 398.807 236.455 377.907L235.036 372.596L232.794 363.316C232.67 362.803 232.512 362.292 232.164 361.895C228.17 357.328 206.851 354.649 187.234 355.807L88.8423 361.617L23.1841 365.253" stroke="url(#paint9_linear_1101_64)" stroke-width="3.07142"/>
<path d="M855.208 373.009C855.208 394.642 885.986 398.684 891.572 377.784L892.991 372.473L895.233 363.193C895.357 362.68 895.515 362.169 895.863 361.772C899.857 357.205 921.176 354.526 940.793 355.684L1039.18 361.494L1104.84 365.13" stroke="url(#paint10_linear_1101_64)" stroke-width="3.07142"/>
<path d="M19.9453 518.539C19.9453 518.539 153.352 518.539 238.834 518.539C251.789 518.539 272.009 518.539 272.009 518.539H515.166M1104.84 518.469H885.955H852.78H510.572" stroke="url(#paint11_linear_1101_64)" stroke-width="3.07142"/>
<path d="M272.819 519.432C272.819 541.066 242.041 545.107 236.455 524.207L235.036 518.897L232.794 509.616C232.67 509.103 232.512 508.592 232.164 508.195C228.17 503.628 206.851 500.949 187.234 502.107L88.8423 507.917L23.1841 511.553" stroke="url(#paint12_linear_1101_64)" stroke-width="3.07142"/>
<path d="M855.208 519.308C855.208 540.942 885.986 544.984 891.572 524.084L892.991 518.773L895.233 509.493C895.357 508.979 895.515 508.469 895.863 508.071C899.857 503.505 921.176 500.825 940.793 501.984L1039.18 507.794L1104.84 511.429" stroke="url(#paint13_linear_1101_64)" stroke-width="3.07142"/>
<path d="M19.9453 666.121C19.9453 666.121 153.352 666.121 238.834 666.121C251.789 666.121 272.009 666.121 272.009 666.121H515.166M1104.84 666.051H885.955H852.78H510.572" stroke="url(#paint14_linear_1101_64)" stroke-width="3.07142"/>
<path d="M272.819 667.016C272.819 688.649 242.041 692.691 236.455 671.791L235.036 666.48L232.794 657.2C232.67 656.686 232.512 656.176 232.164 655.778C228.17 651.212 206.851 648.532 187.234 649.691L88.8423 655.501L23.1841 659.136" stroke="url(#paint15_linear_1101_64)" stroke-width="3.07142"/>
<path d="M855.208 666.891C855.208 688.525 885.986 692.567 891.572 671.667L892.991 666.356L895.233 657.076C895.357 656.562 895.515 656.052 895.863 655.654C899.857 651.088 921.176 648.408 940.793 649.567L1039.18 655.377L1104.84 659.012" stroke="url(#paint16_linear_1101_64)" stroke-width="3.07142"/>
<path d="M16.8496 654.02L72.2909 644.199C80.6511 642.718 85.1984 640.579 84.6838 638.368L18.7565 355.213M1110.3 654.02L1054.86 644.199C1046.5 642.718 1041.95 640.579 1042.47 638.368L1108.39 355.213" stroke="#BABABA" stroke-width="4.54571"/>
<g filter="url(#filter7_d_1101_64)">
<rect x="39.1777" y="771.928" width="1057.91" height="55.56" fill="url(#paint17_linear_1101_64)"/>
</g>
<g filter="url(#filter8_d_1101_64)">
<rect x="31.5854" y="138.725" width="1057.91" height="64.8557" fill="#D9D9D9"/>
</g>
<g filter="url(#filter9_d_1101_64)">
<path d="M14 142.054C14 139.815 15.8152 138 18.0543 138H41.64C42.115 138 42.5 138.385 42.5 138.86V855.917C42.5 856.46 42.06 856.9 41.5171 856.9H16.58C15.1551 856.9 14 855.745 14 854.32V142.054Z" fill="url(#paint18_linear_1101_64)"/>
</g>
<g filter="url(#filter10_d_1101_64)">
<path d="M1113.15 143.157C1113.15 140.918 1111.33 139.103 1109.1 139.103H1085.51C1085.03 139.103 1084.65 139.488 1084.65 139.963V855.917C1084.65 856.46 1085.09 856.9 1085.63 856.9H1110.57C1111.99 856.9 1113.15 855.745 1113.15 854.32V143.157Z" fill="url(#paint19_linear_1101_64)"/>
</g>
<path d="M63.3999 157.94C63.3999 155.453 78.3816 153.437 96.8624 153.437H1027.44C1045.92 153.437 1060.9 155.453 1060.9 157.94V185.319C1060.9 187.806 1045.92 189.823 1027.44 189.823H96.8624C78.3816 189.823 63.3999 187.806 63.3999 185.319V157.94Z" fill="#697ABE"/>
<g filter="url(#filter11_d_1101_64)">
<path d="M593.78 170.302C593.76 170.403 593.75 170.515 593.75 170.636C593.75 170.758 593.74 170.869 593.719 170.971C593.679 171.214 593.628 171.457 593.567 171.7C593.506 171.923 593.405 172.146 593.263 172.369C593.061 172.653 592.878 172.957 592.716 173.281C592.574 173.585 592.422 173.909 592.26 174.254C592.118 174.375 591.976 174.497 591.834 174.619C591.713 174.72 591.591 174.831 591.47 174.953C591.267 175.156 591.206 175.399 591.287 175.683C591.307 175.703 591.328 175.743 591.348 175.804C591.389 175.865 591.419 175.916 591.439 175.956C591.541 176.118 591.642 176.27 591.743 176.412C591.845 176.574 591.936 176.736 592.017 176.899C592.118 177.061 592.189 177.223 592.23 177.385C592.25 177.426 592.27 177.466 592.29 177.507C592.311 177.547 592.331 177.588 592.351 177.628C592.473 178.013 592.564 178.267 592.625 178.388C592.686 178.51 592.848 178.712 593.111 178.996C592.99 179.158 592.878 179.331 592.777 179.513C592.676 179.695 592.574 179.878 592.473 180.06C592.311 180.384 592.108 180.688 591.865 180.972C591.622 181.256 591.358 181.519 591.074 181.763C590.953 181.823 590.831 181.823 590.71 181.763C590.608 181.722 590.497 181.702 590.375 181.702C590.294 181.702 590.203 181.702 590.102 181.702C590.021 181.722 589.929 181.722 589.828 181.702C589.747 181.682 589.676 181.651 589.615 181.611C589.554 181.57 589.504 181.54 589.463 181.519C589.342 181.357 589.21 181.205 589.068 181.063C588.926 180.922 588.805 180.749 588.703 180.547C588.642 180.364 588.511 180.212 588.308 180.091C588.186 179.989 588.085 179.878 588.004 179.756C587.943 179.635 587.862 179.523 587.761 179.422C587.639 179.361 587.467 179.351 587.244 179.391C587.041 179.594 586.798 179.776 586.514 179.939C586.251 180.08 586.028 180.263 585.846 180.486C585.643 180.425 585.461 180.374 585.298 180.334C585.136 180.293 584.964 180.263 584.782 180.243C584.721 180.263 584.65 180.293 584.569 180.334C584.488 180.354 584.397 180.384 584.295 180.425C584.214 180.384 584.133 180.354 584.052 180.334C583.991 180.293 583.92 180.263 583.839 180.243C583.718 180.263 583.596 180.283 583.474 180.303C583.353 180.324 583.221 180.344 583.079 180.364C582.978 180.384 582.866 180.395 582.745 180.395C582.623 180.395 582.492 180.395 582.35 180.395C582.269 180.354 582.177 180.314 582.076 180.273C581.995 180.232 581.914 180.182 581.833 180.121C581.752 180.08 581.65 180.04 581.529 179.999C581.428 179.959 581.316 179.928 581.194 179.908C581.113 179.847 581.012 179.766 580.89 179.665C580.789 179.564 580.688 179.462 580.586 179.361C580.364 179.138 580.12 178.996 579.857 178.935C579.837 178.935 579.766 178.915 579.644 178.875C579.543 178.773 579.441 178.672 579.34 178.571C579.259 178.449 579.137 178.368 578.975 178.327C578.935 178.327 578.894 178.317 578.854 178.297C578.813 178.256 578.773 178.226 578.732 178.206C578.692 178.165 578.641 178.125 578.58 178.084C578.539 178.023 578.499 177.983 578.458 177.963C578.398 177.659 578.337 177.426 578.276 177.263C578.215 177.122 578.134 177.04 578.033 177.02C577.932 176.98 577.83 176.919 577.729 176.838C577.648 176.736 577.557 176.625 577.455 176.503C577.354 176.362 577.232 176.25 577.09 176.169C576.969 176.108 576.878 176.017 576.817 175.895C576.776 175.774 576.736 175.652 576.695 175.531C576.634 175.348 576.564 175.156 576.482 174.953C576.422 174.75 576.371 174.548 576.33 174.345C576.047 174.102 575.895 173.798 575.874 173.433C575.874 173.372 575.864 173.322 575.844 173.281C575.783 172.936 575.733 172.683 575.692 172.521C575.672 172.359 575.662 172.207 575.662 172.065C575.682 171.923 575.702 171.72 575.722 171.457L575.54 170.94C575.56 170.839 575.601 170.758 575.662 170.697C575.722 170.636 575.783 170.586 575.844 170.545C575.844 170.504 575.844 170.474 575.844 170.454C575.864 170.413 575.864 170.383 575.844 170.363C575.763 170.241 575.702 170.109 575.662 169.967C575.621 169.805 575.581 169.643 575.54 169.481C575.581 169.42 575.611 169.339 575.631 169.238C575.652 169.136 575.672 169.045 575.692 168.964C575.692 168.863 575.682 168.772 575.662 168.691C575.662 168.508 575.743 168.376 575.905 168.295C575.945 168.295 575.976 168.295 575.996 168.295C576.037 168.275 576.067 168.265 576.087 168.265C576.128 168.164 576.097 168.093 575.996 168.052C575.915 167.991 575.874 167.9 575.874 167.779C575.915 167.738 575.955 167.677 575.996 167.596C576.057 167.495 576.097 167.404 576.118 167.323V166.806C576.178 166.765 576.229 166.704 576.27 166.623C576.33 166.542 576.401 166.461 576.482 166.38C576.665 166.238 576.786 166.056 576.847 165.833C576.969 165.61 577.131 165.407 577.334 165.225C577.415 165.164 577.476 165.093 577.516 165.012C577.577 164.911 577.627 164.82 577.668 164.739C577.709 164.637 577.749 164.546 577.79 164.465C577.83 164.384 577.881 164.303 577.942 164.222C578.002 164.161 578.073 164.11 578.154 164.07C578.256 164.029 578.347 163.989 578.428 163.948C578.529 163.827 578.61 163.705 578.671 163.583C578.732 163.462 578.833 163.36 578.975 163.279C579.056 163.239 579.107 163.188 579.127 163.127C579.168 163.046 579.218 162.965 579.279 162.884C579.441 162.823 579.573 162.712 579.674 162.55C579.776 162.388 579.887 162.246 580.009 162.124C580.049 162.063 580.09 162.013 580.13 161.972C580.171 161.932 580.201 161.901 580.222 161.881C580.384 161.8 580.536 161.749 580.678 161.729C580.84 161.709 581.002 161.699 581.164 161.699C581.225 161.658 581.296 161.618 581.377 161.577C581.478 161.516 581.569 161.466 581.65 161.425C581.873 161.324 582.036 161.263 582.137 161.243C582.238 161.222 582.461 161.232 582.806 161.273C582.846 161.253 582.897 161.232 582.958 161.212C583.018 161.192 583.079 161.172 583.14 161.151C583.201 161.111 583.252 161.091 583.292 161.091C583.333 161.07 583.393 161.05 583.474 161.03H584.204C584.265 161.03 584.326 161.04 584.386 161.06C584.447 161.06 584.508 161.06 584.569 161.06C584.67 161.101 584.771 161.131 584.873 161.151C584.974 161.172 585.065 161.192 585.146 161.212C585.248 161.232 585.339 161.253 585.42 161.273C585.521 161.273 585.623 161.283 585.724 161.303C585.785 161.303 585.825 161.293 585.846 161.273C585.866 161.273 585.906 161.243 585.967 161.182C586.008 161.182 586.028 161.182 586.028 161.182C586.048 161.162 586.069 161.151 586.089 161.151C586.21 161.172 586.332 161.162 586.454 161.121C586.575 161.08 586.697 161.06 586.818 161.06C586.9 161.121 586.96 161.172 587.001 161.212C587.062 161.253 587.102 161.303 587.122 161.364C587.366 161.607 587.649 161.77 587.974 161.851C588.075 161.871 588.156 161.922 588.217 162.003C588.278 162.084 588.359 162.144 588.46 162.185C588.602 162.246 588.744 162.307 588.886 162.367C589.048 162.408 589.2 162.448 589.342 162.489C589.362 162.53 589.372 162.56 589.372 162.58C589.392 162.6 589.413 162.631 589.433 162.671C589.473 162.712 589.514 162.773 589.554 162.854C589.635 162.894 589.727 162.945 589.828 163.006C589.95 163.046 590.051 163.097 590.132 163.158C590.233 163.239 590.335 163.3 590.436 163.34C590.537 163.381 590.639 163.431 590.74 163.492C590.862 163.614 590.983 163.735 591.105 163.857C591.247 163.979 591.389 164.09 591.53 164.191C591.551 164.212 591.571 164.232 591.591 164.252C591.632 164.252 591.662 164.272 591.682 164.313C591.784 164.435 591.895 164.556 592.017 164.678C592.138 164.779 592.26 164.88 592.382 164.982C592.503 165.103 592.594 165.255 592.655 165.438C592.736 165.6 592.757 165.792 592.716 166.015C592.797 166.056 592.858 166.107 592.898 166.167C592.959 166.208 593.01 166.248 593.05 166.289C593.213 166.512 593.304 166.755 593.324 167.019C593.365 167.262 593.395 167.525 593.415 167.809C593.476 167.89 593.527 167.981 593.567 168.083C593.628 168.184 593.699 168.285 593.78 168.387V168.599C593.76 168.68 593.74 168.772 593.719 168.873C593.699 168.954 593.699 169.045 593.719 169.147C593.76 169.248 593.76 169.339 593.719 169.42C593.638 169.582 593.618 169.734 593.658 169.876C593.719 170.018 593.76 170.16 593.78 170.302ZM589.524 170.241C589.402 169.815 589.311 169.37 589.25 168.903C589.21 168.478 589.109 168.072 588.946 167.687C588.805 167.302 588.572 166.948 588.247 166.623C588.207 166.583 588.166 166.532 588.126 166.471C588.085 166.411 588.045 166.37 588.004 166.35C587.862 166.309 587.71 166.269 587.548 166.228C587.386 166.188 587.234 166.127 587.092 166.046C587.052 166.005 586.991 165.995 586.91 166.015C586.829 166.015 586.768 166.015 586.727 166.015C586.504 165.833 586.352 165.732 586.271 165.711C586.19 165.671 586.018 165.651 585.754 165.651C585.714 165.651 585.663 165.651 585.602 165.651C585.562 165.63 585.511 165.63 585.45 165.651C585.268 165.651 585.065 165.651 584.842 165.651C584.64 165.63 584.427 165.651 584.204 165.711C583.92 165.853 583.718 165.965 583.596 166.046C583.495 166.107 583.383 166.147 583.262 166.167C583.16 166.188 582.968 166.218 582.684 166.259C582.664 166.279 582.633 166.289 582.593 166.289C582.573 166.289 582.552 166.309 582.532 166.35C582.35 166.552 582.167 166.745 581.985 166.927C581.823 167.11 581.63 167.282 581.407 167.444C581.245 167.546 581.093 167.708 580.951 167.931C580.931 168.133 580.911 168.346 580.89 168.569C580.87 168.792 580.809 168.995 580.708 169.177C580.688 169.197 580.678 169.258 580.678 169.359C580.657 169.522 580.637 169.704 580.617 169.907C580.597 170.089 580.576 170.271 580.556 170.454C580.637 170.616 580.647 170.788 580.586 170.971C580.526 171.153 580.485 171.325 580.465 171.487C580.465 171.568 580.465 171.67 580.465 171.791C580.465 171.893 580.475 171.994 580.495 172.095C580.495 172.176 580.495 172.268 580.495 172.369C580.495 172.45 580.505 172.541 580.526 172.643C580.546 172.764 580.566 172.886 580.586 173.007C580.627 173.109 580.657 173.21 580.678 173.311C580.698 173.413 580.708 173.514 580.708 173.615C580.708 173.696 580.718 173.788 580.738 173.889C580.799 173.93 580.86 173.96 580.921 173.98C580.982 174 581.053 174.031 581.134 174.071C581.174 174.173 581.225 174.284 581.286 174.406C581.367 174.507 581.417 174.629 581.438 174.771C581.417 174.852 581.407 174.933 581.407 175.014C581.407 175.075 581.407 175.146 581.407 175.227C581.448 175.308 581.498 175.379 581.559 175.439C581.62 175.5 581.671 175.551 581.711 175.591C581.853 175.652 581.954 175.733 582.015 175.835C582.096 175.875 582.167 175.926 582.228 175.987C582.289 176.047 582.34 176.098 582.38 176.139C582.522 176.098 582.654 176.098 582.775 176.139C582.897 176.159 583.029 176.159 583.17 176.139C583.333 176.118 583.454 176.068 583.535 175.987C583.616 175.885 583.718 175.804 583.839 175.743C583.941 175.784 584.022 175.814 584.082 175.835C584.163 175.855 584.234 175.875 584.295 175.895C584.417 175.875 584.528 175.855 584.63 175.835C584.751 175.794 584.842 175.713 584.903 175.591C584.883 175.51 584.832 175.429 584.751 175.348C584.569 175.085 584.336 174.781 584.052 174.436C583.789 173.788 583.596 173.342 583.474 173.099C583.353 172.835 583.191 172.541 582.988 172.217C583.008 172.176 583.029 172.136 583.049 172.095C583.069 172.035 583.089 171.994 583.11 171.974C583.292 171.771 583.474 171.589 583.657 171.427C583.839 171.244 584.022 171.052 584.204 170.849C584.305 170.748 584.407 170.656 584.508 170.575C584.63 170.474 584.751 170.383 584.873 170.302C585.055 170.16 585.238 170.038 585.42 169.937C585.623 169.815 585.825 169.694 586.028 169.572C586.048 169.552 586.079 169.542 586.119 169.542C586.281 169.562 586.413 169.643 586.514 169.785C586.616 169.907 586.727 170.018 586.849 170.119C586.95 170.322 587.031 170.525 587.092 170.727C587.173 170.93 587.264 171.112 587.366 171.275C587.568 171.579 587.7 171.872 587.761 172.156C587.781 172.176 587.801 172.207 587.822 172.247C587.862 172.268 587.893 172.298 587.913 172.339C588.014 172.359 588.115 172.379 588.217 172.399C588.318 172.399 588.43 172.359 588.551 172.278C588.612 172.217 588.663 172.146 588.703 172.065C588.764 171.984 588.815 171.923 588.855 171.883C588.957 171.802 589.038 171.791 589.098 171.852C589.18 171.913 589.261 171.913 589.342 171.852C589.321 171.771 589.301 171.7 589.281 171.639C589.261 171.579 589.24 171.528 589.22 171.487C589.281 171.264 589.332 171.052 589.372 170.849C589.413 170.646 589.463 170.444 589.524 170.241Z" fill="white"/>
</g>
<g filter="url(#filter12_d_1101_64)">
<path d="M573.889 179.027C573.929 179.128 573.899 179.27 573.797 179.453C573.635 179.473 573.463 179.473 573.281 179.453C573.118 179.412 572.956 179.372 572.794 179.331C572.531 179.432 572.348 179.503 572.247 179.544C572.166 179.584 572.085 179.605 572.004 179.605C571.923 179.584 571.761 179.574 571.517 179.574C571.457 179.594 571.396 179.625 571.335 179.665C571.294 179.706 571.234 179.746 571.153 179.787C571.153 179.787 571.142 179.797 571.122 179.817C571.122 179.817 571.112 179.817 571.092 179.817C570.889 179.817 570.686 179.828 570.484 179.848C570.281 179.848 570.089 179.848 569.906 179.848C569.785 179.726 569.703 179.635 569.663 179.574C569.643 179.513 569.602 179.372 569.541 179.149C569.501 179.027 569.41 178.885 569.268 178.723C569.065 178.5 568.852 178.196 568.629 177.811C568.427 177.426 568.265 177.102 568.143 176.838L567.991 176.686C567.91 176.686 567.849 176.706 567.809 176.747C567.484 176.95 567.18 176.98 566.897 176.838C566.714 176.798 566.532 176.777 566.349 176.777C566.187 176.777 566.015 176.777 565.833 176.777C565.691 176.757 565.549 176.757 565.407 176.777C565.265 176.798 565.113 176.808 564.951 176.808C564.829 176.808 564.698 176.808 564.556 176.808C564.434 176.788 564.313 176.777 564.191 176.777C564.029 176.798 563.857 176.828 563.674 176.869C563.512 176.909 563.35 176.97 563.188 177.051C563.046 177.132 562.894 177.183 562.732 177.203C562.59 177.223 562.438 177.244 562.276 177.264C562.053 177.264 561.83 177.294 561.607 177.355C561.404 177.396 561.192 177.446 560.969 177.507C560.908 177.527 560.837 177.558 560.756 177.598C560.695 177.618 560.644 177.669 560.604 177.75C560.604 177.852 560.594 177.963 560.573 178.085C560.573 178.186 560.573 178.297 560.573 178.419C560.513 178.601 560.472 178.794 560.452 178.997C560.371 179.28 560.239 179.524 560.057 179.726C559.894 179.929 559.722 180.132 559.54 180.334C559.459 180.334 559.378 180.334 559.297 180.334C559.236 180.314 559.165 180.304 559.084 180.304C559.023 180.304 558.952 180.314 558.871 180.334C558.81 180.334 558.739 180.344 558.658 180.365C558.435 180.385 558.202 180.354 557.959 180.273C557.939 180.253 557.918 180.253 557.898 180.273C557.898 180.273 557.878 180.273 557.837 180.273H557.685L557.625 180.243C557.604 180.202 557.574 180.192 557.533 180.213C557.513 180.213 557.452 180.202 557.351 180.182C557.229 180.142 557.118 180.121 557.017 180.121C556.936 180.121 556.865 180.121 556.804 180.121C556.743 180.121 556.662 180.111 556.561 180.091C556.52 180.071 556.459 180.061 556.378 180.061C556.297 180.04 556.206 180.01 556.105 179.969C556.044 179.949 555.993 179.949 555.953 179.969C555.932 179.969 555.892 179.959 555.831 179.939L555.74 179.909H555.679L555.618 179.878C555.659 179.594 555.699 179.321 555.74 179.057C555.801 178.774 555.902 178.5 556.044 178.237C556.084 178.156 556.115 178.085 556.135 178.024C556.155 177.963 556.165 177.892 556.165 177.811L556.257 177.294C556.317 177.193 556.378 177.081 556.439 176.96C556.5 176.838 556.561 176.737 556.621 176.656C556.662 176.534 556.662 176.413 556.621 176.291C556.601 176.169 556.632 176.058 556.713 175.957C556.773 175.855 556.804 175.754 556.804 175.653C556.824 175.551 556.875 175.47 556.956 175.409C557.037 175.247 557.108 175.095 557.169 174.953C557.25 174.791 557.31 174.629 557.351 174.467C557.371 174.447 557.381 174.406 557.381 174.345C557.442 173.92 557.614 173.555 557.898 173.251C557.878 173.17 557.868 173.099 557.868 173.038C557.868 172.957 557.868 172.896 557.868 172.856C557.908 172.734 557.979 172.623 558.081 172.521C558.182 172.42 558.273 172.329 558.354 172.248C558.456 172.126 558.547 172.005 558.628 171.883C558.709 171.761 558.76 171.63 558.78 171.488C558.861 171.184 558.972 170.9 559.114 170.637C559.256 170.373 559.428 170.12 559.631 169.877C559.753 169.714 559.854 169.542 559.935 169.36C560.036 169.157 560.138 168.954 560.239 168.752C560.32 168.59 560.391 168.417 560.452 168.235C560.533 168.053 560.583 167.87 560.604 167.688C560.766 167.485 560.877 167.333 560.938 167.232C560.999 167.11 561.05 166.978 561.09 166.837C561.151 166.674 561.222 166.431 561.303 166.107C561.343 166.066 561.394 166.036 561.455 166.016C561.536 165.975 561.587 165.914 561.607 165.833C561.607 165.752 561.658 165.692 561.759 165.651C561.921 165.55 562.033 165.408 562.093 165.225C562.154 165.063 562.235 164.921 562.337 164.8C562.458 164.658 562.57 164.526 562.671 164.405C562.772 164.303 562.833 164.202 562.853 164.101C562.955 163.817 563.086 163.564 563.249 163.341C563.431 163.097 563.583 162.854 563.705 162.611C563.806 162.53 563.897 162.489 563.978 162.489C564.059 162.469 564.14 162.459 564.221 162.459H564.313C564.515 162.54 564.728 162.601 564.951 162.641C565.093 162.662 565.225 162.672 565.346 162.672C565.468 162.672 565.569 162.672 565.65 162.672C565.711 162.672 565.772 162.672 565.833 162.672C565.893 162.672 565.954 162.682 566.015 162.702C566.278 162.783 566.552 162.824 566.836 162.824C567.12 162.824 567.393 162.834 567.657 162.854C568.001 163.097 568.295 163.33 568.538 163.553C568.781 163.776 568.974 164.161 569.116 164.709C569.136 164.729 569.166 164.749 569.207 164.769C569.248 164.79 569.278 164.82 569.298 164.861C569.339 164.881 569.379 164.901 569.42 164.921C569.46 164.942 569.501 164.972 569.541 165.013C569.582 165.094 569.612 165.185 569.633 165.286C569.673 165.367 569.714 165.458 569.754 165.56C569.795 165.641 569.845 165.732 569.906 165.833C569.967 165.914 570.038 166.006 570.119 166.107C570.159 166.31 570.22 166.512 570.301 166.715C570.403 166.918 570.443 167.151 570.423 167.414L570.636 167.718C570.636 167.82 570.636 167.931 570.636 168.053C570.656 168.154 570.666 168.265 570.666 168.387C570.768 168.448 570.818 168.529 570.818 168.63C570.838 168.732 570.859 168.843 570.879 168.965C570.94 169.046 571.001 169.137 571.061 169.238C571.122 169.319 571.183 169.4 571.244 169.481C571.284 169.623 571.325 169.765 571.365 169.907C571.406 170.029 571.436 170.15 571.457 170.272C571.436 170.353 571.416 170.434 571.396 170.515C571.396 170.596 571.386 170.677 571.365 170.758C571.406 170.961 571.477 171.143 571.578 171.305C571.7 171.447 571.811 171.599 571.913 171.761C572.014 172.146 572.105 172.542 572.186 172.947C572.288 173.332 572.358 173.727 572.399 174.133C572.622 174.416 572.754 174.72 572.794 175.045C572.855 175.369 572.926 175.703 573.007 176.048C573.048 176.19 573.068 176.332 573.068 176.473C573.068 176.595 573.078 176.727 573.098 176.869C573.139 176.99 573.23 177.152 573.372 177.355C573.514 177.537 573.625 177.679 573.706 177.781C573.706 177.983 573.716 178.196 573.737 178.419C573.757 178.622 573.807 178.824 573.889 179.027ZM566.562 172.613C566.542 172.471 566.491 172.349 566.41 172.248C566.329 172.126 566.309 171.994 566.349 171.853C566.268 171.711 566.228 171.538 566.228 171.336C566.228 171.133 566.248 171.022 566.289 171.001C566.268 170.961 566.258 170.9 566.258 170.819C566.177 170.718 566.096 170.626 566.015 170.545C565.954 170.464 565.893 170.373 565.833 170.272C565.833 170.292 565.792 170.262 565.711 170.181C565.61 170.16 565.529 170.1 565.468 169.998C565.447 169.937 565.417 169.877 565.377 169.816C565.356 169.755 565.316 169.714 565.255 169.694C565.174 169.694 565.113 169.725 565.073 169.785C565.032 169.826 564.971 169.866 564.89 169.907C564.809 169.927 564.728 169.948 564.647 169.968C564.586 169.988 564.515 170.008 564.434 170.029C564.292 170.15 564.201 170.312 564.161 170.515V170.88C564.08 171.022 563.988 171.143 563.887 171.245C563.806 171.346 563.745 171.457 563.705 171.579C563.644 171.863 563.553 172.116 563.431 172.339C563.431 172.481 563.401 172.613 563.34 172.734C563.279 172.836 563.228 172.947 563.188 173.069C563.167 173.089 563.157 173.15 563.157 173.251C563.157 173.373 563.228 173.433 563.37 173.433C563.451 173.433 563.532 173.433 563.613 173.433C563.694 173.413 563.776 173.403 563.857 173.403C563.897 173.423 563.948 173.454 564.009 173.494C564.069 173.514 564.12 173.535 564.161 173.555C564.465 173.514 564.748 173.454 565.012 173.373C565.295 173.292 565.569 173.2 565.833 173.099C565.954 172.998 566.086 172.927 566.228 172.886C566.37 172.846 566.481 172.754 566.562 172.613Z" fill="white"/>
</g>
<g filter="url(#filter13_d_1101_64)">
<path d="M556.198 165.377C556.198 165.539 556.127 165.641 555.985 165.681C555.742 165.702 555.509 165.783 555.286 165.924C555.084 166.046 554.871 166.137 554.648 166.198C554.384 166.178 554.131 166.188 553.888 166.228C553.645 166.269 553.381 166.259 553.097 166.198C553.057 166.239 553.006 166.279 552.945 166.32C552.885 166.36 552.824 166.401 552.763 166.441C552.682 166.441 552.591 166.451 552.489 166.472C552.388 166.492 552.287 166.502 552.185 166.502H551.425C551.263 166.502 551.101 166.512 550.939 166.532C550.777 166.532 550.615 166.522 550.453 166.502C550.27 166.502 550.108 166.543 549.966 166.624C549.824 166.684 549.672 166.715 549.51 166.715C549.429 166.715 549.358 166.725 549.297 166.745C549.237 166.745 549.176 166.755 549.115 166.776C548.973 166.735 548.831 166.705 548.689 166.684C548.568 166.644 548.436 166.695 548.294 166.836C548.193 167.181 548.102 167.536 548.021 167.9C547.96 168.265 547.909 168.62 547.869 168.964C547.808 169.329 547.808 169.674 547.869 169.998C547.889 170.039 547.899 170.079 547.899 170.12C547.919 170.16 547.94 170.201 547.96 170.241H548.872C549.014 170.302 549.156 170.373 549.297 170.454C549.46 170.535 549.622 170.626 549.784 170.728C549.824 170.748 549.875 170.768 549.936 170.788C550.017 170.788 550.098 170.799 550.179 170.819C550.24 170.839 550.311 170.859 550.392 170.88C550.473 170.9 550.554 170.93 550.635 170.971C550.777 170.971 550.909 170.93 551.03 170.849C551.152 170.768 551.284 170.718 551.425 170.697H551.577C551.679 170.697 551.77 170.707 551.851 170.728C551.952 170.748 552.044 170.748 552.125 170.728C552.388 170.667 552.652 170.667 552.915 170.728C553.179 170.768 553.432 170.788 553.675 170.788C553.837 170.788 553.989 170.819 554.131 170.88C554.293 170.94 554.445 171.011 554.587 171.092C554.668 171.782 554.699 172.481 554.678 173.19C554.678 173.879 554.668 174.568 554.648 175.257C554.648 175.338 554.617 175.389 554.557 175.409C554.496 175.43 554.435 175.43 554.374 175.409C554.334 175.389 554.283 175.369 554.222 175.348C554.182 175.328 554.121 175.308 554.04 175.288H552.277C552.094 175.267 551.922 175.267 551.76 175.288C551.618 175.308 551.466 175.308 551.304 175.288C551.142 175.267 550.98 175.257 550.817 175.257C550.655 175.237 550.483 175.217 550.301 175.196C550.159 175.176 550.007 175.166 549.845 175.166C549.683 175.166 549.51 175.156 549.328 175.136C549.227 175.136 549.115 175.115 548.993 175.075C548.892 175.034 548.791 175.004 548.689 174.984C548.548 175.004 548.436 175.055 548.355 175.136C548.294 175.217 548.213 175.298 548.112 175.379C548.092 175.419 548.061 175.48 548.021 175.561C548 175.622 547.97 175.683 547.929 175.744C547.95 175.804 547.96 175.875 547.96 175.956C548.061 176.078 548.122 176.22 548.142 176.382C548.183 176.524 548.203 176.676 548.203 176.838C548.203 177.081 548.213 177.324 548.233 177.568C548.274 177.811 548.274 178.054 548.233 178.297C548.233 178.5 548.233 178.703 548.233 178.905C548.254 179.108 548.304 179.3 548.385 179.483C548.406 179.523 548.416 179.594 548.416 179.696C548.294 179.979 548.132 180.253 547.929 180.516C547.727 180.658 547.524 180.75 547.321 180.79C547.139 180.851 546.936 180.932 546.713 181.033C546.632 181.013 546.541 181.003 546.44 181.003C546.359 181.003 546.268 181.003 546.166 181.003C546.085 181.023 545.953 181.094 545.771 181.216H544.737C544.575 181.216 544.403 181.216 544.221 181.216C544.059 181.236 543.876 181.246 543.673 181.246C543.471 181.246 543.329 181.155 543.248 180.972C543.228 180.891 543.217 180.8 543.217 180.699C543.217 180.598 543.207 180.486 543.187 180.364C543.126 180.263 543.076 180.172 543.035 180.091C542.995 179.99 542.954 179.898 542.913 179.817C542.893 179.696 542.873 179.574 542.853 179.452C542.853 179.331 542.843 179.219 542.822 179.118C542.883 178.936 542.934 178.763 542.974 178.601C543.035 178.439 543.096 178.267 543.157 178.084C543.076 177.618 543.025 177.142 543.005 176.656C542.984 176.149 543.015 175.642 543.096 175.136C543.096 175.034 543.076 174.923 543.035 174.801C543.015 174.68 543.035 174.548 543.096 174.406C543.217 174.183 543.217 173.97 543.096 173.768C543.076 173.626 543.055 173.484 543.035 173.342C543.035 173.2 543.055 173.058 543.096 172.916C543.136 172.856 543.157 172.785 543.157 172.704C543.157 172.623 543.157 172.542 543.157 172.46C543.177 172.359 543.167 172.248 543.126 172.126C543.086 172.004 543.076 171.883 543.096 171.761C543.136 171.66 543.157 171.559 543.157 171.457C543.177 171.336 543.187 171.214 543.187 171.092C543.187 170.951 543.197 170.809 543.217 170.667C543.238 170.525 543.268 170.393 543.309 170.272C543.288 170.13 543.268 170.008 543.248 169.907C543.248 169.785 543.238 169.664 543.217 169.542C543.319 169.319 543.369 169.096 543.369 168.873C543.39 168.63 543.4 168.387 543.4 168.144C543.4 167.982 543.4 167.819 543.4 167.657C543.4 167.495 543.41 167.343 543.43 167.201C543.451 167.039 543.461 166.887 543.461 166.745C543.481 166.583 543.491 166.431 543.491 166.289C543.491 166.249 543.481 166.208 543.461 166.168C543.461 166.107 543.471 166.056 543.491 166.016C543.572 165.854 543.603 165.702 543.582 165.56C543.582 165.398 543.592 165.246 543.613 165.104C543.613 164.982 543.613 164.86 543.613 164.739C543.633 164.597 543.653 164.465 543.673 164.344C543.653 164.242 543.623 164.131 543.582 164.009C543.542 163.888 543.511 163.786 543.491 163.705C543.511 163.604 543.532 163.503 543.552 163.401C543.592 163.3 543.613 163.199 543.613 163.097C543.633 162.854 543.795 162.692 544.099 162.611C544.464 162.489 544.849 162.398 545.254 162.337C545.396 162.337 545.508 162.297 545.589 162.216C545.67 162.175 545.761 162.155 545.862 162.155C545.984 162.175 546.105 162.175 546.227 162.155C546.369 162.135 546.511 162.114 546.653 162.094C546.815 161.993 546.997 161.942 547.2 161.942C547.585 161.922 547.97 161.871 548.355 161.79C548.74 161.709 549.125 161.658 549.51 161.638C549.713 161.618 549.905 161.608 550.088 161.608C550.27 161.587 550.463 161.608 550.665 161.668C550.828 161.689 550.99 161.709 551.152 161.729C551.314 161.729 551.476 161.729 551.638 161.729C551.719 161.729 551.8 161.729 551.881 161.729C551.963 161.709 552.044 161.699 552.125 161.699C552.408 161.679 552.621 161.679 552.763 161.699C552.905 161.699 553.047 161.709 553.189 161.729C553.331 161.75 553.543 161.79 553.827 161.851C553.969 161.871 554.101 161.891 554.222 161.912C554.364 161.912 554.496 161.932 554.617 161.972C554.84 162.074 555.084 162.145 555.347 162.185C555.448 162.206 555.529 162.246 555.59 162.307C555.651 162.347 555.702 162.388 555.742 162.428C555.823 162.753 555.823 163.067 555.742 163.371C555.803 163.553 555.864 163.766 555.925 164.009C555.925 164.03 555.915 164.08 555.894 164.161C555.894 164.222 555.894 164.273 555.894 164.313C555.894 164.415 555.904 164.475 555.925 164.496C555.965 164.577 556.006 164.668 556.046 164.769C556.087 164.85 556.117 164.931 556.137 165.012C556.178 165.073 556.198 165.134 556.198 165.195C556.198 165.256 556.198 165.316 556.198 165.377Z" fill="white"/>
</g>
</g>
<defs>
<filter id="filter0_d_1101_64" x="862.275" y="3.23047" width="160.033" height="138.369" filterUnits="userSpaceOnUse" color-interpolation-filters="sRGB">
<feFlood flood-opacity="0" result="BackgroundImageFix"/>
<feColorMatrix in="SourceAlpha" type="matrix" values="0 0 0 0 0 0 0 0 0 0 0 0 0 0 0 0 0 0 127 0" result="hardAlpha"/>
<feOffset dy="2.8"/>
<feGaussianBlur stdDeviation="1.4"/>
<feComposite in2="hardAlpha" operator="out"/>
<feColorMatrix type="matrix" values="0 0 0 0 0 0 0 0 0 0 0 0 0 0 0 0 0 0 0.25 0"/>
<feBlend mode="normal" in2="BackgroundImageFix" result="effect1_dropShadow_1101_64"/>
<feBlend mode="normal" in="SourceGraphic" in2="effect1_dropShadow_1101_64" result="shape"/>
</filter>
<filter id="filter1_d_1101_64" x="862.275" y="98.3599" width="52.8167" height="46.0396" filterUnits="userSpaceOnUse" color-interpolation-filters="sRGB">
<feFlood flood-opacity="0" result="BackgroundImageFix"/>
<feColorMatrix in="SourceAlpha" type="matrix" values="0 0 0 0 0 0 0 0 0 0 0 0 0 0 0 0 0 0 127 0" result="hardAlpha"/>
<feOffset dx="1.4" dy="4.2"/>
<feGaussianBlur stdDeviation="2.1"/>
<feComposite in2="hardAlpha" operator="out"/>
<feColorMatrix type="matrix" values="0 0 0 0 0 0 0 0 0 0 0 0 0 0 0 0 0 0 0.25 0"/>
<feBlend mode="normal" in2="BackgroundImageFix" result="effect1_dropShadow_1101_64"/>
<feBlend mode="normal" in="SourceGraphic" in2="effect1_dropShadow_1101_64" result="shape"/>
</filter>
<filter id="filter2_d_1101_64" x="970.175" y="98.3599" width="52.1334" height="44.6954" filterUnits="userSpaceOnUse" color-interpolation-filters="sRGB">
<feFlood flood-opacity="0" result="BackgroundImageFix"/>
<feColorMatrix in="SourceAlpha" type="matrix" values="0 0 0 0 0 0 0 0 0 0 0 0 0 0 0 0 0 0 127 0" result="hardAlpha"/>
<feOffset dx="-1.4" dy="4.2"/>
<feGaussianBlur stdDeviation="2.1"/>
<feComposite in2="hardAlpha" operator="out"/>
<feColorMatrix type="matrix" values="0 0 0 0 0 0 0 0 0 0 0 0 0 0 0 0 0 0 0.25 0"/>
<feBlend mode="normal" in2="BackgroundImageFix" result="effect1_dropShadow_1101_64"/>
<feBlend mode="normal" in="SourceGraphic" in2="effect1_dropShadow_1101_64" result="shape"/>
</filter>
<filter id="filter3_d_1101_64" x="103.988" y="6.23047" width="164.884" height="138.369" filterUnits="userSpaceOnUse" color-interpolation-filters="sRGB">
<feFlood flood-opacity="0" result="BackgroundImageFix"/>
<feColorMatrix in="SourceAlpha" type="matrix" values="0 0 0 0 0 0 0 0 0 0 0 0 0 0 0 0 0 0 127 0" result="hardAlpha"/>
<feOffset dy="2.8"/>
<feGaussianBlur stdDeviation="1.4"/>
<feComposite in2="hardAlpha" operator="out"/>
<feColorMatrix type="matrix" values="0 0 0 0 0 0 0 0 0 0 0 0 0 0 0 0 0 0 0.25 0"/>
<feBlend mode="normal" in2="BackgroundImageFix" result="effect1_dropShadow_1101_64"/>
<feBlend mode="normal" in="SourceGraphic" in2="effect1_dropShadow_1101_64" result="shape"/>
</filter>
<filter id="filter4_d_1101_64" x="108.838" y="101.36" width="52.8167" height="46.0396" filterUnits="userSpaceOnUse" color-interpolation-filters="sRGB">
<feFlood flood-opacity="0" result="BackgroundImageFix"/>
<feColorMatrix in="SourceAlpha" type="matrix" values="0 0 0 0 0 0 0 0 0 0 0 0 0 0 0 0 0 0 127 0" result="hardAlpha"/>
<feOffset dx="1.4" dy="4.2"/>
<feGaussianBlur stdDeviation="2.1"/>
<feComposite in2="hardAlpha" operator="out"/>
<feColorMatrix type="matrix" values="0 0 0 0 0 0 0 0 0 0 0 0 0 0 0 0 0 0 0.25 0"/>
<feBlend mode="normal" in2="BackgroundImageFix" result="effect1_dropShadow_1101_64"/>
<feBlend mode="normal" in="SourceGraphic" in2="effect1_dropShadow_1101_64" result="shape"/>
</filter>
<filter id="filter5_d_1101_64" x="216.738" y="101.36" width="52.1334" height="44.6954" filterUnits="userSpaceOnUse" color-interpolation-filters="sRGB">
<feFlood flood-opacity="0" result="BackgroundImageFix"/>
<feColorMatrix in="SourceAlpha" type="matrix" values="0 0 0 0 0 0 0 0 0 0 0 0 0 0 0 0 0 0 127 0" result="hardAlpha"/>
<feOffset dx="-1.4" dy="4.2"/>
<feGaussianBlur stdDeviation="2.1"/>
<feComposite in2="hardAlpha" operator="out"/>
<feColorMatrix type="matrix" values="0 0 0 0 0 0 0 0 0 0 0 0 0 0 0 0 0 0 0.25 0"/>
<feBlend mode="normal" in2="BackgroundImageFix" result="effect1_dropShadow_1101_64"/>
<feBlend mode="normal" in="SourceGraphic" in2="effect1_dropShadow_1101_64" result="shape"/>
</filter>
<filter id="filter6_d_1101_64" x="0" y="132" width="1119.15" height="738.9" filterUnits="userSpaceOnUse" color-interpolation-filters="sRGB">
<feFlood flood-opacity="0" result="BackgroundImageFix"/>
<feColorMatrix in="SourceAlpha" type="matrix" values="0 0 0 0 0 0 0 0 0 0 0 0 0 0 0 0 0 0 127 0" result="hardAlpha"/>
<feOffset dx="-4" dy="4"/>
<feGaussianBlur stdDeviation="5"/>
<feComposite in2="hardAlpha" operator="out"/>
<feColorMatrix type="matrix" values="0 0 0 0 0 0 0 0 0 0 0 0 0 0 0 0 0 0 0.3 0"/>
<feBlend mode="normal" in2="BackgroundImageFix" result="effect1_dropShadow_1101_64"/>
<feBlend mode="normal" in="SourceGraphic" in2="effect1_dropShadow_1101_64" result="shape"/>
</filter>
<filter id="filter7_d_1101_64" x="36.9889" y="771.928" width="1062.29" height="59.9377" filterUnits="userSpaceOnUse" color-interpolation-filters="sRGB">
<feFlood flood-opacity="0" result="BackgroundImageFix"/>
<feColorMatrix in="SourceAlpha" type="matrix" values="0 0 0 0 0 0 0 0 0 0 0 0 0 0 0 0 0 0 127 0" result="hardAlpha"/>
<feOffset dy="2.1888"/>
<feGaussianBlur stdDeviation="1.0944"/>
<feComposite in2="hardAlpha" operator="out"/>
<feColorMatrix type="matrix" values="0 0 0 0 0 0 0 0 0 0 0 0 0 0 0 0 0 0 0.25 0"/>
<feBlend mode="normal" in2="BackgroundImageFix" result="effect1_dropShadow_1101_64"/>
<feBlend mode="normal" in="SourceGraphic" in2="effect1_dropShadow_1101_64" result="shape"/>
</filter>
<filter id="filter8_d_1101_64" x="25.5662" y="134.894" width="1069.95" height="76.8939" filterUnits="userSpaceOnUse" color-interpolation-filters="sRGB">
<feFlood flood-opacity="0" result="BackgroundImageFix"/>
<feColorMatrix in="SourceAlpha" type="matrix" values="0 0 0 0 0 0 0 0 0 0 0 0 0 0 0 0 0 0 127 0" result="hardAlpha"/>
<feOffset dy="2.1888"/>
<feGaussianBlur stdDeviation="3.0096"/>
<feComposite in2="hardAlpha" operator="out"/>
<feColorMatrix type="matrix" values="0 0 0 0 0 0 0 0 0 0 0 0 0 0 0 0 0 0 0.25 0"/>
<feBlend mode="normal" in2="BackgroundImageFix" result="effect1_dropShadow_1101_64"/>
<feBlend mode="normal" in="SourceGraphic" in2="effect1_dropShadow_1101_64" result="shape"/>
</filter>
<filter id="filter9_d_1101_64" x="11.8112" y="138" width="32.8776" height="723.278" filterUnits="userSpaceOnUse" color-interpolation-filters="sRGB">
<feFlood flood-opacity="0" result="BackgroundImageFix"/>
<feColorMatrix in="SourceAlpha" type="matrix" values="0 0 0 0 0 0 0 0 0 0 0 0 0 0 0 0 0 0 127 0" result="hardAlpha"/>
<feOffset dy="2.1888"/>
<feGaussianBlur stdDeviation="1.0944"/>
<feComposite in2="hardAlpha" operator="out"/>
<feColorMatrix type="matrix" values="0 0 0 0 0 0 0 0 0 0 0 0 0 0 0 0 0 0 0.25 0"/>
<feBlend mode="normal" in2="BackgroundImageFix" result="effect1_dropShadow_1101_64"/>
<feBlend mode="normal" in="SourceGraphic" in2="effect1_dropShadow_1101_64" result="shape"/>
</filter>
<filter id="filter10_d_1101_64" x="1082.46" y="139.103" width="32.8776" height="722.175" filterUnits="userSpaceOnUse" color-interpolation-filters="sRGB">
<feFlood flood-opacity="0" result="BackgroundImageFix"/>
<feColorMatrix in="SourceAlpha" type="matrix" values="0 0 0 0 0 0 0 0 0 0 0 0 0 0 0 0 0 0 127 0" result="hardAlpha"/>
<feOffset dy="2.1888"/>
<feGaussianBlur stdDeviation="1.0944"/>
<feComposite in2="hardAlpha" operator="out"/>
<feColorMatrix type="matrix" values="0 0 0 0 0 0 0 0 0 0 0 0 0 0 0 0 0 0 0.25 0"/>
<feBlend mode="normal" in2="BackgroundImageFix" result="effect1_dropShadow_1101_64"/>
<feBlend mode="normal" in="SourceGraphic" in2="effect1_dropShadow_1101_64" result="shape"/>
</filter>
<filter id="filter11_d_1101_64" x="572.5" y="161.03" width="24.32" height="26.8583" filterUnits="userSpaceOnUse" color-interpolation-filters="sRGB">
<feFlood flood-opacity="0" result="BackgroundImageFix"/>
<feColorMatrix in="SourceAlpha" type="matrix" values="0 0 0 0 0 0 0 0 0 0 0 0 0 0 0 0 0 0 127 0" result="hardAlpha"/>
<feOffset dy="3.04"/>
<feGaussianBlur stdDeviation="1.52"/>
<feComposite in2="hardAlpha" operator="out"/>
<feColorMatrix type="matrix" values="0 0 0 0 0 0 0 0 0 0 0 0 0 0 0 0 0 0 0.14 0"/>
<feBlend mode="normal" in2="BackgroundImageFix" result="effect1_dropShadow_1101_64"/>
<feBlend mode="normal" in="SourceGraphic" in2="effect1_dropShadow_1101_64" result="shape"/>
</filter>
<filter id="filter12_d_1101_64" x="552.578" y="162.459" width="24.3678" height="23.9916" filterUnits="userSpaceOnUse" color-interpolation-filters="sRGB">
<feFlood flood-opacity="0" result="BackgroundImageFix"/>
<feColorMatrix in="SourceAlpha" type="matrix" values="0 0 0 0 0 0 0 0 0 0 0 0 0 0 0 0 0 0 127 0" result="hardAlpha"/>
<feOffset dy="3.04"/>
<feGaussianBlur stdDeviation="1.52"/>
<feComposite in2="hardAlpha" operator="out"/>
<feColorMatrix type="matrix" values="0 0 0 0 0 0 0 0 0 0 0 0 0 0 0 0 0 0 0.14 0"/>
<feBlend mode="normal" in2="BackgroundImageFix" result="effect1_dropShadow_1101_64"/>
<feBlend mode="normal" in="SourceGraphic" in2="effect1_dropShadow_1101_64" result="shape"/>
</filter>
<filter id="filter13_d_1101_64" x="539.782" y="161.6" width="19.456" height="25.726" filterUnits="userSpaceOnUse" color-interpolation-filters="sRGB">
<feFlood flood-opacity="0" result="BackgroundImageFix"/>
<feColorMatrix in="SourceAlpha" type="matrix" values="0 0 0 0 0 0 0 0 0 0 0 0 0 0 0 0 0 0 127 0" result="hardAlpha"/>
<feOffset dy="3.04"/>
<feGaussianBlur stdDeviation="1.52"/>
<feComposite in2="hardAlpha" operator="out"/>
<feColorMatrix type="matrix" values="0 0 0 0 0 0 0 0 0 0 0 0 0 0 0 0 0 0 0.14 0"/>
<feBlend mode="normal" in2="BackgroundImageFix" result="effect1_dropShadow_1101_64"/>
<feBlend mode="normal" in="SourceGraphic" in2="effect1_dropShadow_1101_64" result="shape"/>
</filter>
<linearGradient id="paint0_linear_1101_64" x1="24.0649" y1="491.276" x2="1108.36" y2="491.276" gradientUnits="userSpaceOnUse">
<stop stop-color="#736D6D"/>
<stop offset="0.0336889" stop-color="#B7ADAD"/>
<stop offset="0.961559" stop-color="#B7ADAD"/>
<stop offset="1" stop-color="#736D6D"/>
</linearGradient>
<linearGradient id="paint1_linear_1101_64" x1="566.213" y1="838.818" x2="566.213" y2="143.734" gradientUnits="userSpaceOnUse">
<stop offset="0.039776" stop-color="#F7F7F7"/>
<stop offset="0.0810584" stop-color="#242424"/>
</linearGradient>
<linearGradient id="paint2_linear_1101_64" x1="566.213" y1="143.734" x2="566.213" y2="838.818" gradientUnits="userSpaceOnUse">
<stop offset="0.00690427" stop-color="#535353"/>
<stop offset="0.0266238" stop-color="#F2F2F2"/>
<stop offset="0.663464" stop-color="#FEFEFE"/>
<stop offset="0.783658" stop-color="#333131"/>
</linearGradient>
<linearGradient id="paint3_linear_1101_64" x1="24.0649" y1="491.276" x2="1108.36" y2="491.276" gradientUnits="userSpaceOnUse">
<stop stop-color="#736D6D"/>
<stop offset="0.0336889" stop-color="#B7ADAD"/>
<stop offset="0.961559" stop-color="#B7ADAD"/>
<stop offset="1" stop-color="#736D6D"/>
</linearGradient>
<linearGradient id="paint4_linear_1101_64" x1="566.213" y1="838.818" x2="566.213" y2="143.734" gradientUnits="userSpaceOnUse">
<stop offset="0.039776" stop-color="#F7F7F7"/>
<stop offset="0.0810584" stop-color="#242424"/>
</linearGradient>
<linearGradient id="paint5_linear_1101_64" x1="566.213" y1="143.734" x2="566.213" y2="838.818" gradientUnits="userSpaceOnUse">
<stop offset="0.00690427" stop-color="#535353"/>
<stop offset="0.0266238" stop-color="#F2F2F2"/>
<stop offset="0.663464" stop-color="#FEFEFE"/>
<stop offset="0.783658" stop-color="#333131"/>
</linearGradient>
<linearGradient id="paint6_linear_1101_64" x1="566.212" y1="143.734" x2="566.212" y2="838.818" gradientUnits="userSpaceOnUse">
<stop offset="0.283651" stop-color="#C8C4C4"/>
<stop offset="0.490385" stop-color="#BCB5B5"/>
<stop offset="0.77885" stop-color="#A39E9E"/>
</linearGradient>
<linearGradient id="paint7_linear_1101_64" x1="560.034" y1="799.124" x2="560.034" y2="815.883" gradientUnits="userSpaceOnUse">
<stop offset="0.0961898" stop-color="#605656"/>
<stop offset="1" stop-color="#3D3B3B"/>
</linearGradient>
<linearGradient id="paint8_linear_1101_64" x1="562.394" y1="354.938" x2="562.394" y2="510.326" gradientUnits="userSpaceOnUse">
<stop stop-color="#BABABA"/>
<stop offset="1" stop-color="#757171"/>
</linearGradient>
<linearGradient id="paint9_linear_1101_64" x1="598.116" y1="355.485" x2="598.116" y2="513.977" gradientUnits="userSpaceOnUse">
<stop stop-color="#BABABA"/>
<stop offset="1" stop-color="#757171"/>
</linearGradient>
<linearGradient id="paint10_linear_1101_64" x1="529.91" y1="355.362" x2="529.91" y2="513.854" gradientUnits="userSpaceOnUse">
<stop stop-color="#BABABA"/>
<stop offset="1" stop-color="#757171"/>
</linearGradient>
<linearGradient id="paint11_linear_1101_64" x1="562.394" y1="501.238" x2="562.394" y2="656.626" gradientUnits="userSpaceOnUse">
<stop stop-color="#BABABA"/>
<stop offset="1" stop-color="#757171"/>
</linearGradient>
<linearGradient id="paint12_linear_1101_64" x1="598.116" y1="501.786" x2="598.116" y2="660.277" gradientUnits="userSpaceOnUse">
<stop stop-color="#BABABA"/>
<stop offset="1" stop-color="#757171"/>
</linearGradient>
<linearGradient id="paint13_linear_1101_64" x1="529.91" y1="501.662" x2="529.91" y2="660.154" gradientUnits="userSpaceOnUse">
<stop stop-color="#BABABA"/>
<stop offset="1" stop-color="#757171"/>
</linearGradient>
<linearGradient id="paint14_linear_1101_64" x1="562.394" y1="648.82" x2="562.394" y2="804.208" gradientUnits="userSpaceOnUse">
<stop stop-color="#BABABA"/>
<stop offset="1" stop-color="#757171"/>
</linearGradient>
<linearGradient id="paint15_linear_1101_64" x1="598.116" y1="649.369" x2="598.116" y2="807.861" gradientUnits="userSpaceOnUse">
<stop stop-color="#BABABA"/>
<stop offset="1" stop-color="#757171"/>
</linearGradient>
<linearGradient id="paint16_linear_1101_64" x1="529.91" y1="649.245" x2="529.91" y2="807.737" gradientUnits="userSpaceOnUse">
<stop stop-color="#BABABA"/>
<stop offset="1" stop-color="#757171"/>
</linearGradient>
<linearGradient id="paint17_linear_1101_64" x1="568.133" y1="771.928" x2="568.133" y2="827.488" gradientUnits="userSpaceOnUse">
<stop offset="0.130571" stop-color="#ACACAC"/>
<stop offset="0.86539" stop-color="#8A8A8A"/>
<stop offset="1" stop-color="#7E7171"/>
</linearGradient>
<linearGradient id="paint18_linear_1101_64" x1="28.25" y1="856.9" x2="28.25" y2="138" gradientUnits="userSpaceOnUse">
<stop offset="0.0432634" stop-color="#737373"/>
<stop offset="0.774043" stop-color="#D9D9D9"/>
</linearGradient>
<linearGradient id="paint19_linear_1101_64" x1="1098.9" y1="856.9" x2="1098.9" y2="139.103" gradientUnits="userSpaceOnUse">
<stop offset="0.0432634" stop-color="#737373"/>
<stop offset="0.774043" stop-color="#D9D9D9"/>
</linearGradient>
</defs>
</svg>
