<svg width="896" height="251" viewBox="79 212 896 251" fill="none" xmlns="http://www.w3.org/2000/svg">
<path d="M906.539 412C898.413 412 891.115 410.431 884.648 407.295C878.345 404.158 873.287 399.948 869.472 394.665C865.824 389.217 864 382.943 864 375.844C864 366.6 866.986 359.088 872.955 353.309C878.926 347.531 887.467 343.57 898.578 341.423L927.684 335.479C933.489 334.324 937.47 332.508 939.625 330.031C941.781 327.555 942.86 323.924 942.86 319.136L945.845 348.109L904.052 357.024C898.413 358.179 894.018 360.243 890.867 363.215C887.882 366.187 886.39 370.314 886.39 375.597C886.39 381.046 888.462 385.42 892.609 388.722C896.919 392.024 902.725 393.675 910.022 393.675C915.993 393.675 921.465 392.354 926.44 389.712C931.582 387.071 935.562 383.438 938.382 378.817C941.366 374.029 942.86 368.581 942.86 362.472V319.136C942.86 313.192 940.704 308.57 936.391 305.267C932.246 301.801 926.524 300.067 919.226 300.067C909.939 300.067 902.808 302.379 897.833 307.001C892.856 311.624 889.955 318.144 889.126 326.565L867.234 323.594C868.063 314.843 870.716 307.331 875.194 301.059C879.672 294.619 885.643 289.667 893.106 286.2C900.569 282.732 909.442 281 919.724 281C934.318 281 945.513 284.714 953.307 292.143C961.102 299.572 965 309.148 965 320.868V408.285H943.357V392.189C941.201 397.637 936.806 402.342 930.172 406.305C923.704 410.101 915.826 412 906.539 412Z" fill="black"/>
<path d="M688 408V284.706H709.645V298.543C711.303 293.766 714.953 289.647 720.593 286.189C726.231 282.729 732.783 281 740.247 281C747.545 281 754.263 282.564 760.4 285.693C766.537 288.824 770.518 293.519 772.342 299.778C774.498 294.013 778.479 289.483 784.284 286.189C790.256 282.729 796.89 281 804.188 281C816.794 281 826.414 284.623 833.049 291.871C839.683 299.119 843 309.661 843 323.498V408H820.857V326.463C820.857 318.226 819.033 312.05 815.384 307.931C811.901 303.649 806.759 301.508 799.959 301.508C792.495 301.508 786.69 304.143 782.542 309.414C778.562 314.52 776.572 322.015 776.572 331.899V408H754.428V326.463C754.428 318.226 752.604 312.05 748.955 307.931C745.472 303.649 740.329 301.508 733.53 301.508C726.066 301.508 720.26 304.143 716.113 309.414C712.132 314.52 710.143 322.015 710.143 331.899V408H688Z" fill="black"/>
<path d="M603.622 453C588.156 453 575.599 449.448 565.953 442.343C556.308 435.238 550.156 425.325 547.495 412.602L569.197 407.893C571.026 415.989 574.935 422.268 580.921 426.73C586.908 431.356 594.475 433.669 603.622 433.669C614.597 433.669 622.829 430.859 628.317 425.242C633.971 419.79 636.799 411.611 636.799 400.706V381.127C634.304 387.24 629.647 392.197 622.829 395.996C616.177 399.797 608.693 401.698 600.378 401.698C589.402 401.698 579.758 399.219 571.442 394.263C563.127 389.141 556.641 382.036 551.985 372.948C547.328 363.861 545 353.368 545 341.473C545 329.411 547.328 318.837 551.985 309.749C556.641 300.661 563.044 293.64 571.192 288.683C579.508 283.561 589.236 281 600.378 281C608.693 281 616.26 282.899 623.079 286.7C630.063 290.334 634.803 294.878 637.298 300.33V284.717H659V400.706C659 411.611 656.838 420.946 652.514 428.713C648.19 436.643 641.871 442.674 633.555 446.805C625.407 450.934 615.428 453 603.622 453ZM603.122 382.118C613.766 382.118 622.248 378.4 628.567 370.965C635.053 363.529 638.295 353.7 638.295 341.473C638.295 329.081 635.053 319.167 628.567 311.732C622.08 304.297 613.599 300.578 603.122 300.578C592.479 300.578 583.915 304.297 577.428 311.732C571.109 319.167 567.95 329.081 567.95 341.473C567.95 353.7 571.192 363.529 577.678 370.965C584.165 378.4 592.646 382.118 603.122 382.118Z" fill="black"/>
<path d="M500.252 407.855V284.134H522.748V408L500.252 407.855ZM500 268.248V233H523V268.248H500Z" fill="black"/>
<path d="M374 408V233H397.339V408H374ZM378.718 334.029V312.928H473.813V334.029H378.718ZM378.718 254.347V233H483V254.347H378.718Z" fill="black"/>
<path fill-rule="evenodd" clip-rule="evenodd" d="M106.137 289.744C96.266 283.256 89.7405 272.022 89.7405 259.251C89.7405 239.165 105.882 222.881 125.793 222.881H187.563C207.474 222.881 223.615 239.165 223.615 259.251C223.615 272.022 217.09 283.256 207.219 289.744C217.09 296.233 223.615 307.467 223.615 320.238C223.615 340.324 207.474 356.607 187.563 356.607H186.906C177.494 356.607 168.924 352.969 162.503 347.01V380.893C162.503 401.204 146.008 417.594 125.956 417.594C106.086 417.594 89.7405 401.352 89.7405 381.225C89.7405 368.453 96.2657 357.22 106.136 350.731C96.2657 344.243 89.7405 333.009 89.7405 320.238C89.7405 307.467 96.266 296.233 106.137 289.744ZM162.503 320.238C162.503 333.834 173.429 344.855 186.906 344.855H187.563C201.04 344.855 211.966 333.834 211.966 320.238C211.966 306.642 201.04 295.621 187.563 295.621H186.906C173.429 295.621 162.503 306.642 162.503 320.238ZM150.853 295.621H125.793C112.316 295.621 101.39 306.642 101.39 320.238C101.39 333.806 112.272 344.81 125.711 344.855H125.749H150.853V295.621ZM125.793 356.607C125.766 356.607 125.738 356.607 125.711 356.607C112.272 356.652 101.39 367.656 101.39 381.225C101.39 394.779 112.438 405.842 125.956 405.842C139.656 405.842 150.853 394.631 150.853 380.893V356.607H125.793ZM150.853 283.868H125.793C112.316 283.868 101.39 272.847 101.39 259.251C101.39 245.655 112.316 234.634 125.793 234.634H150.853V283.868ZM187.563 283.868H162.503V234.634H187.563C201.04 234.634 211.966 245.655 211.966 259.251C211.966 272.847 201.04 283.868 187.563 283.868Z" fill="black"/>
</svg>
