<?xml version="1.0" encoding="UTF-8"?>
<svg id="Layer_1" xmlns="http://www.w3.org/2000/svg" version="1.1" viewBox="0 0 746 144">
  <!-- Generator: Adobe Illustrator 29.3.0, SVG Export Plug-In . SVG Version: 2.1.0 Build 146)  -->
  <defs>
    <style>
      .st0, .st1 {
        fill: #1e1e1f;
      }

      .st1 {
        fill-opacity: .4;
      }
    </style>
  </defs>
  <path class="st0" d="M18,90c9.9,0,18-8.1,18-18s-8.1-18-18-18S0,62.1,0,72s8.1,18,18,18Z"/>
  <path class="st0" d="M72,90c9.9,0,18-8.1,18-18s-8.1-18-18-18-18,8.1-18,18,8.1,18,18,18Z"/>
  <path class="st0" d="M72,144c9.9,0,18-8.1,18-18s-8.1-18-18-18-18,8.1-18,18,8.1,18,18,18Z"/>
  <path class="st0" d="M126,90c9.9,0,18-8.1,18-18s-8.1-18-18-18-18,8.1-18,18,8.1,18,18,18Z"/>
  <path class="st1" d="M18,144c9.9,0,18-8.1,18-18s-8.1-18-18-18S0,116.1,0,126s8.1,18,18,18Z"/>
  <path class="st1" d="M126,144c9.9,0,18-8.1,18-18s-8.1-18-18-18-18,8.1-18,18,8.1,18,18,18Z"/>
  <path class="st1" d="M18,36c9.9,0,18-8.1,18-18S27.9,0,18,0,0,8.1,0,18s8.1,18,18,18Z"/>
  <path class="st1" d="M72,36c9.9,0,18-8.1,18-18S81.9,0,72,0s-18,8.1-18,18,8.1,18,18,18Z"/>
  <path class="st1" d="M126,36c9.9,0,18-8.1,18-18S135.9,0,126,0s-18,8.1-18,18,8.1,18,18,18Z"/>
  <path class="st0" d="M237.5,126c4.7,0,8.5-.4,13.1-1.3v-17c-2.8,1-5.9,1.3-8.8,1.3-7.2,0-9.8-3.5-9.8-10.3v-34.6h18.6v-17h-18.6v-25.2h-20.5v25.2h-13.4v17h13.4v36.5c0,16.1,8.5,25.4,26.1,25.4Z"/>
  <path class="st0" d="M284.1,126c11,0,18.3-3.7,22-9.4.3,2.5,1.2,5.9,2.3,7.9h18.5c-1-3.5-1.8-9.1-1.8-12.8v-40.2c0-16.6-11.9-26-32-26s-27.1,5.7-33.7,14.1l11.7,11.6c5.3-5.9,12-9,20.2-9s14.4,3.4,14.4,8.4-2.9,7.2-18.8,7.2-30.7,6.3-30.7,23.9,11.7,24.2,27.7,24.2ZM288.2,110.4c-7.9,0-11.6-3.4-11.6-9.4s4.4-8.8,11.7-8.8c11.7,0,15-.7,17.5-3.2v6.3c0,8.4-7,15.1-17.6,15.1Z"/>
  <path class="st0" d="M338.5,37.2h21.4v-19.2h-21.4v19.2ZM339,124.5h20.5V47.1h-20.5v77.5Z"/>
  <path class="st0" d="M374.5,124.5h20.5V20.3h-20.5v104.2Z"/>
  <path class="st0" d="M437.7,126c22.6,0,34.2-11.9,34.2-24.4s-5.7-19.7-24.5-23c-13.2-2.3-21.4-5.3-21.4-9.8s4.7-6.7,12.6-6.7,12.9,2.3,17.3,7.5l13.1-11c-6.6-8.2-17.5-12.9-30.4-12.9-19.8,0-32.1,10.6-32.1,23.5s12.9,20.4,26.9,22.9c11.6,2.1,18,4.3,18,9.2s-4.5,7.8-13.2,7.8-15.1-4-18.2-9.8l-17.3,8.2c4.3,10.6,18.8,18.6,35.1,18.6Z"/>
  <path class="st0" d="M517.8,126c14.7,0,25.2-5.9,33.2-19.1l-16.4-8.4c-3.1,6.2-8.1,10.4-16.7,10.4-13.1,0-20.1-10.6-20.1-23.3s7.5-23,20.1-23,13.2,4.3,16.3,10.7l16.6-8.8c-5.6-12.2-16.6-18.9-32.9-18.9-26.9,0-40.6,19.7-40.6,40.1s16.7,40.4,40.6,40.4Z"/>
  <path class="st0" d="M583.7,126c11,0,18.3-3.7,22-9.4.3,2.5,1.2,5.9,2.3,7.9h18.5c-1-3.5-1.8-9.1-1.8-12.8v-40.2c0-16.6-11.9-26-32-26s-27.1,5.7-33.7,14.1l11.7,11.6c5.3-5.9,12-9,20.2-9s14.4,3.4,14.4,8.4-2.9,7.2-18.8,7.2-30.7,6.3-30.7,23.9,11.7,24.2,27.7,24.2ZM587.8,110.4c-7.9,0-11.6-3.4-11.6-9.4s4.4-8.8,11.7-8.8c11.7,0,15-.7,17.5-3.2v6.3c0,8.4-7,15.1-17.6,15.1Z"/>
  <path class="st0" d="M636.8,124.5h20.5V20.3h-20.5v104.2Z"/>
  <path class="st0" d="M706.7,126c15.1,0,27.3-6,34-16.7l-15.6-10c-4.1,6.5-9.5,10-18.5,10s-17.5-5.6-19.4-16.4h58.4v-7.2c0-20.4-12.5-40.1-39.2-40.1s-39.2,19.8-39.2,40.2c0,29.1,21.9,40.2,39.3,40.2ZM688.1,76.7c3.2-9.8,10-14.4,18.9-14.4s16.3,6,18.3,14.4h-37.3Z"/>
</svg>